<svg width="42" height="34" viewBox="0 0 42 34" fill="none" xmlns="http://www.w3.org/2000/svg">
<path d="M41.7714 22.1659C41.7645 22.0844 41.7467 22.0041 41.7185 21.9272L41.6953 21.8645C41.5546 21.341 41.3661 20.8317 41.1319 20.3429L36.4809 7.7812C36.0665 6.51907 35.26 5.42208 34.1788 4.6501L34.0131 3.47468C34.0053 3.41936 33.9925 3.36487 33.9748 3.31185C33.3511 1.45622 31.6083 0.209104 29.6507 0.217572C27.1978 0.217572 25.1565 2.22949 25.1004 4.70247V4.74297L25.1396 6.56151C24.7162 7.28305 24.4438 8.08292 24.3388 8.91289H17.663C17.5578 8.08393 17.2859 7.2848 16.8633 6.5639L16.9022 4.77712C16.9022 4.7635 16.9022 4.7554 16.9022 4.74177C16.846 2.2688 14.8046 0.259637 12.3518 0.259637C10.3939 0.251721 8.65119 1.4993 8.02768 3.3553C8.01056 3.40684 7.99804 3.45986 7.99022 3.51362L7.82362 4.65C6.74273 5.42208 5.93642 6.5188 5.52194 7.78073L0.871174 20.3428C0.637011 20.8316 0.448411 21.341 0.307766 21.8645L0.284571 21.9271C0.256313 22.0042 0.238548 22.0847 0.231645 22.1665C-0.877683 26.9541 2.10412 31.7345 6.89175 32.8438C11.6794 33.9531 16.4597 30.9712 17.5691 26.1837C17.7218 25.5247 17.7988 24.8505 17.7987 24.1741C17.7987 24.0774 17.7966 23.9808 17.7936 23.8852C17.7972 23.8498 17.7989 23.8141 17.7987 23.7784L17.7791 20.6949H24.2247L24.2041 23.9625C24.2041 23.978 24.2055 23.996 24.2062 24.0112C24.2053 24.0645 24.2041 24.1191 24.2041 24.1726C24.2057 29.0868 28.1907 33.0692 33.1049 33.0676C38.0191 33.0661 42.0015 29.0811 42 24.1669C41.9997 23.4934 41.923 22.8221 41.7714 22.1659ZM12.3517 2.1033C13.7576 2.1033 14.9364 3.21972 15.0527 4.62405C13.5458 3.56811 11.6509 3.22772 9.87061 3.69301C10.3117 2.72019 11.2835 2.0975 12.3517 2.1033ZM7.25423 8.40434C7.25837 8.39311 7.26233 8.38179 7.26601 8.37047C8.0263 6.05259 10.5217 4.78991 12.8396 5.55021C13.7796 5.85856 14.5888 6.47351 15.1377 7.29649C15.155 7.32695 15.1742 7.35641 15.1949 7.38476C15.6352 8.07822 15.8687 8.88288 15.8681 9.70429L15.9254 18.7194C13.1377 15.1212 8.08153 14.2119 4.2148 16.6134L7.25423 8.40434ZM15.239 27.2777C14.0543 29.6975 11.5952 31.2315 8.90091 31.2313V31.2309C5.00225 31.2297 1.8428 28.0682 1.844 24.1696C1.84418 23.5802 1.91819 22.9931 2.06426 22.4222L2.56407 21.0722C4.27767 17.5721 8.5042 16.1239 12.0043 17.8375C15.5044 19.5511 16.9527 23.7777 15.239 27.2777ZM24.2354 18.8539H17.7673L17.7581 17.4732H24.2446L24.2354 18.8539ZM24.2565 15.6323H17.7468L17.7162 10.7539H24.2868L24.2565 15.6323ZM29.6511 2.05847C30.7389 2.05249 31.7244 2.69856 32.1528 3.69844C30.3658 3.22487 28.461 3.56424 26.9476 4.6258C27.0409 3.19965 28.2296 2.05847 29.6511 2.05847ZM26.1347 9.69767C26.1347 7.28921 28.1142 5.32976 30.5474 5.32976C31.3311 5.32902 32.1009 5.5376 32.777 5.93394C32.822 5.96745 32.8699 5.99681 32.9203 6.02166C33.7795 6.57043 34.4215 7.4004 34.7368 8.37001C34.7405 8.3817 34.7444 8.39302 34.7486 8.40425L37.788 16.6133C33.9217 14.212 28.8661 15.1207 26.0781 18.7181L26.1347 9.69767ZM34.8493 31.0105C34.2783 31.1566 33.6912 31.2306 33.1019 31.2308L33.1021 31.231C29.2046 31.2322 26.0441 28.0736 26.0429 24.1761C26.0417 20.2786 29.2004 17.1182 33.0978 17.117C35.7934 17.1161 38.2539 18.651 39.4387 21.0721L39.9385 22.4221C40.9048 26.1991 38.6263 30.0442 34.8493 31.0105Z" fill="#0867D6"/>
<path d="M41.7714 22.1659C41.7645 22.0844 41.7467 22.0041 41.7185 21.9272L41.6953 21.8645C41.5546 21.341 41.3661 20.8317 41.1319 20.3429L36.4809 7.7812C36.0665 6.51907 35.26 5.42208 34.1788 4.6501L34.0131 3.47468C34.0053 3.41936 33.9925 3.36487 33.9748 3.31185C33.3511 1.45622 31.6083 0.209104 29.6507 0.217572C27.1978 0.217572 25.1565 2.22949 25.1004 4.70247V4.74297L25.1396 6.56151C24.7162 7.28305 24.4438 8.08292 24.3388 8.91289H17.663C17.5578 8.08393 17.2859 7.2848 16.8633 6.5639L16.9022 4.77712C16.9022 4.7635 16.9022 4.7554 16.9022 4.74177C16.846 2.2688 14.8046 0.259637 12.3518 0.259637C10.3939 0.251721 8.65119 1.4993 8.02768 3.3553C8.01056 3.40684 7.99804 3.45986 7.99022 3.51362L7.82362 4.65C6.74273 5.42208 5.93642 6.5188 5.52194 7.78073L0.871174 20.3428C0.637011 20.8316 0.448411 21.341 0.307766 21.8645L0.284571 21.9271C0.256313 22.0042 0.238548 22.0847 0.231645 22.1665C-0.877683 26.9541 2.10412 31.7345 6.89175 32.8438C11.6794 33.9531 16.4597 30.9712 17.5691 26.1837C17.7218 25.5247 17.7988 24.8505 17.7987 24.1741C17.7987 24.0774 17.7966 23.9808 17.7936 23.8852C17.7972 23.8498 17.7989 23.8141 17.7987 23.7784L17.7791 20.6949H24.2247L24.2041 23.9625C24.2041 23.978 24.2055 23.996 24.2062 24.0112C24.2053 24.0645 24.2041 24.1191 24.2041 24.1726C24.2057 29.0868 28.1907 33.0692 33.1049 33.0676C38.0191 33.0661 42.0015 29.0811 42 24.1669C41.9997 23.4934 41.923 22.8221 41.7714 22.1659ZM12.3517 2.1033C13.7576 2.1033 14.9364 3.21972 15.0527 4.62405C13.5458 3.56811 11.6509 3.22772 9.87061 3.69301C10.3117 2.72019 11.2835 2.0975 12.3517 2.1033ZM7.25423 8.40434C7.25837 8.39311 7.26233 8.38179 7.26601 8.37047C8.0263 6.05259 10.5217 4.78991 12.8396 5.55021C13.7796 5.85856 14.5888 6.47351 15.1377 7.29649C15.155 7.32695 15.1742 7.35641 15.1949 7.38476C15.6352 8.07822 15.8687 8.88288 15.8681 9.70429L15.9254 18.7194C13.1377 15.1212 8.08153 14.2119 4.2148 16.6134L7.25423 8.40434ZM15.239 27.2777C14.0543 29.6975 11.5952 31.2315 8.90091 31.2313V31.2309C5.00225 31.2297 1.8428 28.0682 1.844 24.1696C1.84418 23.5802 1.91819 22.9931 2.06426 22.4222L2.56407 21.0722C4.27767 17.5721 8.5042 16.1239 12.0043 17.8375C15.5044 19.5511 16.9527 23.7777 15.239 27.2777ZM24.2354 18.8539H17.7673L17.7581 17.4732H24.2446L24.2354 18.8539ZM24.2565 15.6323H17.7468L17.7162 10.7539H24.2868L24.2565 15.6323ZM29.6511 2.05847C30.7389 2.05249 31.7244 2.69856 32.1528 3.69844C30.3658 3.22487 28.461 3.56424 26.9476 4.6258C27.0409 3.19965 28.2296 2.05847 29.6511 2.05847ZM26.1347 9.69767C26.1347 7.28921 28.1142 5.32976 30.5474 5.32976C31.3311 5.32902 32.1009 5.5376 32.777 5.93394C32.822 5.96745 32.8699 5.99681 32.9203 6.02166C33.7795 6.57043 34.4215 7.4004 34.7368 8.37001C34.7405 8.3817 34.7444 8.39302 34.7486 8.40425L37.788 16.6133C33.9217 14.212 28.8661 15.1207 26.0781 18.7181L26.1347 9.69767ZM34.8493 31.0105C34.2783 31.1566 33.6912 31.2306 33.1019 31.2308L33.1021 31.231C29.2046 31.2322 26.0441 28.0736 26.0429 24.1761C26.0417 20.2786 29.2004 17.1182 33.0978 17.117C35.7934 17.1161 38.2539 18.651 39.4387 21.0721L39.9385 22.4221C40.9048 26.1991 38.6263 30.0442 34.8493 31.0105Z" fill="#0696E7"/>
<path d="M41.7714 22.1659C41.7645 22.0844 41.7467 22.0041 41.7185 21.9272L41.6953 21.8645C41.5546 21.341 41.3661 20.8317 41.1319 20.3429L36.4809 7.7812C36.0665 6.51907 35.26 5.42208 34.1788 4.6501L34.0131 3.47468C34.0053 3.41936 33.9925 3.36487 33.9748 3.31185C33.3511 1.45622 31.6083 0.209104 29.6507 0.217572C27.1978 0.217572 25.1565 2.22949 25.1004 4.70247V4.74297L25.1396 6.56151C24.7162 7.28305 24.4438 8.08292 24.3388 8.91289H17.663C17.5578 8.08393 17.2859 7.2848 16.8633 6.5639L16.9022 4.77712C16.9022 4.7635 16.9022 4.7554 16.9022 4.74177C16.846 2.2688 14.8046 0.259637 12.3518 0.259637C10.3939 0.251721 8.65119 1.4993 8.02768 3.3553C8.01056 3.40684 7.99804 3.45986 7.99022 3.51362L7.82362 4.65C6.74273 5.42208 5.93642 6.5188 5.52194 7.78073L0.871174 20.3428C0.637011 20.8316 0.448411 21.341 0.307766 21.8645L0.284571 21.9271C0.256313 22.0042 0.238548 22.0847 0.231645 22.1665C-0.877683 26.9541 2.10412 31.7345 6.89175 32.8438C11.6794 33.9531 16.4597 30.9712 17.5691 26.1837C17.7218 25.5247 17.7988 24.8505 17.7987 24.1741C17.7987 24.0774 17.7966 23.9808 17.7936 23.8852C17.7972 23.8498 17.7989 23.8141 17.7987 23.7784L17.7791 20.6949H24.2247L24.2041 23.9625C24.2041 23.978 24.2055 23.996 24.2062 24.0112C24.2053 24.0645 24.2041 24.1191 24.2041 24.1726C24.2057 29.0868 28.1907 33.0692 33.1049 33.0676C38.0191 33.0661 42.0015 29.0811 42 24.1669C41.9997 23.4934 41.923 22.8221 41.7714 22.1659ZM12.3517 2.1033C13.7576 2.1033 14.9364 3.21972 15.0527 4.62405C13.5458 3.56811 11.6509 3.22772 9.87061 3.69301C10.3117 2.72019 11.2835 2.0975 12.3517 2.1033ZM7.25423 8.40434C7.25837 8.39311 7.26233 8.38179 7.26601 8.37047C8.0263 6.05259 10.5217 4.78991 12.8396 5.55021C13.7796 5.85856 14.5888 6.47351 15.1377 7.29649C15.155 7.32695 15.1742 7.35641 15.1949 7.38476C15.6352 8.07822 15.8687 8.88288 15.8681 9.70429L15.9254 18.7194C13.1377 15.1212 8.08153 14.2119 4.2148 16.6134L7.25423 8.40434ZM15.239 27.2777C14.0543 29.6975 11.5952 31.2315 8.90091 31.2313V31.2309C5.00225 31.2297 1.8428 28.0682 1.844 24.1696C1.84418 23.5802 1.91819 22.9931 2.06426 22.4222L2.56407 21.0722C4.27767 17.5721 8.5042 16.1239 12.0043 17.8375C15.5044 19.5511 16.9527 23.7777 15.239 27.2777ZM24.2354 18.8539H17.7673L17.7581 17.4732H24.2446L24.2354 18.8539ZM24.2565 15.6323H17.7468L17.7162 10.7539H24.2868L24.2565 15.6323ZM29.6511 2.05847C30.7389 2.05249 31.7244 2.69856 32.1528 3.69844C30.3658 3.22487 28.461 3.56424 26.9476 4.6258C27.0409 3.19965 28.2296 2.05847 29.6511 2.05847ZM26.1347 9.69767C26.1347 7.28921 28.1142 5.32976 30.5474 5.32976C31.3311 5.32902 32.1009 5.5376 32.777 5.93394C32.822 5.96745 32.8699 5.99681 32.9203 6.02166C33.7795 6.57043 34.4215 7.4004 34.7368 8.37001C34.7405 8.3817 34.7444 8.39302 34.7486 8.40425L37.788 16.6133C33.9217 14.212 28.8661 15.1207 26.0781 18.7181L26.1347 9.69767ZM34.8493 31.0105C34.2783 31.1566 33.6912 31.2306 33.1019 31.2308L33.1021 31.231C29.2046 31.2322 26.0441 28.0736 26.0429 24.1761C26.0417 20.2786 29.2004 17.1182 33.0978 17.117C35.7934 17.1161 38.2539 18.651 39.4387 21.0721L39.9385 22.4221C40.9048 26.1991 38.6263 30.0442 34.8493 31.0105Z" fill="#208EE2"/>
<path d="M8.90079 17.8689C5.41863 17.8689 2.5957 20.6917 2.5957 24.174C2.5957 27.6561 5.41863 30.4791 8.90079 30.4791C12.383 30.4791 15.2059 27.6561 15.2059 24.174C15.2021 20.6934 12.3815 17.8728 8.90079 17.8689ZM8.90079 28.6383C6.43527 28.6383 4.43661 26.6396 4.43661 24.1741C4.43661 21.7086 6.43527 19.7099 8.90079 19.7099C11.3663 19.7099 13.365 21.7086 13.365 24.1741C13.3623 26.6384 11.3652 28.6355 8.90079 28.6383Z" fill="#0867D6"/>
<path d="M8.90079 17.8689C5.41863 17.8689 2.5957 20.6917 2.5957 24.174C2.5957 27.6561 5.41863 30.4791 8.90079 30.4791C12.383 30.4791 15.2059 27.6561 15.2059 24.174C15.2021 20.6934 12.3815 17.8728 8.90079 17.8689ZM8.90079 28.6383C6.43527 28.6383 4.43661 26.6396 4.43661 24.1741C4.43661 21.7086 6.43527 19.7099 8.90079 19.7099C11.3663 19.7099 13.365 21.7086 13.365 24.1741C13.3623 26.6384 11.3652 28.6355 8.90079 28.6383Z" fill="#0696E7"/>
<path d="M8.90079 17.8689C5.41863 17.8689 2.5957 20.6917 2.5957 24.174C2.5957 27.6561 5.41863 30.4791 8.90079 30.4791C12.383 30.4791 15.2059 27.6561 15.2059 24.174C15.2021 20.6934 12.3815 17.8728 8.90079 17.8689ZM8.90079 28.6383C6.43527 28.6383 4.43661 26.6396 4.43661 24.1741C4.43661 21.7086 6.43527 19.7099 8.90079 19.7099C11.3663 19.7099 13.365 21.7086 13.365 24.1741C13.3623 26.6384 11.3652 28.6355 8.90079 28.6383Z" fill="#208EE2"/>
<path d="M32.9897 17.8689C29.5074 17.8689 26.6846 20.6917 26.6846 24.174C26.6846 27.6561 29.5074 30.4791 32.9897 30.4791C36.4718 30.4791 39.2947 27.6561 39.2947 24.174C39.2909 20.6934 36.4703 17.8728 32.9897 17.8689ZM32.9897 28.6383C30.5241 28.6383 28.5255 26.6396 28.5255 24.1741C28.5255 21.7086 30.5241 19.7099 32.9897 19.7099C35.4552 19.7099 37.4538 21.7086 37.4538 24.1741C37.4512 26.6384 35.454 28.6356 32.9897 28.6383Z" fill="#0867D6"/>
<path d="M32.9897 17.8689C29.5074 17.8689 26.6846 20.6917 26.6846 24.174C26.6846 27.6561 29.5074 30.4791 32.9897 30.4791C36.4718 30.4791 39.2947 27.6561 39.2947 24.174C39.2909 20.6934 36.4703 17.8728 32.9897 17.8689ZM32.9897 28.6383C30.5241 28.6383 28.5255 26.6396 28.5255 24.1741C28.5255 21.7086 30.5241 19.7099 32.9897 19.7099C35.4552 19.7099 37.4538 21.7086 37.4538 24.1741C37.4512 26.6384 35.454 28.6356 32.9897 28.6383Z" fill="#0696E7"/>
<path d="M32.9897 17.8689C29.5074 17.8689 26.6846 20.6917 26.6846 24.174C26.6846 27.6561 29.5074 30.4791 32.9897 30.4791C36.4718 30.4791 39.2947 27.6561 39.2947 24.174C39.2909 20.6934 36.4703 17.8728 32.9897 17.8689ZM32.9897 28.6383C30.5241 28.6383 28.5255 26.6396 28.5255 24.1741C28.5255 21.7086 30.5241 19.7099 32.9897 19.7099C35.4552 19.7099 37.4538 21.7086 37.4538 24.1741C37.4512 26.6384 35.454 28.6356 32.9897 28.6383Z" fill="#208EE2"/>
</svg>
