<svg width="48" height="48" viewBox="0 0 48 48" fill="none" xmlns="http://www.w3.org/2000/svg">
<path d="M37.4075 36.5921C38.6455 37.8301 38.6455 39.8361 37.4075 41.0721C36.1695 42.3101 34.1635 42.3101 32.9275 41.0721C31.6895 39.8341 31.6895 37.8281 32.9275 36.5921C34.1655 35.3541 36.1715 35.3541 37.4075 36.5921" stroke="#0867D6" stroke-width="2" stroke-linecap="round" stroke-linejoin="round"/>
<path d="M37.4075 36.5921C38.6455 37.8301 38.6455 39.8361 37.4075 41.0721C36.1695 42.3101 34.1635 42.3101 32.9275 41.0721C31.6895 39.8341 31.6895 37.8281 32.9275 36.5921C34.1655 35.3541 36.1715 35.3541 37.4075 36.5921" stroke="#0696E7" stroke-width="2" stroke-linecap="round" stroke-linejoin="round"/>
<path d="M37.4075 36.5921C38.6455 37.8301 38.6455 39.8361 37.4075 41.0721C36.1695 42.3101 34.1635 42.3101 32.9275 41.0721C31.6895 39.8341 31.6895 37.8281 32.9275 36.5921C34.1655 35.3541 36.1715 35.3541 37.4075 36.5921" stroke="#208EE2" stroke-width="2" stroke-linecap="round" stroke-linejoin="round"/>
<path d="M15.4078 36.5921C16.6458 37.8301 16.6458 39.8361 15.4078 41.0721C14.1698 42.3101 12.1638 42.3101 10.9278 41.0721C9.69175 39.8341 9.68975 37.8281 10.9278 36.5921C12.1658 35.3561 14.1698 35.3541 15.4078 36.5921" stroke="#0867D6" stroke-width="2" stroke-linecap="round" stroke-linejoin="round"/>
<path d="M15.4078 36.5921C16.6458 37.8301 16.6458 39.8361 15.4078 41.0721C14.1698 42.3101 12.1638 42.3101 10.9278 41.0721C9.69175 39.8341 9.68975 37.8281 10.9278 36.5921C12.1658 35.3561 14.1698 35.3541 15.4078 36.5921" stroke="#0696E7" stroke-width="2" stroke-linecap="round" stroke-linejoin="round"/>
<path d="M15.4078 36.5921C16.6458 37.8301 16.6458 39.8361 15.4078 41.0721C14.1698 42.3101 12.1638 42.3101 10.9278 41.0721C9.69175 39.8341 9.68975 37.8281 10.9278 36.5921C12.1658 35.3561 14.1698 35.3541 15.4078 36.5921" stroke="#208EE2" stroke-width="2" stroke-linecap="round" stroke-linejoin="round"/>
<path d="M20 8H28C29.104 8 30 8.896 30 10V30H4" stroke="#0867D6" stroke-width="2" stroke-linecap="round" stroke-linejoin="round"/>
<path d="M20 8H28C29.104 8 30 8.896 30 10V30H4" stroke="#0696E7" stroke-width="2" stroke-linecap="round" stroke-linejoin="round"/>
<path d="M20 8H28C29.104 8 30 8.896 30 10V30H4" stroke="#208EE2" stroke-width="2" stroke-linecap="round" stroke-linejoin="round"/>
<path d="M10 38.832H6C4.896 38.832 4 37.936 4 36.832V26" stroke="#0867D6" stroke-width="2" stroke-linecap="round" stroke-linejoin="round"/>
<path d="M10 38.832H6C4.896 38.832 4 37.936 4 36.832V26" stroke="#0696E7" stroke-width="2" stroke-linecap="round" stroke-linejoin="round"/>
<path d="M10 38.832H6C4.896 38.832 4 37.936 4 36.832V26" stroke="#208EE2" stroke-width="2" stroke-linecap="round" stroke-linejoin="round"/>
<path d="M30 14H38.646C39.464 14 40.2 14.498 40.502 15.258L43.714 23.286C43.902 23.758 44 24.262 44 24.77V36.666C44 37.77 43.104 38.666 42 38.666H38.338" stroke="#0867D6" stroke-width="2" stroke-linecap="round" stroke-linejoin="round"/>
<path d="M30 14H38.646C39.464 14 40.2 14.498 40.502 15.258L43.714 23.286C43.902 23.758 44 24.262 44 24.77V36.666C44 37.77 43.104 38.666 42 38.666H38.338" stroke="#0696E7" stroke-width="2" stroke-linecap="round" stroke-linejoin="round"/>
<path d="M30 14H38.646C39.464 14 40.2 14.498 40.502 15.258L43.714 23.286C43.902 23.758 44 24.262 44 24.77V36.666C44 37.77 43.104 38.666 42 38.666H38.338" stroke="#208EE2" stroke-width="2" stroke-linecap="round" stroke-linejoin="round"/>
<path d="M31.9998 38.8401H16.3398" stroke="#0867D6" stroke-width="2" stroke-linecap="round" stroke-linejoin="round"/>
<path d="M31.9998 38.8401H16.3398" stroke="#0696E7" stroke-width="2" stroke-linecap="round" stroke-linejoin="round"/>
<path d="M31.9998 38.8401H16.3398" stroke="#208EE2" stroke-width="2" stroke-linecap="round" stroke-linejoin="round"/>
<path d="M44 28H36V20H42.4" stroke="#0867D6" stroke-width="2" stroke-linecap="round" stroke-linejoin="round"/>
<path d="M44 28H36V20H42.4" stroke="#0696E7" stroke-width="2" stroke-linecap="round" stroke-linejoin="round"/>
<path d="M44 28H36V20H42.4" stroke="#208EE2" stroke-width="2" stroke-linecap="round" stroke-linejoin="round"/>
<path d="M4 8H14" stroke="#0867D6" stroke-width="2" stroke-linecap="round" stroke-linejoin="round"/>
<path d="M4 8H14" stroke="#0696E7" stroke-width="2" stroke-linecap="round" stroke-linejoin="round"/>
<path d="M4 8H14" stroke="#208EE2" stroke-width="2" stroke-linecap="round" stroke-linejoin="round"/>
<path d="M4 14H10" stroke="#0867D6" stroke-width="2" stroke-linecap="round" stroke-linejoin="round"/>
<path d="M4 14H10" stroke="#0696E7" stroke-width="2" stroke-linecap="round" stroke-linejoin="round"/>
<path d="M4 14H10" stroke="#208EE2" stroke-width="2" stroke-linecap="round" stroke-linejoin="round"/>
<path d="M6 20H4" stroke="#0867D6" stroke-width="2" stroke-linecap="round" stroke-linejoin="round"/>
<path d="M6 20H4" stroke="#0696E7" stroke-width="2" stroke-linecap="round" stroke-linejoin="round"/>
<path d="M6 20H4" stroke="#208EE2" stroke-width="2" stroke-linecap="round" stroke-linejoin="round"/>
</svg>
