<svg width="20" height="20" viewBox="0 0 20 20" fill="none" xmlns="http://www.w3.org/2000/svg">
<path d="M9.99967 10.8334C10.4599 10.8334 10.833 10.4603 10.833 10.0001C10.833 9.53984 10.4599 9.16675 9.99967 9.16675C9.53944 9.16675 9.16634 9.53984 9.16634 10.0001C9.16634 10.4603 9.53944 10.8334 9.99967 10.8334Z" stroke="#0867D6" stroke-width="2" stroke-linecap="round" stroke-linejoin="round"/>
<path d="M9.99967 10.8334C10.4599 10.8334 10.833 10.4603 10.833 10.0001C10.833 9.53984 10.4599 9.16675 9.99967 9.16675C9.53944 9.16675 9.16634 9.53984 9.16634 10.0001C9.16634 10.4603 9.53944 10.8334 9.99967 10.8334Z" stroke="#0696E7" stroke-width="2" stroke-linecap="round" stroke-linejoin="round"/>
<path d="M9.99967 10.8334C10.4599 10.8334 10.833 10.4603 10.833 10.0001C10.833 9.53984 10.4599 9.16675 9.99967 9.16675C9.53944 9.16675 9.16634 9.53984 9.16634 10.0001C9.16634 10.4603 9.53944 10.8334 9.99967 10.8334Z" stroke="#208EE2" stroke-width="2" stroke-linecap="round" stroke-linejoin="round"/>
<path d="M15.833 10.8334C16.2932 10.8334 16.6663 10.4603 16.6663 10.0001C16.6663 9.53984 16.2932 9.16675 15.833 9.16675C15.3728 9.16675 14.9997 9.53984 14.9997 10.0001C14.9997 10.4603 15.3728 10.8334 15.833 10.8334Z" stroke="#0867D6" stroke-width="2" stroke-linecap="round" stroke-linejoin="round"/>
<path d="M15.833 10.8334C16.2932 10.8334 16.6663 10.4603 16.6663 10.0001C16.6663 9.53984 16.2932 9.16675 15.833 9.16675C15.3728 9.16675 14.9997 9.53984 14.9997 10.0001C14.9997 10.4603 15.3728 10.8334 15.833 10.8334Z" stroke="#0696E7" stroke-width="2" stroke-linecap="round" stroke-linejoin="round"/>
<path d="M15.833 10.8334C16.2932 10.8334 16.6663 10.4603 16.6663 10.0001C16.6663 9.53984 16.2932 9.16675 15.833 9.16675C15.3728 9.16675 14.9997 9.53984 14.9997 10.0001C14.9997 10.4603 15.3728 10.8334 15.833 10.8334Z" stroke="#208EE2" stroke-width="2" stroke-linecap="round" stroke-linejoin="round"/>
<path d="M4.16634 10.8334C4.62658 10.8334 4.99967 10.4603 4.99967 10.0001C4.99967 9.53984 4.62658 9.16675 4.16634 9.16675C3.7061 9.16675 3.33301 9.53984 3.33301 10.0001C3.33301 10.4603 3.7061 10.8334 4.16634 10.8334Z" stroke="#0867D6" stroke-width="2" stroke-linecap="round" stroke-linejoin="round"/>
<path d="M4.16634 10.8334C4.62658 10.8334 4.99967 10.4603 4.99967 10.0001C4.99967 9.53984 4.62658 9.16675 4.16634 9.16675C3.7061 9.16675 3.33301 9.53984 3.33301 10.0001C3.33301 10.4603 3.7061 10.8334 4.16634 10.8334Z" stroke="#0696E7" stroke-width="2" stroke-linecap="round" stroke-linejoin="round"/>
<path d="M4.16634 10.8334C4.62658 10.8334 4.99967 10.4603 4.99967 10.0001C4.99967 9.53984 4.62658 9.16675 4.16634 9.16675C3.7061 9.16675 3.33301 9.53984 3.33301 10.0001C3.33301 10.4603 3.7061 10.8334 4.16634 10.8334Z" stroke="#208EE2" stroke-width="2" stroke-linecap="round" stroke-linejoin="round"/>
</svg>
