<svg width="32" height="32" viewBox="0 0 32 32" fill="none" xmlns="http://www.w3.org/2000/svg">
<path d="M3.22683 16.9507C3.04525 16.6632 2.95446 16.5195 2.90363 16.2977C2.86546 16.1312 2.86546 15.8685 2.90363 15.7019C2.95446 15.4802 3.04525 15.3365 3.22683 15.0489C4.72737 12.673 9.19387 6.6665 16.0005 6.6665C22.8072 6.6665 27.2737 12.673 28.7742 15.0489C28.9558 15.3365 29.0466 15.4802 29.0974 15.7019C29.1356 15.8685 29.1356 16.1312 29.0974 16.2977C29.0466 16.5195 28.9558 16.6632 28.7742 16.9507C27.2737 19.3267 22.8072 25.3332 16.0005 25.3332C9.19387 25.3332 4.72737 19.3267 3.22683 16.9507Z" stroke="#E0E1E3" stroke-width="2" stroke-linecap="round" stroke-linejoin="round"/>
<path d="M16.0005 19.9998C18.2097 19.9998 20.0005 18.209 20.0005 15.9998C20.0005 13.7907 18.2097 11.9998 16.0005 11.9998C13.7914 11.9998 12.0005 13.7907 12.0005 15.9998C12.0005 18.209 13.7914 19.9998 16.0005 19.9998Z" stroke="#E0E1E3" stroke-width="2" stroke-linecap="round" stroke-linejoin="round"/>
</svg>
