<svg width="45" height="37" viewBox="0 0 45 37" fill="none" xmlns="http://www.w3.org/2000/svg">
<path d="M21.9473 0H44.7761V36.4224H21.9473V0Z" fill="#0867D6"/>
<path d="M21.9473 0H44.7761V36.4224H21.9473V0Z" fill="#0696E7"/>
<path d="M21.9473 0H44.7761V36.4224H21.9473V0Z" fill="#208EE2"/>
<path d="M39.5917 18.3809C39.5917 24.4097 34.6957 29.3057 28.6669 29.3057H15.3613C9.33252 29.3057 4.43652 24.4097 4.43652 18.3809C4.43652 12.3521 9.33252 7.45605 15.3613 7.45605H28.6669C34.7149 7.45605 39.5917 12.3521 39.5917 18.3809Z" stroke="#0867D6" stroke-width="0.85" stroke-miterlimit="10" stroke-linecap="round"/>
<path d="M39.5917 18.3809C39.5917 24.4097 34.6957 29.3057 28.6669 29.3057H15.3613C9.33252 29.3057 4.43652 24.4097 4.43652 18.3809C4.43652 12.3521 9.33252 7.45605 15.3613 7.45605H28.6669C34.7149 7.45605 39.5917 12.3521 39.5917 18.3809Z" stroke="#0696E7" stroke-width="0.85" stroke-miterlimit="10" stroke-linecap="round"/>
<path d="M39.5917 18.3809C39.5917 24.4097 34.6957 29.3057 28.6669 29.3057H15.3613C9.33252 29.3057 4.43652 24.4097 4.43652 18.3809C4.43652 12.3521 9.33252 7.45605 15.3613 7.45605H28.6669C34.7149 7.45605 39.5917 12.3521 39.5917 18.3809Z" stroke="#208EE2" stroke-width="0.85" stroke-miterlimit="10" stroke-linecap="round"/>
<path d="M43.048 18.3808C43.048 26.3296 37.192 32.7616 29.9728 32.7616H14.0752C6.856 32.7616 1 26.3296 1 18.3808C1 10.432 6.856 4 14.0752 4H29.992C37.192 4 43.048 10.432 43.048 18.3808Z" stroke="#0867D6" stroke-width="0.85" stroke-miterlimit="10" stroke-linecap="round"/>
<path d="M43.048 18.3808C43.048 26.3296 37.192 32.7616 29.9728 32.7616H14.0752C6.856 32.7616 1 26.3296 1 18.3808C1 10.432 6.856 4 14.0752 4H29.992C37.192 4 43.048 10.432 43.048 18.3808Z" stroke="#0696E7" stroke-width="0.85" stroke-miterlimit="10" stroke-linecap="round"/>
<path d="M43.048 18.3808C43.048 26.3296 37.192 32.7616 29.9728 32.7616H14.0752C6.856 32.7616 1 26.3296 1 18.3808C1 10.432 6.856 4 14.0752 4H29.992C37.192 4 43.048 10.432 43.048 18.3808Z" stroke="#208EE2" stroke-width="0.85" stroke-miterlimit="10" stroke-linecap="round"/>
<path d="M7.87402 18.3232H11.618M18.434 18.3232H25.6148M32.5844 18.3232H36.3284" stroke="#0867D6" stroke-width="0.85" stroke-miterlimit="10" stroke-linecap="round"/>
<path d="M7.87402 18.3232H11.618M18.434 18.3232H25.6148M32.5844 18.3232H36.3284" stroke="#0696E7" stroke-width="0.85" stroke-miterlimit="10" stroke-linecap="round"/>
<path d="M7.87402 18.3232H11.618M18.434 18.3232H25.6148M32.5844 18.3232H36.3284" stroke="#208EE2" stroke-width="0.85" stroke-miterlimit="10" stroke-linecap="round"/>
<path d="M15.0166 11.1807V14.9247M15.0166 21.7215V25.4847" stroke="#0867D6" stroke-width="0.85" stroke-miterlimit="10" stroke-linecap="round"/>
<path d="M15.0166 11.1807V14.9247M15.0166 21.7215V25.4847" stroke="#0696E7" stroke-width="0.85" stroke-miterlimit="10" stroke-linecap="round"/>
<path d="M15.0166 11.1807V14.9247M15.0166 21.7215V25.4847" stroke="#208EE2" stroke-width="0.85" stroke-miterlimit="10" stroke-linecap="round"/>
<path d="M29.1855 11.1807V14.9247M29.1855 21.7215V25.4847" stroke="#0867D6" stroke-width="0.85" stroke-miterlimit="10" stroke-linecap="round"/>
<path d="M29.1855 11.1807V14.9247M29.1855 21.7215V25.4847" stroke="#0696E7" stroke-width="0.85" stroke-miterlimit="10" stroke-linecap="round"/>
<path d="M29.1855 11.1807V14.9247M29.1855 21.7215V25.4847" stroke="#208EE2" stroke-width="0.85" stroke-miterlimit="10" stroke-linecap="round"/>
<path d="M22.0049 7.45605H28.6673C34.6961 7.45605 39.5921 12.3521 39.5921 18.3809C39.5921 24.4097 34.6961 29.3057 28.6673 29.3057H21.9473" stroke="white" stroke-width="0.709" stroke-miterlimit="10"/>
<path d="M22.0049 4H29.9729C37.1921 4 43.0481 10.432 43.0481 18.3808C43.0481 26.3296 37.1921 32.7616 29.9729 32.7616H21.9473" stroke="white" stroke-width="0.709" stroke-miterlimit="10"/>
<path d="M22.0244 18.3232H25.6148" stroke="white" stroke-width="0.709" stroke-miterlimit="10"/>
<path d="M23.8486 18.3232H25.615M32.5846 18.3232H36.3286" stroke="white" stroke-width="0.709" stroke-miterlimit="10" stroke-linecap="round"/>
<path d="M29.1855 11.1807V14.9247M29.1855 21.7215V25.4847" stroke="white" stroke-width="0.709" stroke-miterlimit="10" stroke-linecap="round"/>
</svg>
