<svg width="48" height="48" viewBox="0 0 48 48" fill="none" xmlns="http://www.w3.org/2000/svg">
<path d="M12.252 27.6001L6 34.0001L11 37.0001L14 42.0001L21.798 33.8101" stroke="#0867D6" stroke-width="2" stroke-linecap="round" stroke-linejoin="round"/>
<path d="M12.252 27.6001L6 34.0001L11 37.0001L14 42.0001L21.798 33.8101" stroke="#0696E7" stroke-width="2" stroke-linecap="round" stroke-linejoin="round"/>
<path d="M12.252 27.6001L6 34.0001L11 37.0001L14 42.0001L21.798 33.8101" stroke="#208EE2" stroke-width="2" stroke-linecap="round" stroke-linejoin="round"/>
<path d="M26.2021 33.8101L34.0001 42.0001L37.0001 37.0001L42.0001 34.0001L35.7481 27.6001" stroke="#0867D6" stroke-width="2" stroke-linecap="round" stroke-linejoin="round"/>
<path d="M26.2021 33.8101L34.0001 42.0001L37.0001 37.0001L42.0001 34.0001L35.7481 27.6001" stroke="#0696E7" stroke-width="2" stroke-linecap="round" stroke-linejoin="round"/>
<path d="M26.2021 33.8101L34.0001 42.0001L37.0001 37.0001L42.0001 34.0001L35.7481 27.6001" stroke="#208EE2" stroke-width="2" stroke-linecap="round" stroke-linejoin="round"/>
<path d="M33.8995 10.1005C39.3668 15.5678 39.3668 24.4321 33.8995 29.8995C28.4321 35.3668 19.5678 35.3668 14.1005 29.8995C8.63316 24.4321 8.63316 15.5678 14.1005 10.1005C19.5678 4.63316 28.4321 4.63316 33.8995 10.1005" stroke="#0867D6" stroke-width="2" stroke-linecap="round" stroke-linejoin="round"/>
<path d="M33.8995 10.1005C39.3668 15.5678 39.3668 24.4321 33.8995 29.8995C28.4321 35.3668 19.5678 35.3668 14.1005 29.8995C8.63316 24.4321 8.63316 15.5678 14.1005 10.1005C19.5678 4.63316 28.4321 4.63316 33.8995 10.1005" stroke="#0696E7" stroke-width="2" stroke-linecap="round" stroke-linejoin="round"/>
<path d="M33.8995 10.1005C39.3668 15.5678 39.3668 24.4321 33.8995 29.8995C28.4321 35.3668 19.5678 35.3668 14.1005 29.8995C8.63316 24.4321 8.63316 15.5678 14.1005 10.1005C19.5678 4.63316 28.4321 4.63316 33.8995 10.1005" stroke="#208EE2" stroke-width="2" stroke-linecap="round" stroke-linejoin="round"/>
<path fill-rule="evenodd" clip-rule="evenodd" d="M23.9978 25.1681L27.5918 27.0561C28.2918 27.4241 29.1098 26.8301 28.9758 26.0501L28.2898 22.0481L31.1978 19.2161C31.7638 18.6641 31.4518 17.7021 30.6698 17.5881L26.6518 17.0041L24.8558 13.3621C24.5058 12.6521 23.4958 12.6521 23.1458 13.3621L21.3498 17.0041L17.3298 17.5901C16.5478 17.7041 16.2358 18.6661 16.8018 19.2181L19.7098 22.0501L19.0238 26.0521C18.8898 26.8321 19.7078 27.4261 20.4078 27.0581L24.0018 25.1701H23.9978V25.1681Z" stroke="#0867D6" stroke-width="2" stroke-linecap="round" stroke-linejoin="round"/>
<path fill-rule="evenodd" clip-rule="evenodd" d="M23.9978 25.1681L27.5918 27.0561C28.2918 27.4241 29.1098 26.8301 28.9758 26.0501L28.2898 22.0481L31.1978 19.2161C31.7638 18.6641 31.4518 17.7021 30.6698 17.5881L26.6518 17.0041L24.8558 13.3621C24.5058 12.6521 23.4958 12.6521 23.1458 13.3621L21.3498 17.0041L17.3298 17.5901C16.5478 17.7041 16.2358 18.6661 16.8018 19.2181L19.7098 22.0501L19.0238 26.0521C18.8898 26.8321 19.7078 27.4261 20.4078 27.0581L24.0018 25.1701H23.9978V25.1681Z" stroke="#0696E7" stroke-width="2" stroke-linecap="round" stroke-linejoin="round"/>
<path fill-rule="evenodd" clip-rule="evenodd" d="M23.9978 25.1681L27.5918 27.0561C28.2918 27.4241 29.1098 26.8301 28.9758 26.0501L28.2898 22.0481L31.1978 19.2161C31.7638 18.6641 31.4518 17.7021 30.6698 17.5881L26.6518 17.0041L24.8558 13.3621C24.5058 12.6521 23.4958 12.6521 23.1458 13.3621L21.3498 17.0041L17.3298 17.5901C16.5478 17.7041 16.2358 18.6661 16.8018 19.2181L19.7098 22.0501L19.0238 26.0521C18.8898 26.8321 19.7078 27.4261 20.4078 27.0581L24.0018 25.1701H23.9978V25.1681Z" stroke="#208EE2" stroke-width="2" stroke-linecap="round" stroke-linejoin="round"/>
</svg>
