<svg width="38" height="38" viewBox="0 0 38 38" fill="none" xmlns="http://www.w3.org/2000/svg">
<path d="M23.2908 26.6128C30.3636 26.6128 36.0972 20.8792 36.0972 13.8064C36.0972 6.73362 30.3636 1 23.2908 1C16.218 1 10.4844 6.73362 10.4844 13.8064C10.4844 20.8792 16.218 26.6128 23.2908 26.6128Z" stroke="#0867D6" stroke-width="2" stroke-miterlimit="10" stroke-linecap="round"/>
<path d="M23.2908 26.6128C30.3636 26.6128 36.0972 20.8792 36.0972 13.8064C36.0972 6.73362 30.3636 1 23.2908 1C16.218 1 10.4844 6.73362 10.4844 13.8064C10.4844 20.8792 16.218 26.6128 23.2908 26.6128Z" stroke="#0696E7" stroke-width="2" stroke-miterlimit="10" stroke-linecap="round"/>
<path d="M23.2908 26.6128C30.3636 26.6128 36.0972 20.8792 36.0972 13.8064C36.0972 6.73362 30.3636 1 23.2908 1C16.218 1 10.4844 6.73362 10.4844 13.8064C10.4844 20.8792 16.218 26.6128 23.2908 26.6128Z" stroke="#208EE2" stroke-width="2" stroke-miterlimit="10" stroke-linecap="round"/>
<path d="M14.3055 16.4945C14.0559 15.6497 13.9023 14.7281 13.9023 13.8065C13.905 11.5023 14.7565 9.27993 16.2943 7.56399C17.8321 5.84805 19.9482 4.75891 22.2383 4.50472C24.5284 4.25053 26.8319 4.84911 28.7085 6.18606C30.5851 7.52302 31.9033 9.5046 32.4111 11.7521M32.3919 15.9569C31.9864 17.6596 31.112 19.2146 29.8679 20.4458C28.6238 21.677 27.0597 22.5351 25.3529 22.9228C23.6461 23.3105 21.8647 23.2124 20.2108 22.6396C18.5569 22.0667 17.0965 21.0421 15.9951 19.6817" stroke="#0867D6" stroke-width="2" stroke-miterlimit="10" stroke-linecap="round"/>
<path d="M14.3055 16.4945C14.0559 15.6497 13.9023 14.7281 13.9023 13.8065C13.905 11.5023 14.7565 9.27993 16.2943 7.56399C17.8321 5.84805 19.9482 4.75891 22.2383 4.50472C24.5284 4.25053 26.8319 4.84911 28.7085 6.18606C30.5851 7.52302 31.9033 9.5046 32.4111 11.7521M32.3919 15.9569C31.9864 17.6596 31.112 19.2146 29.8679 20.4458C28.6238 21.677 27.0597 22.5351 25.3529 22.9228C23.6461 23.3105 21.8647 23.2124 20.2108 22.6396C18.5569 22.0667 17.0965 21.0421 15.9951 19.6817" stroke="#0696E7" stroke-width="2" stroke-miterlimit="10" stroke-linecap="round"/>
<path d="M14.3055 16.4945C14.0559 15.6497 13.9023 14.7281 13.9023 13.8065C13.905 11.5023 14.7565 9.27993 16.2943 7.56399C17.8321 5.84805 19.9482 4.75891 22.2383 4.50472C24.5284 4.25053 26.8319 4.84911 28.7085 6.18606C30.5851 7.52302 31.9033 9.5046 32.4111 11.7521M32.3919 15.9569C31.9864 17.6596 31.112 19.2146 29.8679 20.4458C28.6238 21.677 27.0597 22.5351 25.3529 22.9228C23.6461 23.3105 21.8647 23.2124 20.2108 22.6396C18.5569 22.0667 17.0965 21.0421 15.9951 19.6817" stroke="#208EE2" stroke-width="2" stroke-miterlimit="10" stroke-linecap="round"/>
<path d="M28.36 10.3503C28.8016 11.0031 29.1088 11.7135 29.2816 12.5007M15.4576 24.9999L5.0512 35.4063C4.1296 36.3279 2.6128 36.3279 1.6912 35.4063C0.7696 34.4847 0.7696 32.9679 1.6912 32.0463L12.0592 21.6207" stroke="#0867D6" stroke-width="2" stroke-miterlimit="10" stroke-linecap="round"/>
<path d="M28.36 10.3503C28.8016 11.0031 29.1088 11.7135 29.2816 12.5007M15.4576 24.9999L5.0512 35.4063C4.1296 36.3279 2.6128 36.3279 1.6912 35.4063C0.7696 34.4847 0.7696 32.9679 1.6912 32.0463L12.0592 21.6207" stroke="#0696E7" stroke-width="2" stroke-miterlimit="10" stroke-linecap="round"/>
<path d="M28.36 10.3503C28.8016 11.0031 29.1088 11.7135 29.2816 12.5007M15.4576 24.9999L5.0512 35.4063C4.1296 36.3279 2.6128 36.3279 1.6912 35.4063C0.7696 34.4847 0.7696 32.9679 1.6912 32.0463L12.0592 21.6207" stroke="#208EE2" stroke-width="2" stroke-miterlimit="10" stroke-linecap="round"/>
</svg>
