<svg width="20" height="20" viewBox="0 0 20 20" fill="none" xmlns="http://www.w3.org/2000/svg">
<path d="M2.5 6.35419L8.62369 10.5217C9.11957 10.8592 9.36751 11.0279 9.6372 11.0933C9.87542 11.151 10.1246 11.151 10.3628 11.0933C10.6325 11.0279 10.8804 10.8592 11.3763 10.5217L17.5 6.35419M6.1 15.8334H13.9C15.1601 15.8334 15.7902 15.8334 16.2715 15.5949C16.6948 15.3852 17.039 15.0506 17.2548 14.639C17.5 14.171 17.5 13.5585 17.5 12.3334V7.66669C17.5 6.44157 17.5 5.82901 17.2548 5.36108C17.039 4.94948 16.6948 4.61483 16.2715 4.40511C15.7902 4.16669 15.1601 4.16669 13.9 4.16669H6.1C4.83988 4.16669 4.20982 4.16669 3.72852 4.40511C3.30516 4.61483 2.96095 4.94948 2.74524 5.36108C2.5 5.82901 2.5 6.44157 2.5 7.66669V12.3334C2.5 13.5585 2.5 14.171 2.74524 14.639C2.96095 15.0506 3.30516 15.3852 3.72852 15.5949C4.20982 15.8334 4.83988 15.8334 6.1 15.8334Z" stroke="#9A9C9E" stroke-width="1.5" stroke-linecap="round" stroke-linejoin="round"/>
</svg>
