<svg width="48" height="48" viewBox="0 0 48 48" fill="none" xmlns="http://www.w3.org/2000/svg">
<path d="M8 30H20" stroke="#0867D6" stroke-width="2" stroke-linecap="round" stroke-linejoin="round"/>
<path d="M8 30H20" stroke="#0696E7" stroke-width="2" stroke-linecap="round" stroke-linejoin="round"/>
<path d="M8 30H20" stroke="#208EE2" stroke-width="2" stroke-linecap="round" stroke-linejoin="round"/>
<path fill-rule="evenodd" clip-rule="evenodd" d="M13.8539 17.6639L14.7539 16.2199C15.4339 15.1279 16.9559 14.9539 17.8659 15.8639L22.0859 20.0839C23.0619 21.0599 22.7799 22.7079 21.5339 23.3019L19.9459 24.0599C19.1819 24.4259 18.2699 24.2679 17.6699 23.6699L14.1359 20.1359C13.4779 19.4779 13.3619 18.4539 13.8539 17.6639Z" stroke="#0867D6" stroke-width="2" stroke-linecap="round" stroke-linejoin="round"/>
<path fill-rule="evenodd" clip-rule="evenodd" d="M13.8539 17.6639L14.7539 16.2199C15.4339 15.1279 16.9559 14.9539 17.8659 15.8639L22.0859 20.0839C23.0619 21.0599 22.7799 22.7079 21.5339 23.3019L19.9459 24.0599C19.1819 24.4259 18.2699 24.2679 17.6699 23.6699L14.1359 20.1359C13.4779 19.4779 13.3619 18.4539 13.8539 17.6639Z" stroke="#0696E7" stroke-width="2" stroke-linecap="round" stroke-linejoin="round"/>
<path fill-rule="evenodd" clip-rule="evenodd" d="M13.8539 17.6639L14.7539 16.2199C15.4339 15.1279 16.9559 14.9539 17.8659 15.8639L22.0859 20.0839C23.0619 21.0599 22.7799 22.7079 21.5339 23.3019L19.9459 24.0599C19.1819 24.4259 18.2699 24.2679 17.6699 23.6699L14.1359 20.1359C13.4779 19.4779 13.3619 18.4539 13.8539 17.6639Z" stroke="#208EE2" stroke-width="2" stroke-linecap="round" stroke-linejoin="round"/>
<path d="M24 20H24.886C29.304 20 32.886 23.582 32.886 28C32.886 32.418 29.304 36 24.886 36C21.162 36 18.062 33.444 17.168 30" stroke="#0867D6" stroke-width="2" stroke-linecap="round" stroke-linejoin="round"/>
<path d="M24 20H24.886C29.304 20 32.886 23.582 32.886 28C32.886 32.418 29.304 36 24.886 36C21.162 36 18.062 33.444 17.168 30" stroke="#0696E7" stroke-width="2" stroke-linecap="round" stroke-linejoin="round"/>
<path d="M24 20H24.886C29.304 20 32.886 23.582 32.886 28C32.886 32.418 29.304 36 24.886 36C21.162 36 18.062 33.444 17.168 30" stroke="#208EE2" stroke-width="2" stroke-linecap="round" stroke-linejoin="round"/>
<path d="M29.2839 14.7161C34.8599 16.5601 38.8859 21.8061 38.8859 28.0001C38.8859 35.7321 32.6179 42.0001 24.8859 42.0001C17.8339 42.0001 12.0179 36.7821 11.0459 30.0001" stroke="#0867D6" stroke-width="2" stroke-linecap="round" stroke-linejoin="round"/>
<path d="M29.2839 14.7161C34.8599 16.5601 38.8859 21.8061 38.8859 28.0001C38.8859 35.7321 32.6179 42.0001 24.8859 42.0001C17.8339 42.0001 12.0179 36.7821 11.0459 30.0001" stroke="#0696E7" stroke-width="2" stroke-linecap="round" stroke-linejoin="round"/>
<path d="M29.2839 14.7161C34.8599 16.5601 38.8859 21.8061 38.8859 28.0001C38.8859 35.7321 32.6179 42.0001 24.8859 42.0001C17.8339 42.0001 12.0179 36.7821 11.0459 30.0001" stroke="#208EE2" stroke-width="2" stroke-linecap="round" stroke-linejoin="round"/>
<path d="M16.7061 15.2941L23.5841 8.41609C24.3661 7.63409 25.6321 7.63409 26.4121 8.41609L29.5841 11.5881C30.3661 12.3701 30.3661 13.6361 29.5841 14.4161L22.6541 21.3461" stroke="#0867D6" stroke-width="2" stroke-linecap="round" stroke-linejoin="round"/>
<path d="M16.7061 15.2941L23.5841 8.41609C24.3661 7.63409 25.6321 7.63409 26.4121 8.41609L29.5841 11.5881C30.3661 12.3701 30.3661 13.6361 29.5841 14.4161L22.6541 21.3461" stroke="#0696E7" stroke-width="2" stroke-linecap="round" stroke-linejoin="round"/>
<path d="M16.7061 15.2941L23.5841 8.41609C24.3661 7.63409 25.6321 7.63409 26.4121 8.41609L29.5841 11.5881C30.3661 12.3701 30.3661 13.6361 29.5841 14.4161L22.6541 21.3461" stroke="#208EE2" stroke-width="2" stroke-linecap="round" stroke-linejoin="round"/>
<path d="M12 42H38" stroke="#0867D6" stroke-width="2" stroke-linecap="round" stroke-linejoin="round"/>
<path d="M12 42H38" stroke="#0696E7" stroke-width="2" stroke-linecap="round" stroke-linejoin="round"/>
<path d="M12 42H38" stroke="#208EE2" stroke-width="2" stroke-linecap="round" stroke-linejoin="round"/>
<path d="M29.9316 12.0679L32.5856 9.41389C33.3676 8.63189 33.3676 7.36589 32.5856 6.58589L31.4136 5.41389C30.6316 4.63189 29.3656 4.63189 28.5856 5.41389L25.9336 8.06589" stroke="#0867D6" stroke-width="2" stroke-linecap="round" stroke-linejoin="round"/>
<path d="M29.9316 12.0679L32.5856 9.41389C33.3676 8.63189 33.3676 7.36589 32.5856 6.58589L31.4136 5.41389C30.6316 4.63189 29.3656 4.63189 28.5856 5.41389L25.9336 8.06589" stroke="#0696E7" stroke-width="2" stroke-linecap="round" stroke-linejoin="round"/>
<path d="M29.9316 12.0679L32.5856 9.41389C33.3676 8.63189 33.3676 7.36589 32.5856 6.58589L31.4136 5.41389C30.6316 4.63189 29.3656 4.63189 28.5856 5.41389L25.9336 8.06589" stroke="#208EE2" stroke-width="2" stroke-linecap="round" stroke-linejoin="round"/>
</svg>
