<svg width="20" height="37" viewBox="0 0 20 37" fill="none" xmlns="http://www.w3.org/2000/svg">
<path d="M18.9712 2.632V14.6128C18.9712 15.5152 18.2416 16.2448 17.3392 16.2448H2.632C2.19917 16.2448 1.78406 16.0729 1.478 15.7668C1.17194 15.4607 1 15.0456 1 14.6128V2.632C1 1.7296 1.7296 1 2.632 1H17.3584C18.2416 1 18.9712 1.7488 18.9712 2.632Z" stroke="#0867D6" stroke-width="2" stroke-miterlimit="10" stroke-linecap="round"/>
<path d="M18.9712 2.632V14.6128C18.9712 15.5152 18.2416 16.2448 17.3392 16.2448H2.632C2.19917 16.2448 1.78406 16.0729 1.478 15.7668C1.17194 15.4607 1 15.0456 1 14.6128V2.632C1 1.7296 1.7296 1 2.632 1H17.3584C18.2416 1 18.9712 1.7488 18.9712 2.632Z" stroke="#0696E7" stroke-width="2" stroke-miterlimit="10" stroke-linecap="round"/>
<path d="M18.9712 2.632V14.6128C18.9712 15.5152 18.2416 16.2448 17.3392 16.2448H2.632C2.19917 16.2448 1.78406 16.0729 1.478 15.7668C1.17194 15.4607 1 15.0456 1 14.6128V2.632C1 1.7296 1.7296 1 2.632 1H17.3584C18.2416 1 18.9712 1.7488 18.9712 2.632Z" stroke="#208EE2" stroke-width="2" stroke-miterlimit="10" stroke-linecap="round"/>
<path d="M1 5.53125H18.9712M15.7072 17.3201V33.5057C15.7072 34.8689 14.824 35.9824 13.7488 35.9824H6.2416C5.1664 35.9824 4.2832 34.8689 4.2832 33.5057V17.3201C4.2832 15.9569 5.1664 16.2832 6.2416 16.2832H13.7488C14.8432 16.2832 15.7072 15.9569 15.7072 17.3201Z" stroke="#0867D6" stroke-width="2" stroke-miterlimit="10" stroke-linecap="round"/>
<path d="M1 5.53125H18.9712M15.7072 17.3201V33.5057C15.7072 34.8689 14.824 35.9824 13.7488 35.9824H6.2416C5.1664 35.9824 4.2832 34.8689 4.2832 33.5057V17.3201C4.2832 15.9569 5.1664 16.2832 6.2416 16.2832H13.7488C14.8432 16.2832 15.7072 15.9569 15.7072 17.3201Z" stroke="#0696E7" stroke-width="2" stroke-miterlimit="10" stroke-linecap="round"/>
<path d="M1 5.53125H18.9712M15.7072 17.3201V33.5057C15.7072 34.8689 14.824 35.9824 13.7488 35.9824H6.2416C5.1664 35.9824 4.2832 34.8689 4.2832 33.5057V17.3201C4.2832 15.9569 5.1664 16.2832 6.2416 16.2832H13.7488C14.8432 16.2832 15.7072 15.9569 15.7072 17.3201Z" stroke="#208EE2" stroke-width="2" stroke-miterlimit="10" stroke-linecap="round"/>
</svg>
