<svg width="32" height="32" viewBox="0 0 32 32" fill="none" xmlns="http://www.w3.org/2000/svg">
<path d="M2.66699 22.6667V22.4664C2.66699 22.0444 2.66699 21.8334 2.69927 21.6279C2.72793 21.4454 2.77547 21.2663 2.84114 21.0936C2.91511 20.8991 3.01979 20.7159 3.22915 20.3495L8.00033 12M2.66699 22.6667C2.66699 25.6122 5.05481 28 8.00033 28C10.9458 28 13.3337 25.6122 13.3337 22.6667M2.66699 22.6667V22.4C2.66699 22.0266 2.66699 21.8399 2.73965 21.6973C2.80357 21.5719 2.90556 21.4699 3.031 21.406C3.17361 21.3333 3.36029 21.3333 3.73366 21.3333H12.267C12.6404 21.3333 12.827 21.3333 12.9697 21.406C13.0951 21.4699 13.1971 21.5719 13.261 21.6973C13.3337 21.8399 13.3337 22.0266 13.3337 22.4V22.6667M8.00033 12L12.7715 20.3495C12.9809 20.7159 13.0855 20.8991 13.1595 21.0936C13.2252 21.2663 13.2727 21.4454 13.3014 21.6279C13.3337 21.8334 13.3337 22.0444 13.3337 22.4664V22.6667M8.00033 12L24.0003 9.33333M18.667 20V19.7997C18.667 19.3778 18.667 19.1668 18.6993 18.9612C18.7279 18.7787 18.7755 18.5996 18.8411 18.427C18.9151 18.2325 19.0198 18.0493 19.2292 17.6829L24.0003 9.33333M18.667 20C18.667 22.9455 21.0548 25.3333 24.0003 25.3333C26.9458 25.3333 29.3337 22.9455 29.3337 20M18.667 20V19.7333C18.667 19.36 18.667 19.1733 18.7397 19.0307C18.8036 18.9052 18.9056 18.8032 19.031 18.7393C19.1736 18.6667 19.3603 18.6667 19.7337 18.6667H28.267C28.6404 18.6667 28.827 18.6667 28.9697 18.7393C29.0951 18.8032 29.1971 18.9052 29.261 19.0307C29.3337 19.1733 29.3337 19.36 29.3337 19.7333V20M24.0003 9.33333L28.7715 17.6829C28.9809 18.0493 29.0855 18.2325 29.1595 18.427C29.2252 18.5996 29.2727 18.7787 29.3014 18.9612C29.3337 19.1668 29.3337 19.3778 29.3337 19.7997V20M16.0003 4V10.6667" stroke="#747883" stroke-width="2" stroke-linecap="round" stroke-linejoin="round"/>
</svg>
