<svg width="32" height="32" viewBox="0 0 32 32" fill="none" xmlns="http://www.w3.org/2000/svg">
<path d="M2.66699 2.6665H4.40854C4.73657 2.6665 4.90058 2.6665 5.03257 2.72682C5.14888 2.77998 5.24745 2.86547 5.31653 2.9731C5.39491 3.09523 5.4181 3.2576 5.46449 3.58232L6.09556 7.99984M6.09556 7.99984L7.49809 18.3084C7.67607 19.6165 7.76506 20.2706 8.07779 20.763C8.35336 21.1968 8.74844 21.5418 9.21547 21.7563C9.74548 21.9998 10.4056 21.9998 11.7258 21.9998H23.1363C24.393 21.9998 25.0214 21.9998 25.5349 21.7737C25.9877 21.5744 26.3761 21.253 26.6567 20.8455C26.9749 20.3833 27.0925 19.7661 27.3276 18.5315L29.0925 9.26609C29.1752 8.83158 29.2166 8.61433 29.1566 8.4445C29.104 8.29553 29.0002 8.17008 28.8637 8.09053C28.7081 7.99984 28.487 7.99984 28.0446 7.99984H6.09556ZM13.3337 27.9998C13.3337 28.7362 12.7367 29.3332 12.0003 29.3332C11.2639 29.3332 10.667 28.7362 10.667 27.9998C10.667 27.2635 11.2639 26.6665 12.0003 26.6665C12.7367 26.6665 13.3337 27.2635 13.3337 27.9998ZM24.0003 27.9998C24.0003 28.7362 23.4034 29.3332 22.667 29.3332C21.9306 29.3332 21.3337 28.7362 21.3337 27.9998C21.3337 27.2635 21.9306 26.6665 22.667 26.6665C23.4034 26.6665 24.0003 27.2635 24.0003 27.9998Z" stroke="#E0E1E3" stroke-width="2" stroke-linecap="round" stroke-linejoin="round"/>
</svg>
