<svg width="48" height="48" viewBox="0 0 48 48" fill="none" xmlns="http://www.w3.org/2000/svg">
<path d="M14 42.36L23.06 29.5" stroke="#0867D6" stroke-width="2" stroke-linecap="round" stroke-linejoin="round"/>
<path d="M14 42.36L23.06 29.5" stroke="#0696E7" stroke-width="2" stroke-linecap="round" stroke-linejoin="round"/>
<path d="M14 42.36L23.06 29.5" stroke="#208EE2" stroke-width="2" stroke-linecap="round" stroke-linejoin="round"/>
<path fill-rule="evenodd" clip-rule="evenodd" d="M37.8657 6.90208L41.6917 16.1401C42.1137 17.1601 41.6297 18.3301 40.6097 18.7541L38.9137 19.4561C36.8737 20.3021 34.5337 19.3321 33.6877 17.2921L31.3917 11.7481C30.5457 9.70808 31.5157 7.36808 33.5557 6.52208L35.2517 5.82008C36.2737 5.39608 37.4417 5.88008 37.8657 6.90208Z" stroke="#0867D6" stroke-width="2" stroke-linecap="round" stroke-linejoin="round"/>
<path fill-rule="evenodd" clip-rule="evenodd" d="M37.8657 6.90208L41.6917 16.1401C42.1137 17.1601 41.6297 18.3301 40.6097 18.7541L38.9137 19.4561C36.8737 20.3021 34.5337 19.3321 33.6877 17.2921L31.3917 11.7481C30.5457 9.70808 31.5157 7.36808 33.5557 6.52208L35.2517 5.82008C36.2737 5.39608 37.4417 5.88008 37.8657 6.90208Z" stroke="#0696E7" stroke-width="2" stroke-linecap="round" stroke-linejoin="round"/>
<path fill-rule="evenodd" clip-rule="evenodd" d="M37.8657 6.90208L41.6917 16.1401C42.1137 17.1601 41.6297 18.3301 40.6097 18.7541L38.9137 19.4561C36.8737 20.3021 34.5337 19.3321 33.6877 17.2921L31.3917 11.7481C30.5457 9.70808 31.5157 7.36808 33.5557 6.52208L35.2517 5.82008C36.2737 5.39608 37.4417 5.88008 37.8657 6.90208Z" stroke="#208EE2" stroke-width="2" stroke-linecap="round" stroke-linejoin="round"/>
<path fill-rule="evenodd" clip-rule="evenodd" d="M33.6864 17.292L31.3904 11.748C30.9684 10.728 29.7984 10.242 28.7764 10.666L12.1484 17.554C11.1284 17.976 10.6424 19.146 11.0664 20.168L13.3624 25.712C13.7844 26.732 14.9544 27.218 15.9764 26.794L32.6064 19.906C33.6264 19.482 34.1104 18.312 33.6864 17.292V17.292Z" stroke="#0867D6" stroke-width="2" stroke-linecap="round" stroke-linejoin="round"/>
<path fill-rule="evenodd" clip-rule="evenodd" d="M33.6864 17.292L31.3904 11.748C30.9684 10.728 29.7984 10.242 28.7764 10.666L12.1484 17.554C11.1284 17.976 10.6424 19.146 11.0664 20.168L13.3624 25.712C13.7844 26.732 14.9544 27.218 15.9764 26.794L32.6064 19.906C33.6264 19.482 34.1104 18.312 33.6864 17.292V17.292Z" stroke="#0696E7" stroke-width="2" stroke-linecap="round" stroke-linejoin="round"/>
<path fill-rule="evenodd" clip-rule="evenodd" d="M33.6864 17.292L31.3904 11.748C30.9684 10.728 29.7984 10.242 28.7764 10.666L12.1484 17.554C11.1284 17.976 10.6424 19.146 11.0664 20.168L13.3624 25.712C13.7844 26.732 14.9544 27.218 15.9764 26.794L32.6064 19.906C33.6264 19.482 34.1104 18.312 33.6864 17.292V17.292Z" stroke="#208EE2" stroke-width="2" stroke-linecap="round" stroke-linejoin="round"/>
<path fill-rule="evenodd" clip-rule="evenodd" d="M13.3621 25.71L11.0661 20.166L7.37007 21.696C6.35007 22.118 5.86407 23.288 6.28807 24.31L7.05407 26.158C7.47607 27.178 8.64607 27.664 9.66807 27.24L13.3621 25.71V25.71Z" stroke="#0867D6" stroke-width="2" stroke-linecap="round" stroke-linejoin="round"/>
<path fill-rule="evenodd" clip-rule="evenodd" d="M13.3621 25.71L11.0661 20.166L7.37007 21.696C6.35007 22.118 5.86407 23.288 6.28807 24.31L7.05407 26.158C7.47607 27.178 8.64607 27.664 9.66807 27.24L13.3621 25.71V25.71Z" stroke="#0696E7" stroke-width="2" stroke-linecap="round" stroke-linejoin="round"/>
<path fill-rule="evenodd" clip-rule="evenodd" d="M13.3621 25.71L11.0661 20.166L7.37007 21.696C6.35007 22.118 5.86407 23.288 6.28807 24.31L7.05407 26.158C7.47607 27.178 8.64607 27.664 9.66807 27.24L13.3621 25.71V25.71Z" stroke="#208EE2" stroke-width="2" stroke-linecap="round" stroke-linejoin="round"/>
<path d="M28.3962 24.1656C29.8677 25.6371 29.8677 28.0229 28.3962 29.4944C26.9248 30.9659 24.539 30.9659 23.0675 29.4944C21.596 28.0229 21.596 25.6371 23.0675 24.1656C24.539 22.6941 26.9247 22.6941 28.3962 24.1656" stroke="#0867D6" stroke-width="2" stroke-linecap="round" stroke-linejoin="round"/>
<path d="M28.3962 24.1656C29.8677 25.6371 29.8677 28.0229 28.3962 29.4944C26.9248 30.9659 24.539 30.9659 23.0675 29.4944C21.596 28.0229 21.596 25.6371 23.0675 24.1656C24.539 22.6941 26.9247 22.6941 28.3962 24.1656" stroke="#0696E7" stroke-width="2" stroke-linecap="round" stroke-linejoin="round"/>
<path d="M28.3962 24.1656C29.8677 25.6371 29.8677 28.0229 28.3962 29.4944C26.9248 30.9659 24.539 30.9659 23.0675 29.4944C21.596 28.0229 21.596 25.6371 23.0675 24.1656C24.539 22.6941 26.9247 22.6941 28.3962 24.1656" stroke="#208EE2" stroke-width="2" stroke-linecap="round" stroke-linejoin="round"/>
<path d="M38.0004 42.36L28.4004 29.5" stroke="#0867D6" stroke-width="2" stroke-linecap="round" stroke-linejoin="round"/>
<path d="M38.0004 42.36L28.4004 29.5" stroke="#0696E7" stroke-width="2" stroke-linecap="round" stroke-linejoin="round"/>
<path d="M38.0004 42.36L28.4004 29.5" stroke="#208EE2" stroke-width="2" stroke-linecap="round" stroke-linejoin="round"/>
</svg>
