<svg width="30" height="30" viewBox="0 0 30 30" fill="none" xmlns="http://www.w3.org/2000/svg">
<path fill-rule="evenodd" clip-rule="evenodd" d="M15 0C23.2843 0 30 6.71573 30 15C30 23.2843 23.2843 30 15 30C6.71573 30 0 23.2843 0 15C0 6.71573 6.71573 0 15 0Z" fill="#F7F8FB"/>
<path d="M4.31717 14.9076C6.46554 13.7509 8.86369 12.7855 11.1044 11.8152C14.9593 10.2259 18.8295 8.66412 22.7388 7.21013C23.4994 6.9624 24.866 6.72017 25 7.82188C24.9266 9.3814 24.6247 10.9318 24.4177 12.4822C23.8922 15.8916 23.2848 19.2894 22.6925 22.6877C22.4884 23.8196 21.0377 24.4056 20.1095 23.6812C17.8787 22.2084 15.6308 20.7498 13.4286 19.2429C12.7072 18.5264 13.3761 17.4974 14.0204 16.9858C15.8577 15.2159 17.8062 13.7122 19.5475 11.8509C20.0172 10.7423 18.6294 11.6766 18.1716 11.9629C15.6563 13.6572 13.2026 15.4548 10.5506 16.9439C9.19605 17.6727 7.61724 17.0499 6.26326 16.6432C5.04927 16.1519 3.27028 15.6569 4.31705 14.9078L4.31717 14.9076Z" fill="#0867D6"/>
<path d="M4.31717 14.9076C6.46554 13.7509 8.86369 12.7855 11.1044 11.8152C14.9593 10.2259 18.8295 8.66412 22.7388 7.21013C23.4994 6.9624 24.866 6.72017 25 7.82188C24.9266 9.3814 24.6247 10.9318 24.4177 12.4822C23.8922 15.8916 23.2848 19.2894 22.6925 22.6877C22.4884 23.8196 21.0377 24.4056 20.1095 23.6812C17.8787 22.2084 15.6308 20.7498 13.4286 19.2429C12.7072 18.5264 13.3761 17.4974 14.0204 16.9858C15.8577 15.2159 17.8062 13.7122 19.5475 11.8509C20.0172 10.7423 18.6294 11.6766 18.1716 11.9629C15.6563 13.6572 13.2026 15.4548 10.5506 16.9439C9.19605 17.6727 7.61724 17.0499 6.26326 16.6432C5.04927 16.1519 3.27028 15.6569 4.31705 14.9078L4.31717 14.9076Z" fill="#0696E7"/>
<path d="M4.31717 14.9076C6.46554 13.7509 8.86369 12.7855 11.1044 11.8152C14.9593 10.2259 18.8295 8.66412 22.7388 7.21013C23.4994 6.9624 24.866 6.72017 25 7.82188C24.9266 9.3814 24.6247 10.9318 24.4177 12.4822C23.8922 15.8916 23.2848 19.2894 22.6925 22.6877C22.4884 23.8196 21.0377 24.4056 20.1095 23.6812C17.8787 22.2084 15.6308 20.7498 13.4286 19.2429C12.7072 18.5264 13.3761 17.4974 14.0204 16.9858C15.8577 15.2159 17.8062 13.7122 19.5475 11.8509C20.0172 10.7423 18.6294 11.6766 18.1716 11.9629C15.6563 13.6572 13.2026 15.4548 10.5506 16.9439C9.19605 17.6727 7.61724 17.0499 6.26326 16.6432C5.04927 16.1519 3.27028 15.6569 4.31705 14.9078L4.31717 14.9076Z" fill="#419FD9"/>
</svg>
