<svg width="28" height="48" viewBox="0 0 28 48" fill="none" xmlns="http://www.w3.org/2000/svg">
<path d="M22.0581 27.6062L26.1223 24.05C27.062 23.2284 27.6009 22.0411 27.6008 20.793V4.80024C27.5982 2.15026 25.4506 0.00268536 22.8005 0H5.19966C2.54969 0.00268536 0.402112 2.15026 0.399427 4.80024V20.9322C0.396662 22.0805 0.852936 23.1822 1.66668 23.9923L5.06208 27.3877C5.9608 28.2903 7.18296 28.7964 8.45661 28.7934H9.16625L8.63266 41.6021L8.50463 44.667C8.46846 45.5385 8.78951 46.387 9.39364 47.0162C9.99777 47.6454 10.8325 48.0007 11.7048 48H16.3002C17.1727 48.0008 18.0075 47.6453 18.6117 47.016C19.2158 46.3866 19.5369 45.5379 19.5004 44.6663L19.3676 41.6021L18.834 28.7935H18.8972C20.0598 28.7935 21.183 28.3717 22.0581 27.6062ZM17.7331 40.802H10.2671L10.7671 28.8014H17.2331L17.7331 40.802ZM17.4523 45.9102C17.1514 46.2258 16.7339 46.4038 16.2979 46.4023H11.7024C11.2663 46.4027 10.8489 46.225 10.5468 45.9104C10.2447 45.5958 10.0843 45.1715 10.1023 44.7358L10.2 42.4021H17.8003L17.8971 44.735C17.9167 45.1713 17.7558 45.5964 17.4523 45.9102ZM6.19333 26.2565L2.79959 22.8611C2.28952 22.3484 2.00203 21.6554 1.99951 20.9322V4.80024C1.99951 3.03288 3.4323 1.60008 5.19966 1.60008H22.8005C24.5679 1.60008 26.0007 3.03288 26.0007 4.80024V20.793C26.0003 21.5795 25.6609 22.3277 25.0694 22.8459L21.0052 26.4013C20.4217 26.912 19.6726 27.1935 18.8971 27.1934H8.45661C7.6074 27.1955 6.79256 26.8582 6.19333 26.2565Z" fill="#0867D6"/>
<path d="M22.0581 27.6062L26.1223 24.05C27.062 23.2284 27.6009 22.0411 27.6008 20.793V4.80024C27.5982 2.15026 25.4506 0.00268536 22.8005 0H5.19966C2.54969 0.00268536 0.402112 2.15026 0.399427 4.80024V20.9322C0.396662 22.0805 0.852936 23.1822 1.66668 23.9923L5.06208 27.3877C5.9608 28.2903 7.18296 28.7964 8.45661 28.7934H9.16625L8.63266 41.6021L8.50463 44.667C8.46846 45.5385 8.78951 46.387 9.39364 47.0162C9.99777 47.6454 10.8325 48.0007 11.7048 48H16.3002C17.1727 48.0008 18.0075 47.6453 18.6117 47.016C19.2158 46.3866 19.5369 45.5379 19.5004 44.6663L19.3676 41.6021L18.834 28.7935H18.8972C20.0598 28.7935 21.183 28.3717 22.0581 27.6062ZM17.7331 40.802H10.2671L10.7671 28.8014H17.2331L17.7331 40.802ZM17.4523 45.9102C17.1514 46.2258 16.7339 46.4038 16.2979 46.4023H11.7024C11.2663 46.4027 10.8489 46.225 10.5468 45.9104C10.2447 45.5958 10.0843 45.1715 10.1023 44.7358L10.2 42.4021H17.8003L17.8971 44.735C17.9167 45.1713 17.7558 45.5964 17.4523 45.9102ZM6.19333 26.2565L2.79959 22.8611C2.28952 22.3484 2.00203 21.6554 1.99951 20.9322V4.80024C1.99951 3.03288 3.4323 1.60008 5.19966 1.60008H22.8005C24.5679 1.60008 26.0007 3.03288 26.0007 4.80024V20.793C26.0003 21.5795 25.6609 22.3277 25.0694 22.8459L21.0052 26.4013C20.4217 26.912 19.6726 27.1935 18.8971 27.1934H8.45661C7.6074 27.1955 6.79256 26.8582 6.19333 26.2565Z" fill="#0696E7"/>
<path d="M22.0581 27.6062L26.1223 24.05C27.062 23.2284 27.6009 22.0411 27.6008 20.793V4.80024C27.5982 2.15026 25.4506 0.00268536 22.8005 0H5.19966C2.54969 0.00268536 0.402112 2.15026 0.399427 4.80024V20.9322C0.396662 22.0805 0.852936 23.1822 1.66668 23.9923L5.06208 27.3877C5.9608 28.2903 7.18296 28.7964 8.45661 28.7934H9.16625L8.63266 41.6021L8.50463 44.667C8.46846 45.5385 8.78951 46.387 9.39364 47.0162C9.99777 47.6454 10.8325 48.0007 11.7048 48H16.3002C17.1727 48.0008 18.0075 47.6453 18.6117 47.016C19.2158 46.3866 19.5369 45.5379 19.5004 44.6663L19.3676 41.6021L18.834 28.7935H18.8972C20.0598 28.7935 21.183 28.3717 22.0581 27.6062ZM17.7331 40.802H10.2671L10.7671 28.8014H17.2331L17.7331 40.802ZM17.4523 45.9102C17.1514 46.2258 16.7339 46.4038 16.2979 46.4023H11.7024C11.2663 46.4027 10.8489 46.225 10.5468 45.9104C10.2447 45.5958 10.0843 45.1715 10.1023 44.7358L10.2 42.4021H17.8003L17.8971 44.735C17.9167 45.1713 17.7558 45.5964 17.4523 45.9102ZM6.19333 26.2565L2.79959 22.8611C2.28952 22.3484 2.00203 21.6554 1.99951 20.9322V4.80024C1.99951 3.03288 3.4323 1.60008 5.19966 1.60008H22.8005C24.5679 1.60008 26.0007 3.03288 26.0007 4.80024V20.793C26.0003 21.5795 25.6609 22.3277 25.0694 22.8459L21.0052 26.4013C20.4217 26.912 19.6726 27.1935 18.8971 27.1934H8.45661C7.6074 27.1955 6.79256 26.8582 6.19333 26.2565Z" fill="#208EE2"/>
<path d="M19.9508 25.2013L23.8543 21.7867C24.2027 21.4817 24.4021 21.0409 24.4006 20.5778V4.80027C24.4006 3.91655 23.6843 3.2002 22.8006 3.2002H5.1997C4.31598 3.2002 3.59962 3.91655 3.59962 4.80027V20.7363C3.59835 21.1611 3.76753 21.5686 4.06924 21.8675L7.32302 25.1213C7.62284 25.4234 8.03109 25.5929 8.45672 25.5917H18.8972C19.2841 25.5932 19.6584 25.4546 19.9508 25.2013ZM22.8006 4.80027V14.4007H17.2171C17.7229 13.7411 17.9981 12.9335 18.0003 12.1022C17.8884 11.1321 17.4828 10.2194 16.8379 9.48615C16.3623 8.87894 15.9843 8.20112 15.7179 7.47726C15.5762 7.00258 15.21 6.62798 14.7386 6.47562C14.2599 6.31956 13.735 6.40928 13.3354 6.71565C11.8537 7.85013 10.0705 9.6806 10 11.9695C9.98485 12.8511 10.2768 13.7107 10.8257 14.4008H5.19977V4.80027H22.8006ZM11.6 12.0174C11.6512 10.2918 13.2801 8.77729 14.2137 8.02278C14.5281 8.87712 14.9702 9.67878 15.525 10.4005C15.9525 10.887 16.2532 11.4715 16.4002 12.1022C16.3991 12.7169 16.1454 13.3041 15.6986 13.7262C15.2137 14.1885 14.5604 14.4315 13.8913 14.3983C12.613 14.3469 11.6025 13.2968 11.6 12.0174ZM5.1997 20.7379V16.0008H22.8006V20.5787L18.8972 23.9932H8.45664L5.1997 20.7379Z" fill="#0867D6"/>
<path d="M19.9508 25.2013L23.8543 21.7867C24.2027 21.4817 24.4021 21.0409 24.4006 20.5778V4.80027C24.4006 3.91655 23.6843 3.2002 22.8006 3.2002H5.1997C4.31598 3.2002 3.59962 3.91655 3.59962 4.80027V20.7363C3.59835 21.1611 3.76753 21.5686 4.06924 21.8675L7.32302 25.1213C7.62284 25.4234 8.03109 25.5929 8.45672 25.5917H18.8972C19.2841 25.5932 19.6584 25.4546 19.9508 25.2013ZM22.8006 4.80027V14.4007H17.2171C17.7229 13.7411 17.9981 12.9335 18.0003 12.1022C17.8884 11.1321 17.4828 10.2194 16.8379 9.48615C16.3623 8.87894 15.9843 8.20112 15.7179 7.47726C15.5762 7.00258 15.21 6.62798 14.7386 6.47562C14.2599 6.31956 13.735 6.40928 13.3354 6.71565C11.8537 7.85013 10.0705 9.6806 10 11.9695C9.98485 12.8511 10.2768 13.7107 10.8257 14.4008H5.19977V4.80027H22.8006ZM11.6 12.0174C11.6512 10.2918 13.2801 8.77729 14.2137 8.02278C14.5281 8.87712 14.9702 9.67878 15.525 10.4005C15.9525 10.887 16.2532 11.4715 16.4002 12.1022C16.3991 12.7169 16.1454 13.3041 15.6986 13.7262C15.2137 14.1885 14.5604 14.4315 13.8913 14.3983C12.613 14.3469 11.6025 13.2968 11.6 12.0174ZM5.1997 20.7379V16.0008H22.8006V20.5787L18.8972 23.9932H8.45664L5.1997 20.7379Z" fill="#0696E7"/>
<path d="M19.9508 25.2013L23.8543 21.7867C24.2027 21.4817 24.4021 21.0409 24.4006 20.5778V4.80027C24.4006 3.91655 23.6843 3.2002 22.8006 3.2002H5.1997C4.31598 3.2002 3.59962 3.91655 3.59962 4.80027V20.7363C3.59835 21.1611 3.76753 21.5686 4.06924 21.8675L7.32302 25.1213C7.62284 25.4234 8.03109 25.5929 8.45672 25.5917H18.8972C19.2841 25.5932 19.6584 25.4546 19.9508 25.2013ZM22.8006 4.80027V14.4007H17.2171C17.7229 13.7411 17.9981 12.9335 18.0003 12.1022C17.8884 11.1321 17.4828 10.2194 16.8379 9.48615C16.3623 8.87894 15.9843 8.20112 15.7179 7.47726C15.5762 7.00258 15.21 6.62798 14.7386 6.47562C14.2599 6.31956 13.735 6.40928 13.3354 6.71565C11.8537 7.85013 10.0705 9.6806 10 11.9695C9.98485 12.8511 10.2768 13.7107 10.8257 14.4008H5.19977V4.80027H22.8006ZM11.6 12.0174C11.6512 10.2918 13.2801 8.77729 14.2137 8.02278C14.5281 8.87712 14.9702 9.67878 15.525 10.4005C15.9525 10.887 16.2532 11.4715 16.4002 12.1022C16.3991 12.7169 16.1454 13.3041 15.6986 13.7262C15.2137 14.1885 14.5604 14.4315 13.8913 14.3983C12.613 14.3469 11.6025 13.2968 11.6 12.0174ZM5.1997 20.7379V16.0008H22.8006V20.5787L18.8972 23.9932H8.45664L5.1997 20.7379Z" fill="#208EE2"/>
<path d="M9.19996 17.6011H7.59988C7.15806 17.6011 6.7998 17.9593 6.7998 18.4012C6.7998 18.843 7.15798 19.2012 7.59988 19.2012H9.19996C9.64178 19.2012 10 18.843 10 18.4012C9.99996 17.9593 9.64178 17.6011 9.19996 17.6011Z" fill="#0867D6"/>
<path d="M9.19996 17.6011H7.59988C7.15806 17.6011 6.7998 17.9593 6.7998 18.4012C6.7998 18.843 7.15798 19.2012 7.59988 19.2012H9.19996C9.64178 19.2012 10 18.843 10 18.4012C9.99996 17.9593 9.64178 17.6011 9.19996 17.6011Z" fill="#0696E7"/>
<path d="M9.19996 17.6011H7.59988C7.15806 17.6011 6.7998 17.9593 6.7998 18.4012C6.7998 18.843 7.15798 19.2012 7.59988 19.2012H9.19996C9.64178 19.2012 10 18.843 10 18.4012C9.99996 17.9593 9.64178 17.6011 9.19996 17.6011Z" fill="#208EE2"/>
<path d="M13.2005 19.2012H14.8005C15.2424 19.2012 15.6005 18.843 15.6005 18.4012C15.6005 17.9593 15.2424 17.6011 14.8005 17.6011H13.2005C12.7586 17.6011 12.4004 17.9593 12.4004 18.4012C12.4005 18.843 12.7586 19.2012 13.2005 19.2012Z" fill="#0867D6"/>
<path d="M13.2005 19.2012H14.8005C15.2424 19.2012 15.6005 18.843 15.6005 18.4012C15.6005 17.9593 15.2424 17.6011 14.8005 17.6011H13.2005C12.7586 17.6011 12.4004 17.9593 12.4004 18.4012C12.4005 18.843 12.7586 19.2012 13.2005 19.2012Z" fill="#0696E7"/>
<path d="M13.2005 19.2012H14.8005C15.2424 19.2012 15.6005 18.843 15.6005 18.4012C15.6005 17.9593 15.2424 17.6011 14.8005 17.6011H13.2005C12.7586 17.6011 12.4004 17.9593 12.4004 18.4012C12.4005 18.843 12.7586 19.2012 13.2005 19.2012Z" fill="#208EE2"/>
<path d="M21.2001 18.4012C21.2001 17.9593 20.8419 17.6011 20.4001 17.6011H18.8C18.3582 17.6011 18 17.9593 18 18.4012C18 18.843 18.3582 19.2012 18.8 19.2012H20.4001C20.8419 19.2012 21.2001 18.843 21.2001 18.4012Z" fill="#0867D6"/>
<path d="M21.2001 18.4012C21.2001 17.9593 20.8419 17.6011 20.4001 17.6011H18.8C18.3582 17.6011 18 17.9593 18 18.4012C18 18.843 18.3582 19.2012 18.8 19.2012H20.4001C20.8419 19.2012 21.2001 18.843 21.2001 18.4012Z" fill="#0696E7"/>
<path d="M21.2001 18.4012C21.2001 17.9593 20.8419 17.6011 20.4001 17.6011H18.8C18.3582 17.6011 18 17.9593 18 18.4012C18 18.843 18.3582 19.2012 18.8 19.2012H20.4001C20.8419 19.2012 21.2001 18.843 21.2001 18.4012Z" fill="#208EE2"/>
<path d="M16.4001 20.8013H11.5999C11.1581 20.8013 10.7998 21.1594 10.7998 21.6013C10.7998 22.0432 11.158 22.4013 11.5999 22.4013H16.4001C16.8419 22.4013 17.2001 22.0432 17.2001 21.6013C17.2001 21.1595 16.842 20.8013 16.4001 20.8013Z" fill="#0867D6"/>
<path d="M16.4001 20.8013H11.5999C11.1581 20.8013 10.7998 21.1594 10.7998 21.6013C10.7998 22.0432 11.158 22.4013 11.5999 22.4013H16.4001C16.8419 22.4013 17.2001 22.0432 17.2001 21.6013C17.2001 21.1595 16.842 20.8013 16.4001 20.8013Z" fill="#0696E7"/>
<path d="M16.4001 20.8013H11.5999C11.1581 20.8013 10.7998 21.1594 10.7998 21.6013C10.7998 22.0432 11.158 22.4013 11.5999 22.4013H16.4001C16.8419 22.4013 17.2001 22.0432 17.2001 21.6013C17.2001 21.1595 16.842 20.8013 16.4001 20.8013Z" fill="#208EE2"/>
</svg>
