<svg width="48" height="48" viewBox="0 0 48 48" fill="none" xmlns="http://www.w3.org/2000/svg">
<path d="M25.0439 7.11764V5" stroke="#0867D6" stroke-width="2" stroke-linecap="round" stroke-linejoin="round"/>
<path d="M25.0439 7.11764V5" stroke="#0696E7" stroke-width="2" stroke-linecap="round" stroke-linejoin="round"/>
<path d="M25.0439 7.11764V5" stroke="#208EE2" stroke-width="2" stroke-linecap="round" stroke-linejoin="round"/>
<path d="M15.5151 15.5884H13.3975" stroke="#0867D6" stroke-width="2" stroke-linecap="round" stroke-linejoin="round"/>
<path d="M15.5151 15.5884H13.3975" stroke="#0696E7" stroke-width="2" stroke-linecap="round" stroke-linejoin="round"/>
<path d="M15.5151 15.5884H13.3975" stroke="#208EE2" stroke-width="2" stroke-linecap="round" stroke-linejoin="round"/>
<path d="M36.6909 15.5884H34.5732" stroke="#0867D6" stroke-width="2" stroke-linecap="round" stroke-linejoin="round"/>
<path d="M36.6909 15.5884H34.5732" stroke="#0696E7" stroke-width="2" stroke-linecap="round" stroke-linejoin="round"/>
<path d="M36.6909 15.5884H34.5732" stroke="#208EE2" stroke-width="2" stroke-linecap="round" stroke-linejoin="round"/>
<path d="M18.6911 9.23527L17.1937 7.73787" stroke="#0867D6" stroke-width="2" stroke-linecap="round" stroke-linejoin="round"/>
<path d="M18.6911 9.23527L17.1937 7.73787" stroke="#0696E7" stroke-width="2" stroke-linecap="round" stroke-linejoin="round"/>
<path d="M18.6911 9.23527L17.1937 7.73787" stroke="#208EE2" stroke-width="2" stroke-linecap="round" stroke-linejoin="round"/>
<path d="M31.3968 9.23527L32.8942 7.73787" stroke="#0867D6" stroke-width="2" stroke-linecap="round" stroke-linejoin="round"/>
<path d="M31.3968 9.23527L32.8942 7.73787" stroke="#0696E7" stroke-width="2" stroke-linecap="round" stroke-linejoin="round"/>
<path d="M31.3968 9.23527L32.8942 7.73787" stroke="#208EE2" stroke-width="2" stroke-linecap="round" stroke-linejoin="round"/>
<path d="M18.499 24.7729V40.9999" stroke="#0867D6" stroke-width="2" stroke-linecap="round" stroke-linejoin="round"/>
<path d="M18.499 24.7729V40.9999" stroke="#0696E7" stroke-width="2" stroke-linecap="round" stroke-linejoin="round"/>
<path d="M18.499 24.7729V40.9999" stroke="#208EE2" stroke-width="2" stroke-linecap="round" stroke-linejoin="round"/>
<path d="M29.3379 24.7729H33.8328C35.1233 24.773 36.3443 25.358 37.1528 26.3639C37.9613 27.3697 38.2702 28.6879 37.9928 29.9483L36.2961 37.656C35.8662 39.6089 34.1358 40.9999 32.1361 40.9999" stroke="#0867D6" stroke-width="2" stroke-linecap="round" stroke-linejoin="round"/>
<path d="M29.3379 24.7729H33.8328C35.1233 24.773 36.3443 25.358 37.1528 26.3639C37.9613 27.3697 38.2702 28.6879 37.9928 29.9483L36.2961 37.656C35.8662 39.6089 34.1358 40.9999 32.1361 40.9999" stroke="#0696E7" stroke-width="2" stroke-linecap="round" stroke-linejoin="round"/>
<path d="M29.3379 24.7729H33.8328C35.1233 24.773 36.3443 25.358 37.1528 26.3639C37.9613 27.3697 38.2702 28.6879 37.9928 29.9483L36.2961 37.656C35.8662 39.6089 34.1358 40.9999 32.1361 40.9999" stroke="#208EE2" stroke-width="2" stroke-linecap="round" stroke-linejoin="round"/>
<path d="M32.1364 40.9999H12.5361C11.3598 40.9999 10.4062 40.0464 10.4062 38.8701V26.9027C10.4063 25.7265 11.3598 24.7729 12.5361 24.7729H18.5197" stroke="#0867D6" stroke-width="2" stroke-linecap="round" stroke-linejoin="round"/>
<path d="M32.1364 40.9999H12.5361C11.3598 40.9999 10.4062 40.0464 10.4062 38.8701V26.9027C10.4063 25.7265 11.3598 24.7729 12.5361 24.7729H18.5197" stroke="#0696E7" stroke-width="2" stroke-linecap="round" stroke-linejoin="round"/>
<path d="M32.1364 40.9999H12.5361C11.3598 40.9999 10.4062 40.0464 10.4062 38.8701V26.9027C10.4063 25.7265 11.3598 24.7729 12.5361 24.7729H18.5197" stroke="#208EE2" stroke-width="2" stroke-linecap="round" stroke-linejoin="round"/>
<path d="M29.3378 24.7731V18.8627C29.3378 17.7868 28.7298 16.8032 27.7673 16.3224L27.0489 15.9634C25.3168 15.098 23.2107 15.7803 22.3151 17.497L18.5195 24.7731" stroke="#0867D6" stroke-width="2" stroke-linecap="round" stroke-linejoin="round"/>
<path d="M29.3378 24.7731V18.8627C29.3378 17.7868 28.7298 16.8032 27.7673 16.3224L27.0489 15.9634C25.3168 15.098 23.2107 15.7803 22.3151 17.497L18.5195 24.7731" stroke="#0696E7" stroke-width="2" stroke-linecap="round" stroke-linejoin="round"/>
<path d="M29.3378 24.7731V18.8627C29.3378 17.7868 28.7298 16.8032 27.7673 16.3224L27.0489 15.9634C25.3168 15.098 23.2107 15.7803 22.3151 17.497L18.5195 24.7731" stroke="#208EE2" stroke-width="2" stroke-linecap="round" stroke-linejoin="round"/>
</svg>
