<svg width="108" height="108" viewBox="0 0 108 108" fill="none" xmlns="http://www.w3.org/2000/svg">
<g filter="url(#filter0_d_1696_91343)">
<rect x="30" y="25" width="48" height="48" rx="5" fill="white"/>
</g>
<path d="M41.3926 48.7682C44.0525 47.3394 47.0216 46.1468 49.7958 44.9482C54.5686 42.9849 59.3603 41.0557 64.2004 39.2596C65.1421 38.9536 66.8341 38.6543 67 40.0153C66.9091 41.9417 66.5354 43.8569 66.2791 45.7721C65.6285 49.9838 64.8764 54.1811 64.1431 58.3789C63.8904 59.7772 62.0943 60.501 60.9451 59.6061C58.1832 57.7868 55.4 55.9851 52.6734 54.1235C51.7802 53.2385 52.6085 51.9674 53.4061 51.3353C55.6809 49.1491 58.0934 47.2916 60.2493 44.9923C60.8308 43.6228 59.1125 44.777 58.5458 45.1306C55.4316 47.2235 52.3936 49.4442 49.1102 51.2836C47.4331 52.1839 45.4784 51.4145 43.802 50.9121C42.299 50.3052 40.0966 49.6936 41.3926 48.7682Z" fill="#0867D6"/>
<path d="M41.3926 48.7682C44.0525 47.3394 47.0216 46.1468 49.7958 44.9482C54.5686 42.9849 59.3603 41.0557 64.2004 39.2596C65.1421 38.9536 66.8341 38.6543 67 40.0153C66.9091 41.9417 66.5354 43.8569 66.2791 45.7721C65.6285 49.9838 64.8764 54.1811 64.1431 58.3789C63.8904 59.7772 62.0943 60.501 60.9451 59.6061C58.1832 57.7868 55.4 55.9851 52.6734 54.1235C51.7802 53.2385 52.6085 51.9674 53.4061 51.3353C55.6809 49.1491 58.0934 47.2916 60.2493 44.9923C60.8308 43.6228 59.1125 44.777 58.5458 45.1306C55.4316 47.2235 52.3936 49.4442 49.1102 51.2836C47.4331 52.1839 45.4784 51.4145 43.802 50.9121C42.299 50.3052 40.0966 49.6936 41.3926 48.7682Z" fill="#0696E7"/>
<path d="M41.3926 48.7682C44.0525 47.3394 47.0216 46.1468 49.7958 44.9482C54.5686 42.9849 59.3603 41.0557 64.2004 39.2596C65.1421 38.9536 66.8341 38.6543 67 40.0153C66.9091 41.9417 66.5354 43.8569 66.2791 45.7721C65.6285 49.9838 64.8764 54.1811 64.1431 58.3789C63.8904 59.7772 62.0943 60.501 60.9451 59.6061C58.1832 57.7868 55.4 55.9851 52.6734 54.1235C51.7802 53.2385 52.6085 51.9674 53.4061 51.3353C55.6809 49.1491 58.0934 47.2916 60.2493 44.9923C60.8308 43.6228 59.1125 44.777 58.5458 45.1306C55.4316 47.2235 52.3936 49.4442 49.1102 51.2836C47.4331 52.1839 45.4784 51.4145 43.802 50.9121C42.299 50.3052 40.0966 49.6936 41.3926 48.7682Z" fill="#419FD9"/>
<defs>
<filter id="filter0_d_1696_91343" x="0" y="0" width="108" height="108" filterUnits="userSpaceOnUse" color-interpolation-filters="sRGB">
<feFlood flood-opacity="0" result="BackgroundImageFix"/>
<feColorMatrix in="SourceAlpha" type="matrix" values="0 0 0 0 0 0 0 0 0 0 0 0 0 0 0 0 0 0 127 0" result="hardAlpha"/>
<feOffset dy="5"/>
<feGaussianBlur stdDeviation="15"/>
<feComposite in2="hardAlpha" operator="out"/>
<feColorMatrix type="matrix" values="0 0 0 0 0.247135 0 0 0 0 0.259458 0 0 0 0 0.270833 0 0 0 0.15 0"/>
<feBlend mode="normal" in2="BackgroundImageFix" result="effect1_dropShadow_1696_91343"/>
<feBlend mode="normal" in="SourceGraphic" in2="effect1_dropShadow_1696_91343" result="shape"/>
</filter>
</defs>
</svg>
