<svg width="108" height="108" viewBox="0 0 108 108" fill="none" xmlns="http://www.w3.org/2000/svg">
<g filter="url(#filter0_d_1696_91346)">
<rect x="30" y="25" width="48" height="48" rx="5" fill="white"/>
</g>
<path d="M59.5705 46.2619C59.4755 45.4907 59.2385 44.8851 58.8175 44.3488C58.2709 43.6581 57.5724 43.2445 56.5382 42.9992C55.8642 42.8356 55.5919 42.8544 55.3481 43.0771C55.1211 43.2857 55.0767 43.7039 55.2503 43.9747C55.3723 44.1713 55.513 44.2417 55.9046 44.3185C56.426 44.4145 56.7863 44.539 57.114 44.7264C57.8097 45.1281 58.1337 45.7567 58.1684 46.7743C58.1846 47.2521 58.2259 47.399 58.3928 47.5685C58.7021 47.8783 59.2526 47.818 59.4861 47.4473C59.5718 47.3076 59.5848 47.2468 59.5939 46.9223C59.5999 46.7215 59.5912 46.4225 59.5705 46.2619Z" fill="#0867D6"/>
<path d="M59.5705 46.2619C59.4755 45.4907 59.2385 44.8851 58.8175 44.3488C58.2709 43.6581 57.5724 43.2445 56.5382 42.9992C55.8642 42.8356 55.5919 42.8544 55.3481 43.0771C55.1211 43.2857 55.0767 43.7039 55.2503 43.9747C55.3723 44.1713 55.513 44.2417 55.9046 44.3185C56.426 44.4145 56.7863 44.539 57.114 44.7264C57.8097 45.1281 58.1337 45.7567 58.1684 46.7743C58.1846 47.2521 58.2259 47.399 58.3928 47.5685C58.7021 47.8783 59.2526 47.818 59.4861 47.4473C59.5718 47.3076 59.5848 47.2468 59.5939 46.9223C59.5999 46.7215 59.5912 46.4225 59.5705 46.2619Z" fill="#EEEE36"/>
<path d="M59.5705 46.2619C59.4755 45.4907 59.2385 44.8851 58.8175 44.3488C58.2709 43.6581 57.5724 43.2445 56.5382 42.9992C55.8642 42.8356 55.5919 42.8544 55.3481 43.0771C55.1211 43.2857 55.0767 43.7039 55.2503 43.9747C55.3723 44.1713 55.513 44.2417 55.9046 44.3185C56.426 44.4145 56.7863 44.539 57.114 44.7264C57.8097 45.1281 58.1337 45.7567 58.1684 46.7743C58.1846 47.2521 58.2259 47.399 58.3928 47.5685C58.7021 47.8783 59.2526 47.818 59.4861 47.4473C59.5718 47.3076 59.5848 47.2468 59.5939 46.9223C59.5999 46.7215 59.5912 46.4225 59.5705 46.2619Z" fill="#7F4DA0"/>
<path d="M62.2992 47.1314C62.1618 44.7686 61.2376 42.8676 59.5837 41.5301C58.6518 40.7786 57.5254 40.2618 56.2906 40.0105C55.8384 39.9206 55.0056 39.8478 54.8628 39.8895C54.7279 39.928 54.5373 40.074 54.4523 40.206C54.3624 40.3492 54.3422 40.6688 54.4188 40.8537C54.5426 41.1627 54.7728 41.2719 55.4175 41.3283C56.4113 41.4153 57.4364 41.7644 58.211 42.2814C59.0953 42.8699 59.7982 43.675 60.2529 44.621C60.6458 45.4338 60.8875 46.6051 60.8808 47.654C60.8785 48.0334 60.9371 48.2476 61.0897 48.4042C61.32 48.6451 61.6556 48.6977 61.9519 48.5378C62.2802 48.3651 62.357 48.062 62.2992 47.1314Z" fill="#0867D6"/>
<path d="M62.2992 47.1314C62.1618 44.7686 61.2376 42.8676 59.5837 41.5301C58.6518 40.7786 57.5254 40.2618 56.2906 40.0105C55.8384 39.9206 55.0056 39.8478 54.8628 39.8895C54.7279 39.928 54.5373 40.074 54.4523 40.206C54.3624 40.3492 54.3422 40.6688 54.4188 40.8537C54.5426 41.1627 54.7728 41.2719 55.4175 41.3283C56.4113 41.4153 57.4364 41.7644 58.211 42.2814C59.0953 42.8699 59.7982 43.675 60.2529 44.621C60.6458 45.4338 60.8875 46.6051 60.8808 47.654C60.8785 48.0334 60.9371 48.2476 61.0897 48.4042C61.32 48.6451 61.6556 48.6977 61.9519 48.5378C62.2802 48.3651 62.357 48.062 62.2992 47.1314Z" fill="#EEEE36"/>
<path d="M62.2992 47.1314C62.1618 44.7686 61.2376 42.8676 59.5837 41.5301C58.6518 40.7786 57.5254 40.2618 56.2906 40.0105C55.8384 39.9206 55.0056 39.8478 54.8628 39.8895C54.7279 39.928 54.5373 40.074 54.4523 40.206C54.3624 40.3492 54.3422 40.6688 54.4188 40.8537C54.5426 41.1627 54.7728 41.2719 55.4175 41.3283C56.4113 41.4153 57.4364 41.7644 58.211 42.2814C59.0953 42.8699 59.7982 43.675 60.2529 44.621C60.6458 45.4338 60.8875 46.6051 60.8808 47.654C60.8785 48.0334 60.9371 48.2476 61.0897 48.4042C61.32 48.6451 61.6556 48.6977 61.9519 48.5378C62.2802 48.3651 62.357 48.062 62.2992 47.1314Z" fill="#7F4DA0"/>
<path d="M65.3111 56.23C65.2649 56.095 65.157 55.8867 65.08 55.7671C64.5946 55.0341 61.9867 52.9932 60.6847 52.3258C59.9413 51.9439 59.3904 51.8166 58.9821 51.9361C58.543 52.0596 58.3118 52.264 57.5761 53.1784C57.2795 53.5449 56.9752 53.8883 56.8943 53.9422C56.6939 54.0811 56.301 54.1931 56.0237 54.1931C55.3804 54.1892 54.2132 53.7725 53.3156 53.2247C52.6184 52.8004 51.7248 52.0403 51.0391 51.288C50.2301 50.4046 49.6793 49.6253 49.244 48.7456C48.6816 47.6153 48.5391 46.9247 48.774 46.4193C48.8318 46.292 48.9089 46.157 48.9435 46.1145C48.9782 46.076 49.3403 45.7789 49.7409 45.4548C50.5267 44.8298 50.6538 44.6871 50.8002 44.2589C50.9851 43.7149 50.9351 43.1593 50.65 42.6C50.4304 42.1756 49.8565 41.2497 49.4404 40.6517C48.8896 39.8647 47.5182 38.1826 47.2447 37.955C46.7516 37.5538 46.12 37.4843 45.4227 37.7544C44.687 38.0399 43.3079 39.151 42.7185 39.9264C42.1869 40.6286 41.9828 41.1262 41.952 41.7821C41.925 42.3221 41.9712 42.5459 42.2563 43.2365C44.4866 48.653 47.8148 52.9778 52.3873 56.4114C54.7756 58.2053 57.2525 59.571 59.8218 60.5047C61.3203 61.0486 61.9713 61.0756 62.7379 60.6281C63.0614 60.4352 63.8627 59.6134 64.3095 59.0155C65.0491 58.0201 65.3226 57.561 65.3997 57.1945C65.4536 56.9438 65.4112 56.5078 65.3111 56.23Z" fill="#0867D6"/>
<path d="M65.3111 56.23C65.2649 56.095 65.157 55.8867 65.08 55.7671C64.5946 55.0341 61.9867 52.9932 60.6847 52.3258C59.9413 51.9439 59.3904 51.8166 58.9821 51.9361C58.543 52.0596 58.3118 52.264 57.5761 53.1784C57.2795 53.5449 56.9752 53.8883 56.8943 53.9422C56.6939 54.0811 56.301 54.1931 56.0237 54.1931C55.3804 54.1892 54.2132 53.7725 53.3156 53.2247C52.6184 52.8004 51.7248 52.0403 51.0391 51.288C50.2301 50.4046 49.6793 49.6253 49.244 48.7456C48.6816 47.6153 48.5391 46.9247 48.774 46.4193C48.8318 46.292 48.9089 46.157 48.9435 46.1145C48.9782 46.076 49.3403 45.7789 49.7409 45.4548C50.5267 44.8298 50.6538 44.6871 50.8002 44.2589C50.9851 43.7149 50.9351 43.1593 50.65 42.6C50.4304 42.1756 49.8565 41.2497 49.4404 40.6517C48.8896 39.8647 47.5182 38.1826 47.2447 37.955C46.7516 37.5538 46.12 37.4843 45.4227 37.7544C44.687 38.0399 43.3079 39.151 42.7185 39.9264C42.1869 40.6286 41.9828 41.1262 41.952 41.7821C41.925 42.3221 41.9712 42.5459 42.2563 43.2365C44.4866 48.653 47.8148 52.9778 52.3873 56.4114C54.7756 58.2053 57.2525 59.571 59.8218 60.5047C61.3203 61.0486 61.9713 61.0756 62.7379 60.6281C63.0614 60.4352 63.8627 59.6134 64.3095 59.0155C65.0491 58.0201 65.3226 57.561 65.3997 57.1945C65.4536 56.9438 65.4112 56.5078 65.3111 56.23Z" fill="#EEEE36"/>
<path d="M65.3111 56.23C65.2649 56.095 65.157 55.8867 65.08 55.7671C64.5946 55.0341 61.9867 52.9932 60.6847 52.3258C59.9413 51.9439 59.3904 51.8166 58.9821 51.9361C58.543 52.0596 58.3118 52.264 57.5761 53.1784C57.2795 53.5449 56.9752 53.8883 56.8943 53.9422C56.6939 54.0811 56.301 54.1931 56.0237 54.1931C55.3804 54.1892 54.2132 53.7725 53.3156 53.2247C52.6184 52.8004 51.7248 52.0403 51.0391 51.288C50.2301 50.4046 49.6793 49.6253 49.244 48.7456C48.6816 47.6153 48.5391 46.9247 48.774 46.4193C48.8318 46.292 48.9089 46.157 48.9435 46.1145C48.9782 46.076 49.3403 45.7789 49.7409 45.4548C50.5267 44.8298 50.6538 44.6871 50.8002 44.2589C50.9851 43.7149 50.9351 43.1593 50.65 42.6C50.4304 42.1756 49.8565 41.2497 49.4404 40.6517C48.8896 39.8647 47.5182 38.1826 47.2447 37.955C46.7516 37.5538 46.12 37.4843 45.4227 37.7544C44.687 38.0399 43.3079 39.151 42.7185 39.9264C42.1869 40.6286 41.9828 41.1262 41.952 41.7821C41.925 42.3221 41.9712 42.5459 42.2563 43.2365C44.4866 48.653 47.8148 52.9778 52.3873 56.4114C54.7756 58.2053 57.2525 59.571 59.8218 60.5047C61.3203 61.0486 61.9713 61.0756 62.7379 60.6281C63.0614 60.4352 63.8627 59.6134 64.3095 59.0155C65.0491 58.0201 65.3226 57.561 65.3997 57.1945C65.4536 56.9438 65.4112 56.5078 65.3111 56.23Z" fill="#7F4DA0"/>
<path d="M65.0708 47.6734C65.0215 46.3368 64.7964 45.2405 64.3272 44.0183C63.864 42.816 63.3951 42.0314 62.5097 40.9703C61.6725 39.9754 61.0223 39.4073 59.9911 38.7749C58.5524 37.8938 56.8015 37.3108 54.8393 37.0656C54.1701 36.9799 54.0187 36.986 53.8134 37.123C53.4156 37.3825 53.4209 38.0297 53.82 38.2853C53.9521 38.3666 54.0693 38.3962 54.6046 38.4663C55.4263 38.5769 55.9546 38.6812 56.5816 38.8522C59.04 39.5243 60.9306 40.898 62.1945 42.9372C63.2522 44.6369 63.6913 46.3367 63.629 48.5076C63.6073 49.2415 63.623 49.3707 63.7352 49.547C63.9501 49.8757 64.5167 49.9407 64.8073 49.668C64.9882 49.5018 65.0223 49.377 65.0579 48.7488C65.075 48.4211 65.0786 47.9374 65.0708 47.6734Z" fill="#0867D6"/>
<path d="M65.0708 47.6734C65.0215 46.3368 64.7964 45.2405 64.3272 44.0183C63.864 42.816 63.3951 42.0314 62.5097 40.9703C61.6725 39.9754 61.0223 39.4073 59.9911 38.7749C58.5524 37.8938 56.8015 37.3108 54.8393 37.0656C54.1701 36.9799 54.0187 36.986 53.8134 37.123C53.4156 37.3825 53.4209 38.0297 53.82 38.2853C53.9521 38.3666 54.0693 38.3962 54.6046 38.4663C55.4263 38.5769 55.9546 38.6812 56.5816 38.8522C59.04 39.5243 60.9306 40.898 62.1945 42.9372C63.2522 44.6369 63.6913 46.3367 63.629 48.5076C63.6073 49.2415 63.623 49.3707 63.7352 49.547C63.9501 49.8757 64.5167 49.9407 64.8073 49.668C64.9882 49.5018 65.0223 49.377 65.0579 48.7488C65.075 48.4211 65.0786 47.9374 65.0708 47.6734Z" fill="#EEEE36"/>
<path d="M65.0708 47.6734C65.0215 46.3368 64.7964 45.2405 64.3272 44.0183C63.864 42.816 63.3951 42.0314 62.5097 40.9703C61.6725 39.9754 61.0223 39.4073 59.9911 38.7749C58.5524 37.8938 56.8015 37.3108 54.8393 37.0656C54.1701 36.9799 54.0187 36.986 53.8134 37.123C53.4156 37.3825 53.4209 38.0297 53.82 38.2853C53.9521 38.3666 54.0693 38.3962 54.6046 38.4663C55.4263 38.5769 55.9546 38.6812 56.5816 38.8522C59.04 39.5243 60.9306 40.898 62.1945 42.9372C63.2522 44.6369 63.6913 46.3367 63.629 48.5076C63.6073 49.2415 63.623 49.3707 63.7352 49.547C63.9501 49.8757 64.5167 49.9407 64.8073 49.668C64.9882 49.5018 65.0223 49.377 65.0579 48.7488C65.075 48.4211 65.0786 47.9374 65.0708 47.6734Z" fill="#7F4DA0"/>
<defs>
<filter id="filter0_d_1696_91346" x="0" y="0" width="108" height="108" filterUnits="userSpaceOnUse" color-interpolation-filters="sRGB">
<feFlood flood-opacity="0" result="BackgroundImageFix"/>
<feColorMatrix in="SourceAlpha" type="matrix" values="0 0 0 0 0 0 0 0 0 0 0 0 0 0 0 0 0 0 127 0" result="hardAlpha"/>
<feOffset dy="5"/>
<feGaussianBlur stdDeviation="15"/>
<feComposite in2="hardAlpha" operator="out"/>
<feColorMatrix type="matrix" values="0 0 0 0 0.247135 0 0 0 0 0.259458 0 0 0 0 0.270833 0 0 0 0.15 0"/>
<feBlend mode="normal" in2="BackgroundImageFix" result="effect1_dropShadow_1696_91346"/>
<feBlend mode="normal" in="SourceGraphic" in2="effect1_dropShadow_1696_91346" result="shape"/>
</filter>
</defs>
</svg>
