<svg width="30" height="30" viewBox="0 0 30 30" fill="none" xmlns="http://www.w3.org/2000/svg">
<path fill-rule="evenodd" clip-rule="evenodd" d="M15 0C23.2843 0 30 6.71573 30 15C30 23.2843 23.2843 30 15 30C6.71573 30 0 23.2843 0 15C0 6.71573 6.71573 0 15 0Z" fill="#F7F8FB"/>
<path d="M19.1996 12.9979C19.1287 12.4221 18.9518 11.9699 18.6374 11.5694C18.2293 11.0537 17.7077 10.7449 16.9355 10.5617C16.4322 10.4396 16.2289 10.4536 16.0469 10.6199C15.8774 10.7756 15.8443 11.0879 15.9738 11.2901C16.0649 11.4369 16.17 11.4895 16.4624 11.5468C16.8517 11.6185 17.1207 11.7114 17.3655 11.8514C17.8849 12.1513 18.1268 12.6207 18.1527 13.3805C18.1648 13.7373 18.1957 13.847 18.3203 13.9735C18.5512 14.2048 18.9623 14.1599 19.1366 13.883C19.2006 13.7787 19.2104 13.7333 19.2171 13.491C19.2216 13.3411 19.2152 13.1178 19.1996 12.9979Z" fill="#0867D6"/>
<path d="M19.1996 12.9979C19.1287 12.4221 18.9518 11.9699 18.6374 11.5694C18.2293 11.0537 17.7077 10.7449 16.9355 10.5617C16.4322 10.4396 16.2289 10.4536 16.0469 10.6199C15.8774 10.7756 15.8443 11.0879 15.9738 11.2901C16.0649 11.4369 16.17 11.4895 16.4624 11.5468C16.8517 11.6185 17.1207 11.7114 17.3655 11.8514C17.8849 12.1513 18.1268 12.6207 18.1527 13.3805C18.1648 13.7373 18.1957 13.847 18.3203 13.9735C18.5512 14.2048 18.9623 14.1599 19.1366 13.883C19.2006 13.7787 19.2104 13.7333 19.2171 13.491C19.2216 13.3411 19.2152 13.1178 19.1996 12.9979Z" fill="#EEEE36"/>
<path d="M19.1996 12.9979C19.1287 12.4221 18.9518 11.9699 18.6374 11.5694C18.2293 11.0537 17.7077 10.7449 16.9355 10.5617C16.4322 10.4396 16.2289 10.4536 16.0469 10.6199C15.8774 10.7756 15.8443 11.0879 15.9738 11.2901C16.0649 11.4369 16.17 11.4895 16.4624 11.5468C16.8517 11.6185 17.1207 11.7114 17.3655 11.8514C17.8849 12.1513 18.1268 12.6207 18.1527 13.3805C18.1648 13.7373 18.1957 13.847 18.3203 13.9735C18.5512 14.2048 18.9623 14.1599 19.1366 13.883C19.2006 13.7787 19.2104 13.7333 19.2171 13.491C19.2216 13.3411 19.2152 13.1178 19.1996 12.9979Z" fill="#7F4DA0"/>
<path d="M21.236 13.647C21.1334 11.8828 20.4434 10.4634 19.2084 9.46468C18.5125 8.90352 17.6715 8.51766 16.7495 8.33C16.4118 8.26289 15.79 8.20849 15.6833 8.2396C15.5827 8.26842 15.4403 8.37741 15.3768 8.47598C15.3097 8.58286 15.2946 8.82151 15.3518 8.95956C15.4442 9.19033 15.6161 9.27185 16.0975 9.31397C16.8396 9.37889 17.605 9.63962 18.1834 10.0256C18.8437 10.4651 19.3685 11.0662 19.7081 11.7725C20.0015 12.3794 20.1819 13.2541 20.1769 14.0373C20.1752 14.3205 20.219 14.4805 20.3329 14.5975C20.5048 14.7773 20.7555 14.8166 20.9767 14.6972C21.2218 14.5682 21.2792 14.3419 21.236 13.647Z" fill="#0867D6"/>
<path d="M21.236 13.647C21.1334 11.8828 20.4434 10.4634 19.2084 9.46468C18.5125 8.90352 17.6715 8.51766 16.7495 8.33C16.4118 8.26289 15.79 8.20849 15.6833 8.2396C15.5827 8.26842 15.4403 8.37741 15.3768 8.47598C15.3097 8.58286 15.2946 8.82151 15.3518 8.95956C15.4442 9.19033 15.6161 9.27185 16.0975 9.31397C16.8396 9.37889 17.605 9.63962 18.1834 10.0256C18.8437 10.4651 19.3685 11.0662 19.7081 11.7725C20.0015 12.3794 20.1819 13.2541 20.1769 14.0373C20.1752 14.3205 20.219 14.4805 20.3329 14.5975C20.5048 14.7773 20.7555 14.8166 20.9767 14.6972C21.2218 14.5682 21.2792 14.3419 21.236 13.647Z" fill="#EEEE36"/>
<path d="M21.236 13.647C21.1334 11.8828 20.4434 10.4634 19.2084 9.46468C18.5125 8.90352 17.6715 8.51766 16.7495 8.33C16.4118 8.26289 15.79 8.20849 15.6833 8.2396C15.5827 8.26842 15.4403 8.37741 15.3768 8.47598C15.3097 8.58286 15.2946 8.82151 15.3518 8.95956C15.4442 9.19033 15.6161 9.27185 16.0975 9.31397C16.8396 9.37889 17.605 9.63962 18.1834 10.0256C18.8437 10.4651 19.3685 11.0662 19.7081 11.7725C20.0015 12.3794 20.1819 13.2541 20.1769 14.0373C20.1752 14.3205 20.219 14.4805 20.3329 14.5975C20.5048 14.7773 20.7555 14.8166 20.9767 14.6972C21.2218 14.5682 21.2792 14.3419 21.236 13.647Z" fill="#7F4DA0"/>
<path d="M23.4859 20.4412C23.4514 20.3404 23.3709 20.1848 23.3133 20.0955C22.9509 19.5482 21.0037 18.0243 20.0315 17.526C19.4764 17.2408 19.0651 17.1458 18.7602 17.235C18.4323 17.3273 18.2597 17.4799 17.7103 18.1626C17.4888 18.4363 17.2616 18.6927 17.2012 18.733C17.0516 18.8367 16.7583 18.9203 16.5512 18.9203C16.0708 18.9173 15.1993 18.6062 14.5291 18.1972C14.0085 17.8803 13.3412 17.3129 12.8292 16.7511C12.2252 16.0914 11.8139 15.5095 11.4889 14.8528C11.0689 14.0087 10.9625 13.4931 11.1379 13.1157C11.1811 13.0206 11.2386 12.9198 11.2645 12.8881C11.2904 12.8593 11.5608 12.6375 11.8599 12.3955C12.4467 11.9289 12.5416 11.8223 12.6509 11.5025C12.7889 11.0963 12.7516 10.6815 12.5387 10.2639C12.3747 9.94697 11.9462 9.25562 11.6356 8.80913C11.2242 8.2215 10.2003 6.96553 9.99603 6.79552C9.62787 6.49596 9.1562 6.44408 8.63554 6.64577C8.08621 6.85894 7.05647 7.68856 6.61638 8.26758C6.21945 8.79185 6.06706 9.16344 6.04402 9.65315C6.0239 10.0564 6.0584 10.2235 6.27126 10.7392C7.93664 14.7836 10.4217 18.0128 13.8359 20.5766C15.6192 21.9161 17.4687 22.9359 19.3872 23.633C20.506 24.0392 20.9922 24.0593 21.5645 23.7252C21.8061 23.5811 22.4044 22.9676 22.7381 22.5211C23.2903 21.7778 23.4945 21.4351 23.5521 21.1614C23.5923 20.9742 23.5607 20.6487 23.4859 20.4412Z" fill="#0867D6"/>
<path d="M23.4859 20.4412C23.4514 20.3404 23.3709 20.1848 23.3133 20.0955C22.9509 19.5482 21.0037 18.0243 20.0315 17.526C19.4764 17.2408 19.0651 17.1458 18.7602 17.235C18.4323 17.3273 18.2597 17.4799 17.7103 18.1626C17.4888 18.4363 17.2616 18.6927 17.2012 18.733C17.0516 18.8367 16.7583 18.9203 16.5512 18.9203C16.0708 18.9173 15.1993 18.6062 14.5291 18.1972C14.0085 17.8803 13.3412 17.3129 12.8292 16.7511C12.2252 16.0914 11.8139 15.5095 11.4889 14.8528C11.0689 14.0087 10.9625 13.4931 11.1379 13.1157C11.1811 13.0206 11.2386 12.9198 11.2645 12.8881C11.2904 12.8593 11.5608 12.6375 11.8599 12.3955C12.4467 11.9289 12.5416 11.8223 12.6509 11.5025C12.7889 11.0963 12.7516 10.6815 12.5387 10.2639C12.3747 9.94697 11.9462 9.25562 11.6356 8.80913C11.2242 8.2215 10.2003 6.96553 9.99603 6.79552C9.62787 6.49596 9.1562 6.44408 8.63554 6.64577C8.08621 6.85894 7.05647 7.68856 6.61638 8.26758C6.21945 8.79185 6.06706 9.16344 6.04402 9.65315C6.0239 10.0564 6.0584 10.2235 6.27126 10.7392C7.93664 14.7836 10.4217 18.0128 13.8359 20.5766C15.6192 21.9161 17.4687 22.9359 19.3872 23.633C20.506 24.0392 20.9922 24.0593 21.5645 23.7252C21.8061 23.5811 22.4044 22.9676 22.7381 22.5211C23.2903 21.7778 23.4945 21.4351 23.5521 21.1614C23.5923 20.9742 23.5607 20.6487 23.4859 20.4412Z" fill="#EEEE36"/>
<path d="M23.4859 20.4412C23.4514 20.3404 23.3709 20.1848 23.3133 20.0955C22.9509 19.5482 21.0037 18.0243 20.0315 17.526C19.4764 17.2408 19.0651 17.1458 18.7602 17.235C18.4323 17.3273 18.2597 17.4799 17.7103 18.1626C17.4888 18.4363 17.2616 18.6927 17.2012 18.733C17.0516 18.8367 16.7583 18.9203 16.5512 18.9203C16.0708 18.9173 15.1993 18.6062 14.5291 18.1972C14.0085 17.8803 13.3412 17.3129 12.8292 16.7511C12.2252 16.0914 11.8139 15.5095 11.4889 14.8528C11.0689 14.0087 10.9625 13.4931 11.1379 13.1157C11.1811 13.0206 11.2386 12.9198 11.2645 12.8881C11.2904 12.8593 11.5608 12.6375 11.8599 12.3955C12.4467 11.9289 12.5416 11.8223 12.6509 11.5025C12.7889 11.0963 12.7516 10.6815 12.5387 10.2639C12.3747 9.94697 11.9462 9.25562 11.6356 8.80913C11.2242 8.2215 10.2003 6.96553 9.99603 6.79552C9.62787 6.49596 9.1562 6.44408 8.63554 6.64577C8.08621 6.85894 7.05647 7.68856 6.61638 8.26758C6.21945 8.79185 6.06706 9.16344 6.04402 9.65315C6.0239 10.0564 6.0584 10.2235 6.27126 10.7392C7.93664 14.7836 10.4217 18.0128 13.8359 20.5766C15.6192 21.9161 17.4687 22.9359 19.3872 23.633C20.506 24.0392 20.9922 24.0593 21.5645 23.7252C21.8061 23.5811 22.4044 22.9676 22.7381 22.5211C23.2903 21.7778 23.4945 21.4351 23.5521 21.1614C23.5923 20.9742 23.5607 20.6487 23.4859 20.4412Z" fill="#7F4DA0"/>
<path d="M23.3055 14.0521C23.2687 13.0542 23.1006 12.2356 22.7503 11.323C22.4044 10.4252 22.0543 9.83942 21.3932 9.04708C20.7681 8.30417 20.2826 7.87999 19.5126 7.40781C18.4383 6.74993 17.1309 6.31457 15.6658 6.13147C15.1661 6.06748 15.0531 6.07205 14.8998 6.17434C14.6027 6.3681 14.6067 6.85138 14.9047 7.04224C15.0033 7.10295 15.0909 7.12507 15.4905 7.17738C16.1041 7.25999 16.4986 7.33783 16.9667 7.46556C18.8024 7.96737 20.2141 8.99309 21.1578 10.5157C21.9476 11.7848 22.2755 13.0541 22.2289 14.6751C22.2127 15.2231 22.2245 15.3195 22.3083 15.4512C22.4687 15.6966 22.8917 15.7451 23.1088 15.5415C23.2438 15.4174 23.2693 15.3242 23.2959 14.8552C23.3086 14.6105 23.3114 14.2493 23.3055 14.0521Z" fill="#0867D6"/>
<path d="M23.3055 14.0521C23.2687 13.0542 23.1006 12.2356 22.7503 11.323C22.4044 10.4252 22.0543 9.83942 21.3932 9.04708C20.7681 8.30417 20.2826 7.87999 19.5126 7.40781C18.4383 6.74993 17.1309 6.31457 15.6658 6.13147C15.1661 6.06748 15.0531 6.07205 14.8998 6.17434C14.6027 6.3681 14.6067 6.85138 14.9047 7.04224C15.0033 7.10295 15.0909 7.12507 15.4905 7.17738C16.1041 7.25999 16.4986 7.33783 16.9667 7.46556C18.8024 7.96737 20.2141 8.99309 21.1578 10.5157C21.9476 11.7848 22.2755 13.0541 22.2289 14.6751C22.2127 15.2231 22.2245 15.3195 22.3083 15.4512C22.4687 15.6966 22.8917 15.7451 23.1088 15.5415C23.2438 15.4174 23.2693 15.3242 23.2959 14.8552C23.3086 14.6105 23.3114 14.2493 23.3055 14.0521Z" fill="#EEEE36"/>
<path d="M23.3055 14.0521C23.2687 13.0542 23.1006 12.2356 22.7503 11.323C22.4044 10.4252 22.0543 9.83942 21.3932 9.04708C20.7681 8.30417 20.2826 7.87999 19.5126 7.40781C18.4383 6.74993 17.1309 6.31457 15.6658 6.13147C15.1661 6.06748 15.0531 6.07205 14.8998 6.17434C14.6027 6.3681 14.6067 6.85138 14.9047 7.04224C15.0033 7.10295 15.0909 7.12507 15.4905 7.17738C16.1041 7.25999 16.4986 7.33783 16.9667 7.46556C18.8024 7.96737 20.2141 8.99309 21.1578 10.5157C21.9476 11.7848 22.2755 13.0541 22.2289 14.6751C22.2127 15.2231 22.2245 15.3195 22.3083 15.4512C22.4687 15.6966 22.8917 15.7451 23.1088 15.5415C23.2438 15.4174 23.2693 15.3242 23.2959 14.8552C23.3086 14.6105 23.3114 14.2493 23.3055 14.0521Z" fill="#7F4DA0"/>
</svg>
