<svg width="108" height="108" viewBox="0 0 108 108" fill="none" xmlns="http://www.w3.org/2000/svg">
<g filter="url(#filter0_d_1696_91353)">
<rect x="30" y="25" width="48" height="48" rx="5" fill="white"/>
</g>
<path fill-rule="evenodd" clip-rule="evenodd" d="M53.9914 62.7595H53.9856C51.6635 62.7587 49.3818 62.176 47.3552 61.0706L40 63.0001L41.9684 55.8103C40.7542 53.7061 40.1153 51.3193 40.1163 48.8739C40.1194 41.2239 46.3436 35 53.9912 35C57.7029 35.0016 61.1865 36.4465 63.8061 39.0692C66.4256 41.6916 67.8675 45.1776 67.866 48.8848C67.863 56.5331 61.6412 62.7563 53.9914 62.7595ZM47.6966 58.5586L48.1177 58.8085C49.8883 59.8592 51.9179 60.4152 53.9873 60.416H53.992C60.3481 60.416 65.5214 55.2426 65.524 48.8838C65.5252 45.8023 64.3268 42.905 62.1495 40.7252C59.9722 38.5453 57.0767 37.3443 53.9965 37.3432C47.6354 37.3432 42.4621 42.5161 42.4595 48.8744C42.4586 51.0535 43.0683 53.1756 44.2227 55.0117L44.4969 55.448L43.3319 59.7035L47.6966 58.5586ZM60.5085 51.8721C60.7503 51.989 60.9136 52.0679 60.9833 52.1843C61.07 52.3288 61.07 53.023 60.7812 53.8329C60.4922 54.6427 59.1072 55.3818 58.4411 55.4813C57.8438 55.5706 57.088 55.6079 56.2575 55.3439C55.754 55.1842 55.1083 54.9709 54.2811 54.6136C51.031 53.2103 48.8347 50.0602 48.4195 49.4649C48.3905 49.4232 48.3701 49.394 48.3588 49.3789L48.356 49.3751C48.1725 49.1303 46.9432 47.4901 46.9432 45.7925C46.9432 44.1956 47.7276 43.3586 48.0887 42.9733C48.1134 42.9469 48.1362 42.9227 48.1566 42.9004C48.4743 42.5533 48.8499 42.4665 49.081 42.4665C49.3121 42.4665 49.5435 42.4687 49.7455 42.4788C49.7704 42.4801 49.7963 42.4799 49.8231 42.4798C50.0252 42.4786 50.277 42.4771 50.5255 43.0739C50.6211 43.3036 50.761 43.6441 50.9085 44.0033C51.2068 44.7295 51.5364 45.532 51.5944 45.6481C51.6811 45.8216 51.7388 46.024 51.6233 46.2555C51.6059 46.2902 51.5899 46.323 51.5746 46.3543C51.4878 46.5315 51.4239 46.6618 51.2766 46.8338C51.2187 46.9014 51.1588 46.9743 51.099 47.0472C50.9797 47.1925 50.8604 47.3377 50.7566 47.4412C50.583 47.6141 50.4024 47.8016 50.6046 48.1487C50.8068 48.4958 51.5026 49.631 52.5332 50.5503C53.6411 51.5385 54.604 51.9562 55.092 52.1679C55.1873 52.2092 55.2646 52.2427 55.3212 52.2711C55.6677 52.4447 55.87 52.4156 56.0722 52.1843C56.2745 51.9529 56.9389 51.1719 57.1699 50.8249C57.401 50.478 57.6322 50.5358 57.9499 50.6514C58.2678 50.7672 59.9722 51.6058 60.3189 51.7793C60.3866 51.8132 60.4499 51.8438 60.5085 51.8721Z" fill="#0867D6"/>
<path fill-rule="evenodd" clip-rule="evenodd" d="M53.9914 62.7595H53.9856C51.6635 62.7587 49.3818 62.176 47.3552 61.0706L40 63.0001L41.9684 55.8103C40.7542 53.7061 40.1153 51.3193 40.1163 48.8739C40.1194 41.2239 46.3436 35 53.9912 35C57.7029 35.0016 61.1865 36.4465 63.8061 39.0692C66.4256 41.6916 67.8675 45.1776 67.866 48.8848C67.863 56.5331 61.6412 62.7563 53.9914 62.7595ZM47.6966 58.5586L48.1177 58.8085C49.8883 59.8592 51.9179 60.4152 53.9873 60.416H53.992C60.3481 60.416 65.5214 55.2426 65.524 48.8838C65.5252 45.8023 64.3268 42.905 62.1495 40.7252C59.9722 38.5453 57.0767 37.3443 53.9965 37.3432C47.6354 37.3432 42.4621 42.5161 42.4595 48.8744C42.4586 51.0535 43.0683 53.1756 44.2227 55.0117L44.4969 55.448L43.3319 59.7035L47.6966 58.5586ZM60.5085 51.8721C60.7503 51.989 60.9136 52.0679 60.9833 52.1843C61.07 52.3288 61.07 53.023 60.7812 53.8329C60.4922 54.6427 59.1072 55.3818 58.4411 55.4813C57.8438 55.5706 57.088 55.6079 56.2575 55.3439C55.754 55.1842 55.1083 54.9709 54.2811 54.6136C51.031 53.2103 48.8347 50.0602 48.4195 49.4649C48.3905 49.4232 48.3701 49.394 48.3588 49.3789L48.356 49.3751C48.1725 49.1303 46.9432 47.4901 46.9432 45.7925C46.9432 44.1956 47.7276 43.3586 48.0887 42.9733C48.1134 42.9469 48.1362 42.9227 48.1566 42.9004C48.4743 42.5533 48.8499 42.4665 49.081 42.4665C49.3121 42.4665 49.5435 42.4687 49.7455 42.4788C49.7704 42.4801 49.7963 42.4799 49.8231 42.4798C50.0252 42.4786 50.277 42.4771 50.5255 43.0739C50.6211 43.3036 50.761 43.6441 50.9085 44.0033C51.2068 44.7295 51.5364 45.532 51.5944 45.6481C51.6811 45.8216 51.7388 46.024 51.6233 46.2555C51.6059 46.2902 51.5899 46.323 51.5746 46.3543C51.4878 46.5315 51.4239 46.6618 51.2766 46.8338C51.2187 46.9014 51.1588 46.9743 51.099 47.0472C50.9797 47.1925 50.8604 47.3377 50.7566 47.4412C50.583 47.6141 50.4024 47.8016 50.6046 48.1487C50.8068 48.4958 51.5026 49.631 52.5332 50.5503C53.6411 51.5385 54.604 51.9562 55.092 52.1679C55.1873 52.2092 55.2646 52.2427 55.3212 52.2711C55.6677 52.4447 55.87 52.4156 56.0722 52.1843C56.2745 51.9529 56.9389 51.1719 57.1699 50.8249C57.401 50.478 57.6322 50.5358 57.9499 50.6514C58.2678 50.7672 59.9722 51.6058 60.3189 51.7793C60.3866 51.8132 60.4499 51.8438 60.5085 51.8721Z" fill="#0696E7"/>
<path fill-rule="evenodd" clip-rule="evenodd" d="M53.9914 62.7595H53.9856C51.6635 62.7587 49.3818 62.176 47.3552 61.0706L40 63.0001L41.9684 55.8103C40.7542 53.7061 40.1153 51.3193 40.1163 48.8739C40.1194 41.2239 46.3436 35 53.9912 35C57.7029 35.0016 61.1865 36.4465 63.8061 39.0692C66.4256 41.6916 67.8675 45.1776 67.866 48.8848C67.863 56.5331 61.6412 62.7563 53.9914 62.7595ZM47.6966 58.5586L48.1177 58.8085C49.8883 59.8592 51.9179 60.4152 53.9873 60.416H53.992C60.3481 60.416 65.5214 55.2426 65.524 48.8838C65.5252 45.8023 64.3268 42.905 62.1495 40.7252C59.9722 38.5453 57.0767 37.3443 53.9965 37.3432C47.6354 37.3432 42.4621 42.5161 42.4595 48.8744C42.4586 51.0535 43.0683 53.1756 44.2227 55.0117L44.4969 55.448L43.3319 59.7035L47.6966 58.5586ZM60.5085 51.8721C60.7503 51.989 60.9136 52.0679 60.9833 52.1843C61.07 52.3288 61.07 53.023 60.7812 53.8329C60.4922 54.6427 59.1072 55.3818 58.4411 55.4813C57.8438 55.5706 57.088 55.6079 56.2575 55.3439C55.754 55.1842 55.1083 54.9709 54.2811 54.6136C51.031 53.2103 48.8347 50.0602 48.4195 49.4649C48.3905 49.4232 48.3701 49.394 48.3588 49.3789L48.356 49.3751C48.1725 49.1303 46.9432 47.4901 46.9432 45.7925C46.9432 44.1956 47.7276 43.3586 48.0887 42.9733C48.1134 42.9469 48.1362 42.9227 48.1566 42.9004C48.4743 42.5533 48.8499 42.4665 49.081 42.4665C49.3121 42.4665 49.5435 42.4687 49.7455 42.4788C49.7704 42.4801 49.7963 42.4799 49.8231 42.4798C50.0252 42.4786 50.277 42.4771 50.5255 43.0739C50.6211 43.3036 50.761 43.6441 50.9085 44.0033C51.2068 44.7295 51.5364 45.532 51.5944 45.6481C51.6811 45.8216 51.7388 46.024 51.6233 46.2555C51.6059 46.2902 51.5899 46.323 51.5746 46.3543C51.4878 46.5315 51.4239 46.6618 51.2766 46.8338C51.2187 46.9014 51.1588 46.9743 51.099 47.0472C50.9797 47.1925 50.8604 47.3377 50.7566 47.4412C50.583 47.6141 50.4024 47.8016 50.6046 48.1487C50.8068 48.4958 51.5026 49.631 52.5332 50.5503C53.6411 51.5385 54.604 51.9562 55.092 52.1679C55.1873 52.2092 55.2646 52.2427 55.3212 52.2711C55.6677 52.4447 55.87 52.4156 56.0722 52.1843C56.2745 51.9529 56.9389 51.1719 57.1699 50.8249C57.401 50.478 57.6322 50.5358 57.9499 50.6514C58.2678 50.7672 59.9722 51.6058 60.3189 51.7793C60.3866 51.8132 60.4499 51.8438 60.5085 51.8721Z" fill="#25D366"/>
<defs>
<filter id="filter0_d_1696_91353" x="0" y="0" width="108" height="108" filterUnits="userSpaceOnUse" color-interpolation-filters="sRGB">
<feFlood flood-opacity="0" result="BackgroundImageFix"/>
<feColorMatrix in="SourceAlpha" type="matrix" values="0 0 0 0 0 0 0 0 0 0 0 0 0 0 0 0 0 0 127 0" result="hardAlpha"/>
<feOffset dy="5"/>
<feGaussianBlur stdDeviation="15"/>
<feComposite in2="hardAlpha" operator="out"/>
<feColorMatrix type="matrix" values="0 0 0 0 0.247135 0 0 0 0 0.259458 0 0 0 0 0.270833 0 0 0 0.15 0"/>
<feBlend mode="normal" in2="BackgroundImageFix" result="effect1_dropShadow_1696_91353"/>
<feBlend mode="normal" in="SourceGraphic" in2="effect1_dropShadow_1696_91353" result="shape"/>
</filter>
</defs>
</svg>
