<svg width="30" height="30" viewBox="0 0 30 30" fill="none" xmlns="http://www.w3.org/2000/svg">
<path fill-rule="evenodd" clip-rule="evenodd" d="M15 30C23.2843 30 30 23.2843 30 15C30 6.71573 23.2843 0 15 0C6.71573 0 0 6.71573 0 15C0 23.2843 6.71573 30 15 30Z" fill="#F7F8FB"/>
<path fill-rule="evenodd" clip-rule="evenodd" d="M15.0419 24.9235H15.0378C13.3711 24.9229 11.7335 24.5048 10.279 23.7114L5 25.0962L6.41274 19.936C5.54129 18.4257 5.08274 16.7127 5.08349 14.9576C5.08567 9.467 9.55292 5 15.0418 5C17.7057 5.00115 20.206 6.03821 22.0861 7.92051C23.9662 9.80272 25.0011 12.3046 25 14.9654C24.9978 20.4547 20.5323 24.9213 15.0419 24.9235ZM10.5236 21.9086L10.8259 22.088C12.0967 22.8421 13.5534 23.2412 15.0386 23.2417H15.0419C19.6039 23.2417 23.3169 19.5287 23.3187 14.9648C23.3195 12.7532 22.4594 10.6738 20.8968 9.10925C19.3341 7.54475 17.2559 6.68274 15.0452 6.68197C10.4797 6.68197 6.7667 10.3947 6.76489 14.9581C6.76425 16.5221 7.20183 18.0452 8.03036 19.363L8.22716 19.6761L7.39101 22.7304L10.5236 21.9086ZM19.7188 17.1096C19.8923 17.1934 20.0095 17.2501 20.0596 17.3336C20.1217 17.4373 20.1217 17.9355 19.9145 18.5168C19.7071 19.098 18.713 19.6285 18.2349 19.6999C17.8063 19.764 17.2638 19.7907 16.6677 19.6013C16.3063 19.4867 15.8429 19.3336 15.2493 19.0772C12.9166 18.0699 11.3402 15.8091 11.0423 15.3818C11.0214 15.3519 11.0068 15.3309 10.9987 15.3201L10.9967 15.3174C10.865 15.1417 9.98267 13.9645 9.98267 12.7461C9.98267 11.6 10.5457 10.9992 10.8048 10.7227C10.8226 10.7038 10.8389 10.6863 10.8535 10.6704C11.0816 10.4212 11.3512 10.359 11.517 10.359C11.6829 10.359 11.849 10.3605 11.9939 10.3678C12.0118 10.3687 12.0304 10.3686 12.0497 10.3685C12.1947 10.3676 12.3754 10.3666 12.5538 10.7949C12.6224 10.9598 12.7228 11.2042 12.8287 11.462C13.0428 11.9832 13.2793 12.5591 13.3209 12.6424C13.3831 12.767 13.4246 12.9122 13.3417 13.0784C13.3292 13.1033 13.3177 13.1268 13.3067 13.1493C13.2444 13.2764 13.1986 13.37 13.0929 13.4934C13.0513 13.542 13.0083 13.5943 12.9654 13.6466C12.8797 13.7509 12.7942 13.8551 12.7196 13.9294C12.5951 14.0534 12.4654 14.1881 12.6105 14.4372C12.7557 14.6863 13.255 15.5011 13.9947 16.1609C14.7899 16.8701 15.481 17.1699 15.8313 17.3218C15.8997 17.3515 15.9551 17.3755 15.9957 17.3959C16.2445 17.5205 16.3896 17.4996 16.5348 17.3336C16.6799 17.1675 17.1568 16.607 17.3226 16.3579C17.4885 16.1089 17.6544 16.1504 17.8824 16.2334C18.1106 16.3165 19.3339 16.9184 19.5827 17.0429C19.6313 17.0673 19.6767 17.0892 19.7188 17.1096Z" fill="#0867D6"/>
<path fill-rule="evenodd" clip-rule="evenodd" d="M15.0419 24.9235H15.0378C13.3711 24.9229 11.7335 24.5048 10.279 23.7114L5 25.0962L6.41274 19.936C5.54129 18.4257 5.08274 16.7127 5.08349 14.9576C5.08567 9.467 9.55292 5 15.0418 5C17.7057 5.00115 20.206 6.03821 22.0861 7.92051C23.9662 9.80272 25.0011 12.3046 25 14.9654C24.9978 20.4547 20.5323 24.9213 15.0419 24.9235ZM10.5236 21.9086L10.8259 22.088C12.0967 22.8421 13.5534 23.2412 15.0386 23.2417H15.0419C19.6039 23.2417 23.3169 19.5287 23.3187 14.9648C23.3195 12.7532 22.4594 10.6738 20.8968 9.10925C19.3341 7.54475 17.2559 6.68274 15.0452 6.68197C10.4797 6.68197 6.7667 10.3947 6.76489 14.9581C6.76425 16.5221 7.20183 18.0452 8.03036 19.363L8.22716 19.6761L7.39101 22.7304L10.5236 21.9086ZM19.7188 17.1096C19.8923 17.1934 20.0095 17.2501 20.0596 17.3336C20.1217 17.4373 20.1217 17.9355 19.9145 18.5168C19.7071 19.098 18.713 19.6285 18.2349 19.6999C17.8063 19.764 17.2638 19.7907 16.6677 19.6013C16.3063 19.4867 15.8429 19.3336 15.2493 19.0772C12.9166 18.0699 11.3402 15.8091 11.0423 15.3818C11.0214 15.3519 11.0068 15.3309 10.9987 15.3201L10.9967 15.3174C10.865 15.1417 9.98267 13.9645 9.98267 12.7461C9.98267 11.6 10.5457 10.9992 10.8048 10.7227C10.8226 10.7038 10.8389 10.6863 10.8535 10.6704C11.0816 10.4212 11.3512 10.359 11.517 10.359C11.6829 10.359 11.849 10.3605 11.9939 10.3678C12.0118 10.3687 12.0304 10.3686 12.0497 10.3685C12.1947 10.3676 12.3754 10.3666 12.5538 10.7949C12.6224 10.9598 12.7228 11.2042 12.8287 11.462C13.0428 11.9832 13.2793 12.5591 13.3209 12.6424C13.3831 12.767 13.4246 12.9122 13.3417 13.0784C13.3292 13.1033 13.3177 13.1268 13.3067 13.1493C13.2444 13.2764 13.1986 13.37 13.0929 13.4934C13.0513 13.542 13.0083 13.5943 12.9654 13.6466C12.8797 13.7509 12.7942 13.8551 12.7196 13.9294C12.5951 14.0534 12.4654 14.1881 12.6105 14.4372C12.7557 14.6863 13.255 15.5011 13.9947 16.1609C14.7899 16.8701 15.481 17.1699 15.8313 17.3218C15.8997 17.3515 15.9551 17.3755 15.9957 17.3959C16.2445 17.5205 16.3896 17.4996 16.5348 17.3336C16.6799 17.1675 17.1568 16.607 17.3226 16.3579C17.4885 16.1089 17.6544 16.1504 17.8824 16.2334C18.1106 16.3165 19.3339 16.9184 19.5827 17.0429C19.6313 17.0673 19.6767 17.0892 19.7188 17.1096Z" fill="#0696E7"/>
<path fill-rule="evenodd" clip-rule="evenodd" d="M15.0419 24.9235H15.0378C13.3711 24.9229 11.7335 24.5048 10.279 23.7114L5 25.0962L6.41274 19.936C5.54129 18.4257 5.08274 16.7127 5.08349 14.9576C5.08567 9.467 9.55292 5 15.0418 5C17.7057 5.00115 20.206 6.03821 22.0861 7.92051C23.9662 9.80272 25.0011 12.3046 25 14.9654C24.9978 20.4547 20.5323 24.9213 15.0419 24.9235ZM10.5236 21.9086L10.8259 22.088C12.0967 22.8421 13.5534 23.2412 15.0386 23.2417H15.0419C19.6039 23.2417 23.3169 19.5287 23.3187 14.9648C23.3195 12.7532 22.4594 10.6738 20.8968 9.10925C19.3341 7.54475 17.2559 6.68274 15.0452 6.68197C10.4797 6.68197 6.7667 10.3947 6.76489 14.9581C6.76425 16.5221 7.20183 18.0452 8.03036 19.363L8.22716 19.6761L7.39101 22.7304L10.5236 21.9086ZM19.7188 17.1096C19.8923 17.1934 20.0095 17.2501 20.0596 17.3336C20.1217 17.4373 20.1217 17.9355 19.9145 18.5168C19.7071 19.098 18.713 19.6285 18.2349 19.6999C17.8063 19.764 17.2638 19.7907 16.6677 19.6013C16.3063 19.4867 15.8429 19.3336 15.2493 19.0772C12.9166 18.0699 11.3402 15.8091 11.0423 15.3818C11.0214 15.3519 11.0068 15.3309 10.9987 15.3201L10.9967 15.3174C10.865 15.1417 9.98267 13.9645 9.98267 12.7461C9.98267 11.6 10.5457 10.9992 10.8048 10.7227C10.8226 10.7038 10.8389 10.6863 10.8535 10.6704C11.0816 10.4212 11.3512 10.359 11.517 10.359C11.6829 10.359 11.849 10.3605 11.9939 10.3678C12.0118 10.3687 12.0304 10.3686 12.0497 10.3685C12.1947 10.3676 12.3754 10.3666 12.5538 10.7949C12.6224 10.9598 12.7228 11.2042 12.8287 11.462C13.0428 11.9832 13.2793 12.5591 13.3209 12.6424C13.3831 12.767 13.4246 12.9122 13.3417 13.0784C13.3292 13.1033 13.3177 13.1268 13.3067 13.1493C13.2444 13.2764 13.1986 13.37 13.0929 13.4934C13.0513 13.542 13.0083 13.5943 12.9654 13.6466C12.8797 13.7509 12.7942 13.8551 12.7196 13.9294C12.5951 14.0534 12.4654 14.1881 12.6105 14.4372C12.7557 14.6863 13.255 15.5011 13.9947 16.1609C14.7899 16.8701 15.481 17.1699 15.8313 17.3218C15.8997 17.3515 15.9551 17.3755 15.9957 17.3959C16.2445 17.5205 16.3896 17.4996 16.5348 17.3336C16.6799 17.1675 17.1568 16.607 17.3226 16.3579C17.4885 16.1089 17.6544 16.1504 17.8824 16.2334C18.1106 16.3165 19.3339 16.9184 19.5827 17.0429C19.6313 17.0673 19.6767 17.0892 19.7188 17.1096Z" fill="#25D366"/>
</svg>
