<svg width="16" height="16" viewBox="0 0 16 16" fill="none" xmlns="http://www.w3.org/2000/svg">
<g clip-path="url(#clip0_1616_80214)">
<path d="M7.99967 1.66675L9.89498 6.06294L14.6663 6.50498L11.0663 9.66402L12.1199 14.3334L7.99967 11.8896L3.87945 14.3334L4.93301 9.66402L1.33301 6.50498L6.10437 6.06294L7.99967 1.66675Z" fill="#0867D6"/>
<path d="M7.99967 1.66675L9.89498 6.06294L14.6663 6.50498L11.0663 9.66402L12.1199 14.3334L7.99967 11.8896L3.87945 14.3334L4.93301 9.66402L1.33301 6.50498L6.10437 6.06294L7.99967 1.66675Z" fill="#EEEE36"/>
<path d="M7.99967 1.66675L9.89498 6.06294L14.6663 6.50498L11.0663 9.66402L12.1199 14.3334L7.99967 11.8896L3.87945 14.3334L4.93301 9.66402L1.33301 6.50498L6.10437 6.06294L7.99967 1.66675Z" fill="#F1DA09"/>
<path d="M7.99967 1.66675L9.89498 6.06294L14.6663 6.50498L11.0663 9.66402L12.1199 14.3334L7.99967 11.8896L3.87945 14.3334L4.93301 9.66402L1.33301 6.50498L6.10437 6.06294L7.99967 1.66675Z" stroke="#0867D6" stroke-width="2" stroke-linejoin="round"/>
<path d="M7.99967 1.66675L9.89498 6.06294L14.6663 6.50498L11.0663 9.66402L12.1199 14.3334L7.99967 11.8896L3.87945 14.3334L4.93301 9.66402L1.33301 6.50498L6.10437 6.06294L7.99967 1.66675Z" stroke="#EEEE36" stroke-width="2" stroke-linejoin="round"/>
<path d="M7.99967 1.66675L9.89498 6.06294L14.6663 6.50498L11.0663 9.66402L12.1199 14.3334L7.99967 11.8896L3.87945 14.3334L4.93301 9.66402L1.33301 6.50498L6.10437 6.06294L7.99967 1.66675Z" stroke="#F1DA09" stroke-width="2" stroke-linejoin="round"/>
</g>
<defs>
<clipPath id="clip0_1616_80214">
<rect width="16" height="16" fill="white"/>
</clipPath>
</defs>
</svg>
