<svg width="44" height="28" viewBox="0 0 44 28" fill="none" xmlns="http://www.w3.org/2000/svg">
<path d="M41.5731 17.0543L28.8051 22.5647C28.3896 22.7418 27.9212 22.7484 27.501 22.5832C27.0807 22.4179 26.7422 22.0941 26.5587 21.6815L21.0291 8.91346C20.6643 8.04946 21.0483 7.05106 21.9123 6.66706L34.6803 1.13746C35.5443 0.772657 36.5427 1.15666 36.9267 2.02066L42.4563 14.7887C42.8211 15.6719 42.4179 16.6703 41.5731 17.0543Z" stroke="#0867D6" stroke-width="2" stroke-miterlimit="10" stroke-linecap="round"/>
<path d="M41.5731 17.0543L28.8051 22.5647C28.3896 22.7418 27.9212 22.7484 27.501 22.5832C27.0807 22.4179 26.7422 22.0941 26.5587 21.6815L21.0291 8.91346C20.6643 8.04946 21.0483 7.05106 21.9123 6.66706L34.6803 1.13746C35.5443 0.772657 36.5427 1.15666 36.9267 2.02066L42.4563 14.7887C42.8211 15.6719 42.4179 16.6703 41.5731 17.0543Z" stroke="#0696E7" stroke-width="2" stroke-miterlimit="10" stroke-linecap="round"/>
<path d="M41.5731 17.0543L28.8051 22.5647C28.3896 22.7418 27.9212 22.7484 27.501 22.5832C27.0807 22.4179 26.7422 22.0941 26.5587 21.6815L21.0291 8.91346C20.6643 8.04946 21.0483 7.05106 21.9123 6.66706L34.6803 1.13746C35.5443 0.772657 36.5427 1.15666 36.9267 2.02066L42.4563 14.7887C42.8211 15.6719 42.4179 16.6703 41.5731 17.0543Z" stroke="#208EE2" stroke-width="2" stroke-miterlimit="10" stroke-linecap="round"/>
<path d="M24.4082 21.0094L16.2482 24.5422C15.8328 24.7193 15.3644 24.726 14.9441 24.5608C14.5238 24.3955 14.1854 24.0716 14.0018 23.659L11.0066 16.7086C10.6418 15.8446 11.0258 14.827 11.8898 14.4622L20.0498 10.9294C20.9138 10.5646 21.9122 10.9486 22.2962 11.8126L25.3106 18.7631C25.6754 19.6463 25.2722 20.6446 24.4082 21.0094Z" stroke="#0867D6" stroke-width="2" stroke-miterlimit="10" stroke-linecap="round"/>
<path d="M24.4082 21.0094L16.2482 24.5422C15.8328 24.7193 15.3644 24.726 14.9441 24.5608C14.5238 24.3955 14.1854 24.0716 14.0018 23.659L11.0066 16.7086C10.6418 15.8446 11.0258 14.827 11.8898 14.4622L20.0498 10.9294C20.9138 10.5646 21.9122 10.9486 22.2962 11.8126L25.3106 18.7631C25.6754 19.6463 25.2722 20.6446 24.4082 21.0094Z" stroke="#0696E7" stroke-width="2" stroke-miterlimit="10" stroke-linecap="round"/>
<path d="M24.4082 21.0094L16.2482 24.5422C15.8328 24.7193 15.3644 24.726 14.9441 24.5608C14.5238 24.3955 14.1854 24.0716 14.0018 23.659L11.0066 16.7086C10.6418 15.8446 11.0258 14.827 11.8898 14.4622L20.0498 10.9294C20.9138 10.5646 21.9122 10.9486 22.2962 11.8126L25.3106 18.7631C25.6754 19.6463 25.2722 20.6446 24.4082 21.0094Z" stroke="#208EE2" stroke-width="2" stroke-miterlimit="10" stroke-linecap="round"/>
<path d="M31.9727 2.96143L38.5007 17.899M12.0431 23.371L4.20946 26.7502C3.79404 26.9273 3.32564 26.934 2.90536 26.7687C2.48508 26.6035 2.14663 26.2796 1.96306 25.867L1.13746 23.947C0.772657 23.083 1.15666 22.0846 2.02066 21.7006L9.85426 18.3406C10.7183 17.9758 11.7167 18.3598 12.1007 19.2238L12.9263 21.1438C13.2911 21.9886 12.8879 23.0062 12.0431 23.371V23.371Z" stroke="#0867D6" stroke-width="2" stroke-miterlimit="10" stroke-linecap="round"/>
<path d="M31.9727 2.96143L38.5007 17.899M12.0431 23.371L4.20946 26.7502C3.79404 26.9273 3.32564 26.934 2.90536 26.7687C2.48508 26.6035 2.14663 26.2796 1.96306 25.867L1.13746 23.947C0.772657 23.083 1.15666 22.0846 2.02066 21.7006L9.85426 18.3406C10.7183 17.9758 11.7167 18.3598 12.1007 19.2238L12.9263 21.1438C13.2911 21.9886 12.8879 23.0062 12.0431 23.371V23.371Z" stroke="#0696E7" stroke-width="2" stroke-miterlimit="10" stroke-linecap="round"/>
<path d="M31.9727 2.96143L38.5007 17.899M12.0431 23.371L4.20946 26.7502C3.79404 26.9273 3.32564 26.934 2.90536 26.7687C2.48508 26.6035 2.14663 26.2796 1.96306 25.867L1.13746 23.947C0.772657 23.083 1.15666 22.0846 2.02066 21.7006L9.85426 18.3406C10.7183 17.9758 11.7167 18.3598 12.1007 19.2238L12.9263 21.1438C13.2911 21.9886 12.8879 23.0062 12.0431 23.371V23.371Z" stroke="#208EE2" stroke-width="2" stroke-miterlimit="10" stroke-linecap="round"/>
</svg>
