<svg width="20" height="20" viewBox="0 0 20 20" fill="none" xmlns="http://www.w3.org/2000/svg">
<g clip-path="url(#clip0_405_38388)">
<path d="M1.56252 3.29297H17.1875C18.0469 3.29297 18.75 3.99609 18.75 4.85548V6.7305C18.75 7.58989 18.0469 8.29302 17.1875 8.29302H1.56252C0.703122 8.29294 0 7.58981 0 6.73046V4.85544C0 3.99609 0.703122 3.29297 1.56252 3.29297Z" fill="#A86A3F"/>
<path d="M4.98438 4.96432L14.7656 2.37059C15.0938 2.27684 15.4375 2.47996 15.5312 2.8081L17.1562 8.8081C17.25 9.13624 17.0469 9.47996 16.7187 9.57371L3.98438 12.9643C3.65625 13.0581 3.31252 12.8549 3.21878 12.5268L2.03125 8.12057L4.98438 4.96432Z" fill="#5EBA6D"/>
<path d="M15.4534 8.62041L13.3441 9.18289C13.1722 9.22978 13.0003 9.136 12.9691 8.96413C12.9222 8.79227 13.016 8.62037 13.1878 8.58915L15.0003 8.10478L14.0316 4.47979L12.2191 4.96416C12.0472 5.01105 11.8753 4.91726 11.8441 4.7454C11.7972 4.57354 11.891 4.40163 12.0629 4.37041L14.1722 3.80793C14.3441 3.76104 14.516 3.85482 14.5472 4.02669L15.6722 8.24542C15.719 8.41728 15.6253 8.58915 15.4534 8.62041ZM6.70342 10.9798L4.59405 11.5423C4.42219 11.5892 4.25029 11.4954 4.21906 11.3235L3.09406 7.10479C3.04717 6.93292 3.14096 6.76102 3.31282 6.7298L5.42218 6.16731C5.59405 6.12042 5.76595 6.21421 5.79717 6.38607C5.84406 6.55793 5.75028 6.72984 5.57841 6.76106L3.76592 7.24543L4.73465 10.8704L6.54715 10.386C6.71901 10.3392 6.89091 10.4329 6.92213 10.6048C6.96903 10.761 6.87528 10.9329 6.70342 10.9798Z" fill="#B3F0BD"/>
<path d="M0.125046 7.15209C2.90627 5.55832 10.4063 1.16768 10.4063 1.16768C10.7032 0.995818 11.0938 1.08957 11.2657 1.38644L14.3907 6.76144C14.5626 7.05831 14.4532 7.4333 14.1563 7.6052L2.71878 14.1677C2.42191 14.3395 2.03129 14.2458 1.85938 13.9489C1.85938 13.9489 0.984399 12.1677 0.109375 10.6677C0.109415 7.15209 0.125046 8.30832 0.125046 7.15209Z" fill="#5EBA6D"/>
<path d="M12.7971 6.58912L10.6096 2.80786C10.5159 2.65163 10.3284 2.60474 10.1877 2.69849L8.29714 3.79223C8.1409 3.88597 8.09401 4.07347 8.18776 4.21411C8.2815 4.37034 8.469 4.41723 8.60964 4.32348L10.2346 3.38598L12.1097 6.63597L10.4847 7.57348C10.3284 7.66723 10.2815 7.85472 10.3753 7.99536C10.469 8.15159 10.6565 8.19849 10.7972 8.10474L12.6878 7.011C12.8284 6.93288 12.8909 6.74539 12.7971 6.58912ZM4.51588 11.011L2.89088 11.9485L1.01586 8.69848L2.64086 7.76098C2.79709 7.66723 2.84398 7.47973 2.75024 7.3391C2.65649 7.18286 2.469 7.13597 2.32836 7.22972L0.437747 8.32346C0.281515 8.4172 0.234622 8.6047 0.328369 8.74534L2.51585 12.5266C2.6096 12.6828 2.79709 12.7297 2.93773 12.636L4.82834 11.5422C4.98457 11.4485 5.03147 11.261 4.93772 11.1204C4.8596 10.9798 4.67211 10.9172 4.51588 11.011ZM5.31275 5.49538C4.10963 6.18287 3.70338 7.71412 4.39087 8.91724C5.09399 10.1204 6.60961 10.5266 7.81273 9.83912C9.01585 9.15163 9.4221 7.62038 8.73461 6.41726C8.03149 5.22973 6.51586 4.80789 5.31275 5.49538ZM12.7971 6.58912L10.6096 2.80786C10.5159 2.65163 10.3284 2.60474 10.1877 2.69849L8.29714 3.79223C8.1409 3.88597 8.09401 4.07347 8.18776 4.21411C8.2815 4.37034 8.469 4.41723 8.60964 4.32348L10.2346 3.38598L12.1097 6.63597L10.4847 7.57348C10.3284 7.66723 10.2815 7.85472 10.3753 7.99536C10.469 8.15159 10.6565 8.19849 10.7972 8.10474L12.6878 7.011C12.8284 6.93288 12.8909 6.74539 12.7971 6.58912ZM4.51588 11.011L2.89088 11.9485L1.01586 8.69848L2.64086 7.76098C2.79709 7.66723 2.84398 7.47973 2.75024 7.3391C2.65649 7.18286 2.469 7.13597 2.32836 7.22972L0.437747 8.32346C0.281515 8.4172 0.234622 8.6047 0.328369 8.74534L2.51585 12.5266C2.6096 12.6828 2.79709 12.7297 2.93773 12.636L4.82834 11.5422C4.98457 11.4485 5.03147 11.261 4.93772 11.1204C4.8596 10.9798 4.67211 10.9172 4.51588 11.011ZM5.31275 5.49538C4.10963 6.18287 3.70338 7.71412 4.39087 8.91724C5.09399 10.1204 6.60961 10.5266 7.81273 9.83912C9.01585 9.15163 9.4221 7.62038 8.73461 6.41726C8.03149 5.22973 6.51586 4.80789 5.31275 5.49538Z" fill="#B3F0BD"/>
<path d="M17.8125 18.918H1.56252C0.703122 18.918 0 18.2149 0 17.3555V6.10548H17.8125C18.6719 6.10548 19.375 6.8086 19.375 7.66799V17.3555C19.375 18.2149 18.6719 18.918 17.8125 18.918ZM1.25001 6.10548H0V4.85547C0 5.54296 0.562482 6.10548 1.25001 6.10548Z" fill="#C47E4D"/>
<path d="M19.375 15.0117H16.875C15.6719 15.0117 14.6875 14.0273 14.6875 12.8242C14.6875 11.6211 15.6719 10.6367 16.875 10.6367H19.375C19.7187 10.6367 20 10.918 20 11.2617V14.3867C20 14.7304 19.7187 15.0117 19.375 15.0117Z" fill="#A86A3F"/>
<path d="M16.875 11.5742C17.5625 11.5742 18.125 12.1367 18.125 12.8242C18.125 13.5118 17.5625 14.0742 16.875 14.0742C16.1875 14.0742 15.625 13.5118 15.625 12.8242C15.625 12.1367 16.1875 11.5742 16.875 11.5742Z" fill="#EFC75E"/>
<path d="M17.1875 13.7617C16.5 13.7617 15.9375 13.1992 15.9375 12.5117C15.9375 12.2461 16.0156 11.9961 16.1563 11.793C15.8281 12.0117 15.625 12.3867 15.625 12.8242C15.625 13.5117 16.1875 14.0742 16.875 14.0742C17.2969 14.0742 17.6719 13.8555 17.9063 13.543C17.7031 13.6836 17.4531 13.7617 17.1875 13.7617Z" fill="#D7B354"/>
<path d="M17.8125 18.293H1.56252C0.703122 18.293 0 17.5899 0 16.7305V17.3555C0 18.2149 0.703122 18.918 1.56252 18.918H17.8125C18.6719 18.918 19.375 18.2149 19.375 17.3555V16.7305C19.375 17.5899 18.6719 18.293 17.8125 18.293Z" fill="#B27245"/>
<path d="M17.8125 6.10548H1.25001C0.562482 6.10548 0 5.54296 0 4.85547V5.48047C0 6.16797 0.562482 6.73049 1.25001 6.73049H17.8125C18.6719 6.73049 19.375 7.43361 19.375 8.293V7.668C19.375 6.8086 18.6719 6.10548 17.8125 6.10548Z" fill="#CA8B5F"/>
</g>
<defs>
<clipPath id="clip0_405_38388">
<rect width="20" height="20" fill="white"/>
</clipPath>
</defs>
</svg>
