<svg width="27" height="20" viewBox="0 0 27 20" fill="none" xmlns="http://www.w3.org/2000/svg">
<g clip-path="url(#clip0_1625_117028)">
<path fill-rule="evenodd" clip-rule="evenodd" d="M17.2796 19.44C22.6483 19.44 26.9996 15.0887 26.9996 9.72C26.9996 4.35132 22.6483 0 17.2796 0C11.9109 0 7.55957 4.35132 7.55957 9.72C7.55957 15.0887 11.9109 19.44 17.2796 19.44ZM17.2796 13.5C19.3672 13.5 21.0596 11.8076 21.0596 9.72C21.0596 7.63236 19.3672 5.94 17.2796 5.94C15.1919 5.94 13.4996 7.63236 13.4996 9.72C13.4996 11.8076 15.1919 13.5 17.2796 13.5Z" fill="#8A42F9"/>
<path d="M7.56 3.24023H0L4.03161 16.2002H7.56V3.24023Z" fill="#8A42F9"/>
</g>
<defs>
<clipPath id="clip0_1625_117028">
<rect width="27" height="20" fill="white"/>
</clipPath>
</defs>
</svg>
