<svg width="152" height="48" viewBox="0 0 152 48" fill="none" xmlns="http://www.w3.org/2000/svg">
<g clip-path="url(#clip0_1805_65127)">
<path d="M60.9025 14.2308H57.1367V11.6784H67.5736V14.2308H63.8079V24.7724H60.9008V14.2308H60.9025Z" fill="#333333"/>
<path d="M75.1992 23.2175C74.7519 23.7849 74.1869 24.2219 73.5024 24.5301C72.8196 24.8384 72.1111 24.9925 71.3771 24.9925C70.6806 24.9925 70.0251 24.8807 69.4106 24.6588C68.796 24.437 68.2617 24.1203 67.8077 23.707C67.3536 23.2937 66.9968 22.7975 66.7356 22.2182C66.4745 21.639 66.3447 20.992 66.3447 20.2773C66.3447 19.5625 66.4745 18.9155 66.7356 18.3363C66.9968 17.757 67.3536 17.2608 67.8077 16.8475C68.2617 16.4343 68.796 16.1175 69.4106 15.8957C70.0251 15.6738 70.6806 15.562 71.3771 15.562C72.0224 15.562 72.6096 15.6738 73.1388 15.8957C73.6663 16.1175 74.1135 16.4343 74.4805 16.8475C74.8475 17.2608 75.1292 17.757 75.3289 18.3363C75.5269 18.9155 75.6277 19.5625 75.6277 20.2773V21.1461H69.1409C69.2535 21.6763 69.4942 22.098 69.8681 22.413C70.2402 22.728 70.7011 22.8838 71.2474 22.8838C71.7066 22.8838 72.0958 22.7822 72.4116 22.579C72.7274 22.3757 73.0039 22.1132 73.2412 21.7931L75.1992 23.2175ZM72.8315 19.261C72.8435 18.7919 72.6881 18.3922 72.3655 18.0585C72.0429 17.7266 71.6263 17.5589 71.1159 17.5589C70.8052 17.5589 70.5321 17.608 70.2965 17.7062C70.061 17.8045 69.8578 17.9315 69.6905 18.0856C69.5233 18.2397 69.3918 18.4176 69.2996 18.6225C69.2074 18.8275 69.1528 19.0392 69.1409 19.261H72.8315Z" fill="#333333"/>
<path d="M77.3604 10.7909H80.1565V24.7706H77.3604V10.7909Z" fill="#333333"/>
<path d="M90.7431 23.2175C90.2959 23.7849 89.7309 24.2219 89.0463 24.5301C88.3635 24.8384 87.6551 24.9925 86.921 24.9925C86.2246 24.9925 85.5691 24.8807 84.9545 24.6588C84.34 24.437 83.8057 24.1203 83.3516 23.707C82.8975 23.2937 82.5408 22.7975 82.2796 22.2182C82.0184 21.639 81.8887 20.992 81.8887 20.2773C81.8887 19.5625 82.0184 18.9155 82.2796 18.3363C82.5408 17.757 82.8975 17.2608 83.3516 16.8475C83.8057 16.4343 84.34 16.1175 84.9545 15.8957C85.5691 15.6738 86.2246 15.562 86.921 15.562C87.5663 15.562 88.1535 15.6738 88.6827 15.8957C89.2102 16.1175 89.6574 16.4343 90.0245 16.8475C90.3915 17.2608 90.6731 17.757 90.8729 18.3363C91.0709 18.9155 91.1716 19.5625 91.1716 20.2773V21.1461H84.6848C84.7975 21.6763 85.0382 22.098 85.412 22.413C85.7842 22.728 86.2451 22.8838 86.7913 22.8838C87.2505 22.8838 87.6397 22.7822 87.9555 22.579C88.2713 22.3757 88.5479 22.1132 88.7852 21.7931L90.7431 23.2175ZM88.3755 19.261C88.3874 18.7919 88.2321 18.3922 87.9094 18.0585C87.5868 17.7266 87.1703 17.5589 86.6599 17.5589C86.3492 17.5589 86.0761 17.608 85.8405 17.7062C85.6049 17.8045 85.4018 17.9315 85.2345 18.0856C85.0672 18.2397 84.9358 18.4176 84.8436 18.6225C84.7514 18.8275 84.6968 19.0392 84.6848 19.261H88.3755Z" fill="#333333"/>
<path d="M96.9299 21.2765H92.3447V19.0578H96.9299V21.2765Z" fill="#333333"/>
<path d="M105.149 25.1043C104.142 25.1043 103.217 24.9282 102.372 24.5776C101.527 24.227 100.803 23.7426 100.2 23.1261C99.5979 22.5096 99.125 21.783 98.7836 20.9446C98.4422 20.1062 98.2715 19.2001 98.2715 18.2262C98.2715 17.2524 98.4422 16.3462 98.7836 15.5079C99.125 14.6695 99.5979 13.9429 100.2 13.3264C100.803 12.7099 101.527 12.2255 102.372 11.8749C103.217 11.5226 104.142 11.3481 105.149 11.3481C106.156 11.3481 107.082 11.5243 107.927 11.8749C108.772 12.2255 109.495 12.7099 110.098 13.3264C110.701 13.9429 111.173 14.6695 111.515 15.5079C111.856 16.3462 112.027 17.2524 112.027 18.2262C112.027 19.2001 111.856 20.1062 111.515 20.9446C111.173 21.783 110.701 22.5113 110.098 23.1261C109.495 23.7426 108.772 24.227 107.927 24.5776C107.082 24.9282 106.156 25.1043 105.149 25.1043ZM105.149 23.4394C105.907 23.4394 106.59 23.3005 107.199 23.0228C107.809 22.745 108.329 22.3724 108.765 21.9032C109.2 21.4341 109.535 20.8836 109.772 20.2485C110.007 19.6134 110.125 18.9393 110.125 18.2229C110.125 17.5081 110.007 16.8323 109.772 16.1972C109.536 15.5621 109.2 15.0099 108.765 14.5425C108.329 14.0733 107.807 13.7007 107.199 13.4229C106.59 13.1452 105.907 13.0063 105.149 13.0063C104.391 13.0063 103.707 13.1452 103.099 13.4229C102.49 13.7007 101.969 14.0733 101.534 14.5425C101.098 15.0116 100.764 15.5621 100.526 16.1972C100.291 16.8323 100.171 17.5064 100.171 18.2229C100.171 18.9376 100.289 19.6134 100.526 20.2485C100.762 20.8836 101.098 21.4358 101.534 21.9032C101.969 22.3724 102.49 22.745 103.099 23.0228C103.708 23.3005 104.391 23.4394 105.149 23.4394Z" fill="#333333"/>
<path d="M114.171 16.0057H115.849V17.2625H115.886C116.209 16.795 116.653 16.4309 117.22 16.1717C117.785 15.9126 118.365 15.7839 118.963 15.7839C119.645 15.7839 120.263 15.9007 120.816 16.1345C121.37 16.3682 121.841 16.6951 122.233 17.1151C122.624 17.5352 122.926 18.0246 123.138 18.5852C123.35 19.1459 123.456 19.7471 123.456 20.389C123.456 21.0428 123.35 21.6491 123.138 22.2097C122.926 22.7704 122.626 23.2581 122.233 23.6697C121.842 24.083 121.37 24.4065 120.816 24.6402C120.263 24.8739 119.645 24.9925 118.963 24.9925C118.329 24.9925 117.732 24.8604 117.174 24.5945C116.615 24.3286 116.185 23.9695 115.888 23.5122H115.851V29.9855H114.173V16.0057H114.171ZM118.756 17.337C118.309 17.337 117.904 17.4149 117.544 17.5673C117.184 17.7215 116.88 17.9315 116.631 18.1957C116.382 18.4616 116.19 18.7817 116.054 19.1577C115.917 19.5337 115.849 19.9436 115.849 20.3873C115.849 20.8311 115.917 21.241 116.054 21.617C116.19 21.993 116.383 22.3131 116.631 22.579C116.88 22.8449 117.184 23.0532 117.544 23.2073C117.904 23.3615 118.309 23.4394 118.756 23.4394C119.203 23.4394 119.608 23.3632 119.968 23.2073C120.328 23.0532 120.632 22.8432 120.881 22.579C121.131 22.3148 121.322 21.993 121.458 21.617C121.595 21.241 121.663 20.8311 121.663 20.3873C121.663 19.9436 121.595 19.5337 121.458 19.1577C121.322 18.7817 121.129 18.4616 120.881 18.1957C120.632 17.9315 120.328 17.7215 119.968 17.5673C119.606 17.4149 119.203 17.337 118.756 17.337Z" fill="#333333"/>
<path d="M130.292 17.4488H127.889V21.4256C127.889 21.6728 127.896 21.915 127.908 22.1556C127.919 22.3961 127.966 22.6112 128.047 22.8025C128.128 22.9939 128.252 23.1481 128.42 23.2649C128.587 23.3818 128.833 23.4411 129.155 23.4411C129.353 23.4411 129.558 23.4224 129.77 23.3852C129.982 23.3479 130.174 23.2802 130.347 23.1819V24.6978C130.147 24.8096 129.891 24.8858 129.574 24.9281C129.256 24.9705 129.012 24.9925 128.838 24.9925C128.191 24.9925 127.692 24.9027 127.337 24.7249C126.984 24.5471 126.723 24.315 126.556 24.0322C126.388 23.7493 126.288 23.4309 126.257 23.0803C126.226 22.728 126.211 22.374 126.211 22.0167V17.4488H124.271V16.0058H126.211V13.5465H127.889V16.0058H130.292V17.4488Z" fill="#333333"/>
<path d="M132.194 12.8623C132.194 12.5303 132.316 12.2424 132.558 12.0019C132.8 11.7614 133.089 11.6411 133.425 11.6411C133.76 11.6411 134.05 11.7614 134.292 12.0019C134.535 12.2424 134.656 12.5286 134.656 12.8623C134.656 13.1959 134.535 13.4822 134.292 13.7227C134.05 13.9632 133.761 14.0834 133.425 14.0834C133.089 14.0834 132.8 13.9632 132.558 13.7227C132.316 13.4822 132.194 13.1942 132.194 12.8623ZM132.585 16.0058H134.263V24.7706H132.585V16.0058Z" fill="#333333"/>
<path d="M143.247 18.3363C142.937 18.0162 142.611 17.7723 142.269 17.6063C141.928 17.4403 141.52 17.3573 141.049 17.3573C140.589 17.3573 140.188 17.4403 139.847 17.6063C139.505 17.7723 139.219 18.0009 138.99 18.2905C138.759 18.5802 138.585 18.9138 138.468 19.2898C138.35 19.6658 138.29 20.0571 138.29 20.4636C138.29 20.87 138.358 21.2562 138.495 21.6187C138.631 21.9828 138.824 22.2995 139.072 22.5705C139.321 22.8415 139.618 23.0549 139.966 23.209C140.315 23.3632 140.705 23.4411 141.141 23.4411C141.614 23.4411 142.016 23.3581 142.353 23.1921C142.687 23.0261 142.998 22.7822 143.285 22.4621L144.478 23.646C144.043 24.127 143.537 24.4725 142.959 24.6809C142.38 24.8892 141.769 24.9959 141.124 24.9959C140.441 24.9959 139.816 24.8841 139.251 24.6622C138.686 24.4403 138.198 24.1287 137.788 23.729C137.378 23.3293 137.061 22.8483 136.837 22.286C136.614 21.7254 136.501 21.1055 136.501 20.428C136.501 19.7505 136.614 19.1272 136.837 18.5598C137.061 17.9925 137.375 17.5064 137.778 17.0982C138.181 16.6917 138.666 16.3733 139.232 16.1463C139.797 15.9177 140.427 15.8042 141.124 15.8042C141.769 15.8042 142.389 15.9177 142.978 16.1463C143.568 16.375 144.08 16.7222 144.516 17.1913L143.247 18.3363Z" fill="#333333"/>
<path d="M150.61 18.2059C150.41 17.9586 150.166 17.752 149.874 17.586C149.582 17.42 149.225 17.337 148.802 17.337C148.404 17.337 148.059 17.42 147.768 17.586C147.476 17.752 147.329 17.9959 147.329 18.316C147.329 18.5751 147.412 18.7851 147.58 18.9443C147.747 19.1053 147.947 19.234 148.176 19.3322C148.406 19.4304 148.65 19.505 148.911 19.5541C149.172 19.6032 149.396 19.6472 149.582 19.6828C149.942 19.7692 150.28 19.8742 150.598 19.9978C150.915 20.1215 151.188 20.2807 151.417 20.4788C151.648 20.677 151.827 20.9158 151.958 21.2003C152.088 21.4849 152.155 21.8287 152.155 22.2352C152.155 22.7281 152.049 23.1515 151.837 23.5021C151.625 23.8544 151.352 24.1406 151.018 24.3625C150.681 24.5844 150.301 24.7452 149.872 24.8435C149.444 24.9417 149.012 24.9908 148.577 24.9908C147.843 24.9908 147.201 24.8791 146.648 24.6572C146.095 24.4353 145.601 24.0288 145.166 23.436L146.433 22.4012C146.706 22.6722 147.01 22.9127 147.346 23.1227C147.682 23.3327 148.092 23.4377 148.577 23.4377C148.788 23.4377 149.002 23.4157 149.22 23.3734C149.437 23.331 149.63 23.2616 149.797 23.1701C149.965 23.077 150.101 22.9601 150.207 22.8178C150.313 22.6756 150.366 22.513 150.366 22.3284C150.366 22.0811 150.287 21.8778 150.132 21.7186C149.976 21.5577 149.79 21.4324 149.572 21.3392C149.355 21.2461 149.125 21.1732 148.882 21.1174C148.64 21.0615 148.426 21.0157 148.239 20.9785C147.879 20.8921 147.537 20.7939 147.213 20.6821C146.89 20.5703 146.603 20.4229 146.356 20.2383C146.107 20.0537 145.909 19.82 145.76 19.5355C145.612 19.2526 145.536 18.9003 145.536 18.482C145.536 18.0264 145.632 17.6284 145.825 17.2896C146.018 16.9509 146.272 16.6697 146.59 16.4478C146.907 16.226 147.267 16.06 147.67 15.9482C148.073 15.8364 148.481 15.7822 148.891 15.7822C149.487 15.7822 150.058 15.894 150.605 16.1142C151.151 16.3361 151.586 16.7053 151.909 17.2236L150.61 18.2059Z" fill="#333333"/>
<path d="M57.9785 32.8936H58.7159L59.6377 35.6475L60.5681 32.8936H61.3055L61.973 36.8416H61.2406L60.8139 34.3484L59.9689 36.8416H59.3014L58.4633 34.3484L58.0263 36.8416H57.2871L57.9785 32.8936Z" fill="#5499D1"/>
<path d="M63.7927 32.8936H64.5609L66.0921 36.8416H65.3051L64.9945 36.0286H63.3711L63.0467 36.8416H62.2598L63.7927 32.8936ZM64.1802 33.9403L63.6459 35.2952H64.7111L64.1802 33.9403Z" fill="#5499D1"/>
<path d="M66.6738 32.8936H68.6489V33.6286H67.4266V36.8416H66.6738V32.8936Z" fill="#5499D1"/>
<path d="M70.4548 32.8936H71.223L72.7542 36.8416H71.9672L71.6566 36.0286H70.0332L69.7088 36.8416H68.9219L70.4548 32.8936ZM70.844 33.9403L70.3097 35.2952H71.3749L70.844 33.9403Z" fill="#5499D1"/>
<path d="M73.5284 35.8135C73.7298 36.0913 73.9637 36.2301 74.2334 36.2301C74.4127 36.2301 74.5577 36.1793 74.667 36.0794C74.7762 35.9795 74.8326 35.8457 74.8326 35.6797C74.8326 35.5171 74.7797 35.3816 74.6721 35.2749C74.5646 35.1682 74.3427 35.114 74.0047 35.114H73.8425V34.4433H74.0047C74.2044 34.4433 74.3563 34.3976 74.4604 34.3061C74.5646 34.2146 74.6158 34.0927 74.6158 33.9386C74.6158 33.798 74.5731 33.6845 74.4861 33.6032C74.399 33.5219 74.2846 33.4796 74.1412 33.4796C73.9705 33.4796 73.7964 33.5626 73.6172 33.7286L73.1699 33.234C73.4106 33.0189 73.6103 32.8902 73.7708 32.8495C73.9313 32.8072 74.0798 32.7869 74.2146 32.7869C74.5407 32.7869 74.8121 32.88 75.034 33.068C75.2559 33.256 75.3652 33.5101 75.3652 33.8285C75.3652 33.9691 75.3396 34.1079 75.2901 34.2417C75.2406 34.3755 75.1023 34.5178 74.8753 34.6686C75.3413 34.8735 75.5734 35.2258 75.5734 35.7237C75.5734 36.0913 75.4488 36.386 75.2013 36.6078C74.9538 36.8314 74.6346 36.9415 74.2437 36.9415C73.9978 36.9415 73.7776 36.8975 73.583 36.8094C73.3884 36.7213 73.175 36.5299 72.9463 36.2369L73.5284 35.8135Z" fill="#5499D1"/>
<path d="M79.1971 32.8936V36.8416H78.4392V34.3688L76.9558 36.8416H76.2969V32.8936H77.0548V35.446L78.5587 32.8936H79.1971Z" fill="#5499D1"/>
<path d="M80.1035 32.8936H80.8717V34.3823H82.1998V32.8936H82.9662V36.8416H82.1998V35.1106H80.8717V36.8416H80.1035V32.8936Z" fill="#5499D1"/>
<path d="M87.3036 32.7936C87.8669 32.7936 88.35 32.9952 88.7563 33.4C89.1608 33.8048 89.364 34.2976 89.364 34.8786C89.364 35.4544 89.1642 35.9422 88.7648 36.3419C88.3653 36.7416 87.8805 36.9398 87.3104 36.9398C86.7129 36.9398 86.2162 36.7349 85.8218 36.325C85.4258 35.9151 85.2295 35.429 85.2295 34.865C85.2295 34.4873 85.3217 34.1401 85.506 33.8234C85.6904 33.5067 85.943 33.256 86.2657 33.0697C86.5849 32.8868 86.9314 32.7936 87.3036 32.7936ZM87.295 33.5287C86.9263 33.5287 86.6173 33.6557 86.3664 33.9098C86.1154 34.1638 85.9891 34.4873 85.9891 34.8786C85.9891 35.3155 86.1479 35.6611 86.4637 35.9151C86.7095 36.1133 86.9912 36.2132 87.3087 36.2132C87.6672 36.2132 87.9744 36.0845 88.2271 35.8271C88.4797 35.5696 88.606 35.2512 88.606 34.8735C88.606 34.4975 88.478 34.1791 88.2237 33.92C87.9693 33.6608 87.6603 33.5287 87.295 33.5287Z" fill="#5499D1"/>
<path d="M90.0762 32.8936H92.9389V36.8416H92.1724V33.5964H90.8443V36.8416H90.0762V32.8936Z" fill="#5499D1"/>
<path d="M93.4539 32.8936H95.6525V33.6337H94.927V36.8416H94.1589V33.6337H93.4521V32.8936H93.4539Z" fill="#5499D1"/>
<path d="M99.0702 32.8936V36.8416H98.3123V34.3688L96.8289 36.8416H96.1699V32.8936H96.9279V35.446L98.4318 32.8936H99.0702Z" fill="#5499D1"/>
<path d="M101.722 35.1106H101.468C101.102 35.1106 100.831 35.092 100.657 35.0547C100.483 35.0174 100.315 34.9378 100.158 34.8142C99.9995 34.6923 99.8885 34.5432 99.8219 34.3688C99.757 34.1943 99.7246 33.964 99.7246 33.676V32.8936H100.493V33.6642C100.493 33.9318 100.542 34.1198 100.64 34.2248C100.737 34.3298 100.945 34.3823 101.263 34.3823H101.722V32.8936H102.485V36.8416H101.722V35.1106Z" fill="#5499D1"/>
<path d="M103.396 32.8936H105.57V33.6286H104.149V34.3434H105.57V35.0649H104.149V36.1031H105.57V36.8416H103.396V32.8936Z" fill="#5499D1"/>
<path d="M109.933 33.5863L109.403 34.0876C109.043 33.7099 108.637 33.5203 108.186 33.5203C107.806 33.5203 107.486 33.649 107.225 33.9064C106.964 34.1638 106.834 34.4823 106.834 34.86C106.834 35.1225 106.892 35.3579 107.007 35.5612C107.123 35.7661 107.285 35.9253 107.497 36.0422C107.708 36.159 107.942 36.2166 108.2 36.2166C108.42 36.2166 108.62 36.176 108.803 36.0947C108.985 36.0134 109.185 35.8643 109.403 35.6492L109.917 36.181C109.624 36.4656 109.345 36.6637 109.084 36.7738C108.823 36.8839 108.524 36.9381 108.188 36.9381C107.57 36.9381 107.063 36.7433 106.669 36.3538C106.274 35.9642 106.078 35.4663 106.078 34.8566C106.078 34.4636 106.169 34.113 106.348 33.8065C106.527 33.4999 106.785 33.2543 107.119 33.068C107.454 32.8817 107.814 32.7886 108.2 32.7886C108.528 32.7886 108.844 32.858 109.147 32.9952C109.451 33.1375 109.712 33.3339 109.933 33.5863Z" fill="#5499D1"/>
<path d="M110.602 32.8936H111.368V34.2553L112.449 32.8936H113.358L111.969 34.655L113.493 36.8416H112.595L111.368 35.0869V36.8416H110.602V32.8936Z" fill="#5499D1"/>
<path d="M116.93 32.8936V36.8416H116.172V34.3688L114.688 36.8416H114.029V32.8936H114.787V35.446L116.291 32.8936H116.93Z" fill="#5499D1"/>
<path d="M117.58 32.8936H118.432L119.268 34.1604L120.106 32.8936H120.958L119.695 34.8074L121.037 36.8416H120.185L119.268 35.4527L118.353 36.8416H117.496L118.843 34.8057L117.58 32.8936Z" fill="#5499D1"/>
<path d="M123.153 32.8936H126.016V36.8416H125.25V33.5964H123.921V36.8416H123.153V32.8936Z" fill="#5499D1"/>
<path d="M126.923 32.8936H127.727C128.162 32.8936 128.474 32.9325 128.667 33.0138C128.858 33.0934 129.01 33.2221 129.121 33.4C129.232 33.5778 129.287 33.7912 129.287 34.0402C129.287 34.3163 129.213 34.5449 129.068 34.7278C128.923 34.9107 128.727 35.0378 128.478 35.1089C128.331 35.1496 128.065 35.1716 127.679 35.1716V36.8432H126.921V32.8936H126.923ZM127.681 34.4365H127.921C128.111 34.4365 128.242 34.423 128.316 34.3959C128.389 34.3688 128.447 34.3247 128.49 34.2621C128.532 34.1994 128.553 34.1249 128.553 34.0368C128.553 33.8844 128.493 33.7726 128.374 33.7031C128.287 33.6506 128.126 33.6252 127.892 33.6252H127.679V34.4365H127.681Z" fill="#5499D1"/>
<path d="M132.927 32.8936V36.8416H132.169V34.3688L130.685 36.8416H130.026V32.8936H130.784V35.446L132.288 32.8936H132.927Z" fill="#5499D1"/>
<path d="M133.833 36.8416V32.8936H135.914V33.6269H134.591V34.384H134.757C135.093 34.384 135.366 34.4213 135.579 34.4941C135.793 34.5669 135.969 34.7058 136.11 34.909C136.252 35.1123 136.322 35.3528 136.322 35.6306C136.322 35.9066 136.269 36.1251 136.161 36.2894C136.054 36.4537 135.909 36.5858 135.721 36.6891C135.533 36.7924 135.275 36.8432 134.946 36.8432H133.833V36.8416ZM134.591 35.0547V36.1251H134.78C135.127 36.1251 135.345 36.0811 135.438 35.9913C135.53 35.9016 135.576 35.7813 135.576 35.6289C135.576 35.2461 135.299 35.0547 134.748 35.0547H134.591Z" fill="#5499D1"/>
<path d="M138.865 32.7936C139.428 32.7936 139.911 32.9952 140.318 33.4C140.722 33.8048 140.925 34.2976 140.925 34.8786C140.925 35.4544 140.726 35.9422 140.326 36.3419C139.927 36.7416 139.442 36.9398 138.872 36.9398C138.274 36.9398 137.778 36.7349 137.383 36.325C136.987 35.9151 136.791 35.429 136.791 34.865C136.791 34.4873 136.883 34.1401 137.068 33.8234C137.252 33.5067 137.505 33.256 137.827 33.0697C138.146 32.8868 138.495 32.7936 138.865 32.7936ZM138.858 33.5287C138.49 33.5287 138.181 33.6557 137.93 33.9098C137.679 34.1638 137.552 34.4873 137.552 34.8786C137.552 35.3155 137.711 35.6611 138.027 35.9151C138.273 36.1133 138.554 36.2132 138.872 36.2132C139.23 36.2132 139.538 36.0845 139.79 35.8271C140.043 35.5696 140.169 35.2512 140.169 34.8735C140.169 34.4975 140.041 34.1791 139.787 33.92C139.533 33.6608 139.222 33.5287 138.858 33.5287Z" fill="#5499D1"/>
<path d="M141.637 32.8936H142.441C142.877 32.8936 143.189 32.9325 143.382 33.0138C143.573 33.0934 143.725 33.2221 143.836 33.4C143.947 33.5778 144.002 33.7912 144.002 34.0402C144.002 34.3163 143.928 34.5449 143.783 34.7278C143.638 34.9107 143.442 35.0378 143.193 35.1089C143.046 35.1496 142.779 35.1716 142.394 35.1716V36.8432H141.636V32.8936H141.637ZM142.395 34.4365H142.636C142.826 34.4365 142.957 34.423 143.03 34.3959C143.104 34.3688 143.162 34.3247 143.205 34.2621C143.247 34.1994 143.268 34.1249 143.268 34.0368C143.268 33.8844 143.208 33.7726 143.088 33.7031C143.001 33.6506 142.841 33.6252 142.607 33.6252H142.394V34.4365H142.395Z" fill="#5499D1"/>
<path d="M146.622 32.7936C147.185 32.7936 147.668 32.9952 148.075 33.4C148.479 33.8048 148.682 34.2976 148.682 34.8786C148.682 35.4544 148.483 35.9422 148.083 36.3419C147.684 36.7416 147.199 36.9398 146.629 36.9398C146.031 36.9398 145.535 36.7349 145.14 36.325C144.744 35.9151 144.548 35.429 144.548 34.865C144.548 34.4873 144.64 34.1401 144.824 33.8234C145.009 33.5067 145.261 33.256 145.584 33.0697C145.903 32.8868 146.25 32.7936 146.622 32.7936ZM146.613 33.5287C146.245 33.5287 145.936 33.6557 145.685 33.9098C145.434 34.1638 145.307 34.4873 145.307 34.8786C145.307 35.3155 145.466 35.6611 145.782 35.9151C146.028 36.1133 146.31 36.2132 146.627 36.2132C146.986 36.2132 147.293 36.0845 147.545 35.8271C147.798 35.5696 147.924 35.2512 147.924 34.8735C147.924 34.4975 147.796 34.1791 147.542 33.92C147.288 33.6608 146.979 33.5287 146.613 33.5287Z" fill="#5499D1"/>
<path d="M149.396 36.8416V32.8936H150.022C150.386 32.8936 150.65 32.9173 150.819 32.963C151.058 33.0257 151.248 33.1425 151.388 33.3119C151.529 33.4813 151.599 33.6828 151.599 33.9132C151.599 34.0639 151.567 34.1994 151.504 34.323C151.439 34.445 151.336 34.5601 151.191 34.6685C151.434 34.782 151.61 34.9226 151.722 35.092C151.835 35.2613 151.89 35.4612 151.89 35.6915C151.89 35.9134 151.831 36.115 151.715 36.2979C151.599 36.4808 151.451 36.6163 151.268 36.7078C151.085 36.7975 150.835 36.8432 150.512 36.8432H149.396V36.8416ZM150.153 33.61V34.4416H150.319C150.503 34.4416 150.642 34.4026 150.73 34.3264C150.821 34.2502 150.865 34.1452 150.865 34.0131C150.865 33.8894 150.823 33.7912 150.737 33.7184C150.652 33.6456 150.522 33.61 150.348 33.61H150.153ZM150.153 35.1123V36.1234H150.343C150.657 36.1234 150.869 36.0845 150.98 36.0049C151.089 35.927 151.144 35.8118 151.144 35.661C151.144 35.4917 151.079 35.3562 150.951 35.2579C150.823 35.1597 150.609 35.1106 150.31 35.1106H150.153V35.1123Z" fill="#5499D1"/>
<path d="M11.463 35.9761C12.5774 35.9761 13.4808 35.0798 13.4808 33.9741C13.4808 32.8685 12.5774 31.9722 11.463 31.9722C10.3487 31.9722 9.44531 32.8685 9.44531 33.9741C9.44531 35.0798 10.3487 35.9761 11.463 35.9761Z" fill="#F9E585"/>
<path d="M42.4154 35.1004C34.2182 43.2336 21.0022 43.3504 12.6599 35.451C12.3048 35.6458 11.8968 35.7576 11.4632 35.7576C10.0959 35.7576 8.98799 34.6584 8.98799 33.3017C8.98799 32.7123 9.19795 32.172 9.54619 31.7486C7.636 28.866 6.51277 25.6208 6.17477 22.3114C6.02455 22.3622 5.86238 22.391 5.69338 22.391C4.87058 22.391 4.20313 21.7287 4.20313 20.9124C4.20313 20.096 4.87058 19.4338 5.69338 19.4338C5.82483 19.4338 5.95285 19.4524 6.07406 19.4846C6.23964 14.3053 8.31541 9.17507 12.2997 5.22199C13.8497 3.68412 15.5772 2.43417 17.4191 1.47046C13.6226 2.5341 10.0395 4.5479 7.05219 7.51186C-2.27 16.7611 -2.27 31.7571 7.05219 41.008C16.3744 50.259 31.4886 50.2573 40.8125 41.008C44.9214 36.9313 47.2191 31.7385 47.7056 26.4118C46.7155 29.5875 44.9538 32.5836 42.4154 35.1004Z" fill="#F9E585"/>
<path d="M5.69347 22.4519C6.35153 22.4519 6.88499 21.9226 6.88499 21.2697C6.88499 20.6168 6.35153 20.0875 5.69347 20.0875C5.03541 20.0875 4.50195 20.6168 4.50195 21.2697C4.50195 21.9226 5.03541 22.4519 5.69347 22.4519Z" fill="#F9E585"/>
<path d="M47.7036 5.44897C47.9204 6.86998 49.0454 7.98613 50.4776 8.20123C49.0454 8.41633 47.9204 9.53247 47.7036 10.9535C47.4868 9.53247 46.3619 8.41633 44.9297 8.20123C46.3619 7.98782 47.4868 6.87168 47.7036 5.44897Z" fill="#F9E585"/>
<path d="M18.6344 7.40179C18.7453 8.12839 19.3206 8.69916 20.0529 8.80925C19.3206 8.91934 18.7453 9.49012 18.6344 10.2167C18.5234 9.49012 17.9481 8.91934 17.2158 8.80925C17.9481 8.70086 18.5234 8.13008 18.6344 7.40179Z" fill="#F9E585"/>
<path d="M4.25449 0.0596313C4.36545 0.786226 4.94073 1.357 5.67305 1.46709C4.94073 1.57718 4.36545 2.14795 4.25449 2.87455C4.14354 2.14795 3.56826 1.57718 2.83594 1.46709C3.56826 1.357 4.14183 0.786226 4.25449 0.0596313Z" fill="#F9E585"/>
<path d="M48.8531 38.6522C49.0665 40.0495 50.171 41.1453 51.5793 41.357C50.171 41.5687 49.0665 42.6645 48.8531 44.0618C48.6397 42.6645 47.5353 41.5687 46.127 41.357C47.5353 41.1453 48.6397 40.0495 48.8531 38.6522Z" fill="#F9E585"/>
<path d="M47.7038 16.9644C47.8267 17.7706 48.4651 18.4041 49.2777 18.526C48.4651 18.6479 47.8267 19.2814 47.7038 20.0876C47.5809 19.2814 46.9424 18.6479 46.1299 18.526C46.9424 18.4024 47.5809 17.7706 47.7038 16.9644Z" fill="#F9E585"/>
<path d="M43.7862 19.2576L40.9405 11.0568C40.8825 10.8891 40.6964 10.7993 40.5274 10.8569L39.5015 11.2075C39.3956 11.2431 39.3222 11.3278 39.2932 11.4277L32.0621 13.8988L31.4971 12.2712L33.8665 11.4616C33.9467 11.5801 34.1004 11.6377 34.242 11.5886L35.2424 11.2465C35.4114 11.1889 35.5018 11.0043 35.4438 10.8366L34.6056 8.42139C34.5476 8.25372 34.3615 8.16395 34.1925 8.22154L33.1939 8.56366C33.0249 8.62125 32.9344 8.80586 32.9925 8.97354L28.3783 10.5504C28.264 10.5893 28.1871 10.6876 28.1667 10.7976C28.153 10.801 28.1376 10.8027 28.124 10.8078L26.0482 11.5175C25.8792 11.575 25.7887 11.7597 25.8468 11.9273L26.3947 13.5042C26.4528 13.6718 26.6388 13.7616 26.8078 13.704L28.8836 12.9944C28.8973 12.9893 28.9109 12.9825 28.9229 12.9757C29.0082 13.0503 29.1294 13.0807 29.2438 13.0418L29.3718 12.9978L29.9369 14.6254L25.7597 16.0532C25.3364 16.1971 25.1093 16.6595 25.2561 17.0796L25.379 17.4352L23.8154 17.9687L14.9029 21.014C14.5188 21.1461 14.3122 21.5645 14.4454 21.9472L14.7714 22.8889L14.7749 22.9008L14.3208 23.0566L8.14638 25.1653C8.0542 25.1229 7.94495 25.1128 7.84253 25.1483L6.51103 25.6039L6.0928 24.3963C6.05013 24.2727 5.94258 24.1897 5.81968 24.1677C5.81968 24.1626 5.81797 24.1592 5.81626 24.1541C5.84357 24.1338 5.85894 24.1152 5.85211 24.0999C5.84699 24.0864 5.8265 24.0796 5.79578 24.0796L5.76334 23.9864C5.78724 23.9678 5.8009 23.9492 5.79578 23.9356C5.79066 23.9221 5.76846 23.9153 5.73774 23.9153L5.47997 23.1701C5.4151 22.9821 5.21367 22.8957 5.03102 22.977L4.96957 23.0041C4.78862 23.0854 4.48135 23.1904 4.28675 23.2378L4.21505 23.2548C4.02045 23.3022 3.91632 23.4936 3.98118 23.6816L4.24066 24.4285C4.22017 24.4454 4.20993 24.4624 4.21334 24.4742C4.21846 24.4861 4.23724 24.4928 4.26285 24.4928L4.29699 24.5928C4.2765 24.6097 4.26455 24.6267 4.26968 24.6385C4.2748 24.6521 4.29528 24.6588 4.3243 24.6588C4.32601 24.6639 4.32772 24.669 4.33113 24.6724C4.24919 24.7638 4.21505 24.896 4.25773 25.0196L4.67766 26.2272C4.67766 26.2289 4.67937 26.2289 4.67937 26.2306C4.48476 26.3119 4.38234 26.5321 4.45233 26.7336L5.30756 29.1979C5.38096 29.408 5.61312 29.5214 5.8265 29.4486L8.96406 28.3765C9.06819 28.3409 9.14672 28.2681 9.19281 28.1766L15.3672 26.0663L15.8213 25.9105L16.1524 26.864C16.2856 27.2451 16.7072 27.45 17.093 27.3179L21.557 25.7919V27.76H19.7697C19.5443 27.76 19.3617 27.9429 19.3617 28.1648V28.7525C19.3617 28.9761 19.5443 29.1573 19.7697 29.1573H21.8813L16.7158 42.5629C16.7089 42.5798 16.7055 42.5967 16.7021 42.612L14.6502 47.9353H16.1746L21.0824 35.2072L21.0739 35.2038L23.1223 29.8873V34.4772V38.9587V47.9336H24.546V34.484H24.5443V29.9601L29.5955 43.0727C29.6074 43.1032 29.6245 43.1286 29.645 43.1506L31.492 47.942H33.0164L27.914 34.7075L27.8969 34.7143L25.758 29.1624H27.8952C28.1206 29.1624 28.3032 28.9795 28.3032 28.7576V28.1699C28.3032 27.9463 28.1189 27.7651 27.8952 27.7651H26.2104V24.2032L27.04 23.9204L27.4821 23.7696L27.5658 23.7408L27.5624 23.7324L27.6887 24.0965C27.8338 24.5166 28.2998 24.7418 28.7231 24.5962L42.2583 19.9707C42.342 20.0317 42.4529 20.0537 42.5588 20.0181L43.5847 19.6675C43.7537 19.6099 43.8442 19.4253 43.7862 19.2576Z" fill="#5499D1"/>
</g>
<defs>
<clipPath id="clip0_1805_65127">
<rect width="152" height="48" fill="white"/>
</clipPath>
</defs>
</svg>
