<svg width="25" height="20" viewBox="0 0 25 20" fill="none" xmlns="http://www.w3.org/2000/svg">
<g clip-path="url(#clip0_405_38430)">
<path d="M15.7163 14.3616H9.09473V2.24512H15.7163V14.3616Z" fill="#6C6BBD"/>
<path d="M24.4148 13.0762V12.7773H24.3383L24.2498 12.9827L24.1617 12.7773H24.0848V13.0762H24.1392V12.8509L24.2219 13.0453H24.2783L24.361 12.8503V13.0762H24.4148ZM23.9294 13.0762V12.8283H24.0275V12.7779H23.7773V12.8283H23.8755V13.0762H23.9294Z" fill="#0099DF"/>
<path d="M21.1049 19.7275V19.778H21.1506C21.1607 19.778 21.1694 19.7755 21.1752 19.7716C21.1814 19.7677 21.1848 19.7608 21.1848 19.7525C21.1848 19.7442 21.1814 19.7378 21.1752 19.7339C21.1694 19.7294 21.1607 19.7275 21.1506 19.7275H21.1049ZM21.1511 19.6922C21.1746 19.6922 21.193 19.6977 21.2059 19.7084C21.219 19.7192 21.2252 19.7339 21.2252 19.7525C21.2252 19.7682 21.2204 19.7809 21.2098 19.7912C21.1997 19.801 21.1848 19.8074 21.166 19.8098L21.2266 19.8808H21.1795L21.1232 19.8103H21.1049V19.8808H21.0655V19.6922H21.1511ZM21.139 19.9455C21.1607 19.9455 21.1809 19.9416 21.1992 19.9333C21.218 19.925 21.2343 19.9137 21.2483 19.8994C21.2622 19.8853 21.2733 19.8686 21.2815 19.849C21.2892 19.8299 21.2935 19.8094 21.2935 19.7873C21.2935 19.7652 21.2892 19.7447 21.2815 19.7256C21.2733 19.7064 21.2622 19.6893 21.2483 19.6751C21.2343 19.6609 21.218 19.6496 21.1992 19.6418C21.1809 19.6334 21.1607 19.6295 21.139 19.6295C21.1174 19.6295 21.0967 19.6334 21.078 19.6418C21.0587 19.6496 21.0418 19.6609 21.0279 19.6751C21.014 19.6893 21.0029 19.7064 20.9952 19.7256C20.987 19.7447 20.9832 19.7652 20.9832 19.7873C20.9832 19.8094 20.987 19.8299 20.9952 19.849C21.0029 19.8686 21.014 19.8853 21.0279 19.8994C21.0418 19.9137 21.0587 19.925 21.078 19.9333C21.0967 19.9416 21.1174 19.9455 21.139 19.9455ZM21.139 19.584C21.1674 19.584 21.1934 19.5894 21.218 19.6001C21.243 19.6104 21.2642 19.6251 21.2829 19.6438C21.3012 19.6619 21.3156 19.6834 21.3262 19.7084C21.3368 19.7329 21.3421 19.7594 21.3421 19.7873C21.3421 19.8152 21.3368 19.8417 21.3262 19.8661C21.3156 19.8907 21.3012 19.9122 21.2829 19.9304C21.2642 19.949 21.243 19.9637 21.218 19.9744C21.1934 19.9852 21.1674 19.9906 21.139 19.9906C21.1102 19.9906 21.0837 19.9852 21.0587 19.9744C21.0337 19.9637 21.0121 19.949 20.9937 19.9304C20.9755 19.9122 20.961 19.8907 20.9505 19.8661C20.9399 19.8417 20.9346 19.8152 20.9346 19.7873C20.9346 19.7594 20.9399 19.7329 20.9505 19.7084C20.961 19.6834 20.9755 19.6619 20.9937 19.6438C21.0121 19.6251 21.0337 19.6104 21.0587 19.6001C21.0837 19.5894 21.1102 19.584 21.139 19.584Z" fill="#231F20"/>
<path d="M17.948 17.7831C18.036 17.7831 18.1625 17.8003 18.2592 17.8389L18.1245 18.2583C18.0321 18.2196 17.9398 18.2069 17.8512 18.2069C17.5654 18.2069 17.4225 18.395 17.4225 18.733V19.8804H16.9852V17.8346H17.4182V18.0829C17.5317 17.9032 17.6958 17.7831 17.948 17.7831ZM16.3322 18.2412H15.6177V19.1656C15.6177 19.3709 15.6889 19.5081 15.9078 19.5081C16.0214 19.5081 16.1642 19.4694 16.2942 19.3925L16.4202 19.7732C16.2817 19.8716 16.0632 19.9319 15.8741 19.9319C15.3569 19.9319 15.1764 19.6492 15.1764 19.1739V18.2412H14.7684V17.8346H15.1764V17.2139H15.6177V17.8346H16.3322V18.2412ZM10.7367 18.6777C10.7834 18.3823 10.9595 18.1809 11.2708 18.1809C11.5523 18.1809 11.7332 18.3607 11.7794 18.6777H10.7367ZM12.2336 18.8575C12.2293 18.2196 11.8424 17.7831 11.279 17.7831C10.6905 17.7831 10.2786 18.2196 10.2786 18.8575C10.2786 19.5076 10.7074 19.9314 11.3088 19.9314C11.6114 19.9314 11.8886 19.8545 12.1326 19.6448L11.918 19.3151C11.7501 19.4523 11.5355 19.5292 11.3339 19.5292C11.0524 19.5292 10.7959 19.3964 10.7329 19.0285H12.2249C12.2293 18.9726 12.2336 18.9173 12.2336 18.8575ZM14.1544 18.3568C14.0327 18.2794 13.7849 18.1809 13.5284 18.1809C13.2888 18.1809 13.1459 18.2711 13.1459 18.421C13.1459 18.5576 13.297 18.5964 13.4861 18.6219L13.692 18.6517C14.1294 18.7164 14.394 18.9046 14.394 19.2641C14.394 19.6536 14.0577 19.9319 13.4779 19.9319C13.1498 19.9319 12.8471 19.8462 12.6075 19.6663L12.8134 19.3195C12.9607 19.4351 13.1796 19.5336 13.4823 19.5336C13.7805 19.5336 13.9403 19.4439 13.9403 19.2852C13.9403 19.1701 13.8267 19.1054 13.5871 19.0716L13.3812 19.0417C12.9313 18.977 12.6874 18.7718 12.6874 18.4381C12.6874 18.0315 13.0155 17.7831 13.5241 17.7831C13.8436 17.7831 14.1337 17.8561 14.3436 17.9972L14.1544 18.3568ZM19.5459 18.2059C19.4559 18.2059 19.3727 18.2221 19.2952 18.2539C19.2182 18.2863 19.1513 18.3313 19.095 18.3892C19.0387 18.4469 18.9945 18.5165 18.9622 18.5973C18.93 18.6782 18.9141 18.7673 18.9141 18.8643C18.9141 18.9619 18.93 19.0506 18.9622 19.1313C18.9945 19.2122 19.0387 19.2818 19.095 19.3396C19.1513 19.3974 19.2182 19.4425 19.2952 19.4748C19.3727 19.5071 19.4559 19.5228 19.5459 19.5228C19.6358 19.5228 19.7195 19.5071 19.7966 19.4748C19.874 19.4425 19.9414 19.3974 19.9977 19.3396C20.0549 19.2818 20.0992 19.2122 20.132 19.1313C20.1642 19.0506 20.1801 18.9619 20.1801 18.8643C20.1801 18.7673 20.1642 18.6782 20.132 18.5973C20.0992 18.5165 20.0549 18.4469 19.9977 18.3892C19.9414 18.3313 19.874 18.2863 19.7966 18.2539C19.7195 18.2221 19.6358 18.2059 19.5459 18.2059ZM19.5459 17.7831C19.7017 17.7831 19.8461 17.8106 19.9789 17.8659C20.1117 17.9208 20.2267 17.9967 20.3234 18.0933C20.4206 18.1897 20.4962 18.3039 20.5511 18.4352C20.6059 18.5669 20.6333 18.71 20.6333 18.8643C20.6333 19.0187 20.6059 19.1617 20.5511 19.2935C20.4962 19.4248 20.4206 19.5395 20.3234 19.6359C20.2267 19.7325 20.1117 19.8079 19.9789 19.8633C19.8461 19.9182 19.7017 19.9456 19.5459 19.9456C19.39 19.9456 19.2456 19.9182 19.1128 19.8633C18.98 19.8079 18.866 19.7325 18.7698 19.6359C18.6736 19.5395 18.598 19.4248 18.5431 19.2935C18.4883 19.1617 18.4608 19.0187 18.4608 18.8643C18.4608 18.71 18.4883 18.5669 18.5431 18.4352C18.598 18.3039 18.6736 18.1897 18.7698 18.0933C18.866 17.9967 18.98 17.9208 19.1128 17.8659C19.2456 17.8106 19.39 17.7831 19.5459 17.7831ZM8.18266 18.8575C8.18266 18.4979 8.41417 18.2025 8.79235 18.2025C9.15372 18.2025 9.39766 18.4852 9.39766 18.8575C9.39766 19.2299 9.15372 19.512 8.79235 19.512C8.41417 19.512 8.18266 19.2171 8.18266 18.8575ZM9.80955 18.8575V17.8346H9.37258V18.0829C9.23356 17.8987 9.02379 17.7831 8.73796 17.7831C8.17455 17.7831 7.73326 18.2323 7.73326 18.8575C7.73326 19.4821 8.17455 19.9319 8.73796 19.9319C9.02379 19.9319 9.23356 19.8163 9.37258 19.632V19.8804H9.80955V18.8575ZM7.34643 19.8804V18.5964C7.34643 18.1128 7.04378 17.7876 6.55636 17.7831C6.2999 17.7787 6.03478 17.86 5.85 18.1471C5.71143 17.9203 5.4925 17.7831 5.18552 17.7831C4.9714 17.7831 4.76113 17.8473 4.59705 18.0869V17.8346H4.16016V19.8804H4.60138V18.7463C4.60138 18.3911 4.79482 18.2025 5.09313 18.2025C5.38328 18.2025 5.53051 18.395 5.53051 18.7419V19.8804H5.97174V18.7463C5.97174 18.3911 6.17383 18.2025 6.46349 18.2025C6.76229 18.2025 6.9052 18.395 6.9052 18.7419V19.8804H7.34643Z" fill="#9A9C9E"/>
<path d="M24.6461 8.30253C24.6461 12.5584 21.2581 16.0084 17.0787 16.0084C15.3133 16.0084 13.6889 15.3925 12.4014 14.3608C14.1619 12.9498 15.2922 10.7605 15.2922 8.30253C15.2922 5.84463 14.1619 3.65521 12.4014 2.24426C13.6889 1.2125 15.3133 0.59668 17.0787 0.59668C21.2581 0.59668 24.6461 4.04665 24.6461 8.30253Z" fill="#0099DF"/>
<path d="M9.51789 8.30253C9.51789 5.84463 10.6482 3.65521 12.4083 2.24426C11.1212 1.2125 9.49676 0.59668 7.7313 0.59668C3.55194 0.59668 0.164062 4.04665 0.164062 8.30253C0.164062 12.5584 3.55194 16.0084 7.7313 16.0084C9.49676 16.0084 11.1212 15.3925 12.4083 14.3608C10.6482 12.9498 9.51789 10.7605 9.51789 8.30253Z" fill="#EB001B"/>
</g>
<defs>
<clipPath id="clip0_405_38430">
<rect width="25" height="20" fill="white"/>
</clipPath>
</defs>
</svg>
