<svg width="26" height="20" viewBox="0 0 26 20" fill="none" xmlns="http://www.w3.org/2000/svg">
<g clip-path="url(#clip0_405_38423)">
<path d="M25.4688 19.7291V19.7811H25.5173C25.5281 19.7811 25.5373 19.7787 25.5439 19.7746C25.55 19.7706 25.5536 19.7635 25.5536 19.7549C25.5536 19.7463 25.55 19.7398 25.5439 19.7357C25.5373 19.7311 25.5281 19.7291 25.5173 19.7291H25.4688ZM25.5178 19.6928C25.5429 19.6928 25.5623 19.6983 25.5761 19.7095C25.5899 19.7205 25.5965 19.7357 25.5965 19.7549C25.5965 19.7711 25.5914 19.7842 25.5802 19.7948C25.5694 19.8049 25.5541 19.8115 25.5337 19.814L25.5981 19.8873H25.548L25.4882 19.8145H25.4688V19.8873H25.4269V19.6928H25.5178ZM25.5051 19.9545C25.5281 19.9545 25.5495 19.9499 25.5689 19.9414C25.5889 19.9328 25.6062 19.9211 25.621 19.9065C25.6359 19.8918 25.6477 19.8747 25.6563 19.8545C25.6645 19.8348 25.6691 19.8135 25.6691 19.7908C25.6691 19.7681 25.6645 19.7468 25.6563 19.7271C25.6477 19.7075 25.6359 19.6898 25.621 19.6751C25.6062 19.6605 25.5889 19.6488 25.5689 19.6402C25.5495 19.6321 25.5281 19.6281 25.5051 19.6281C25.482 19.6281 25.4601 19.6321 25.4402 19.6402C25.4197 19.6488 25.4018 19.6605 25.387 19.6751C25.3722 19.6898 25.3605 19.7075 25.3523 19.7271C25.3436 19.7468 25.3395 19.7681 25.3395 19.7908C25.3395 19.8135 25.3436 19.8348 25.3523 19.8545C25.3605 19.8747 25.3722 19.8918 25.387 19.9065C25.4018 19.9211 25.4197 19.9328 25.4402 19.9414C25.4601 19.9499 25.482 19.9545 25.5051 19.9545ZM25.5051 19.5811C25.5352 19.5811 25.5628 19.5867 25.5894 19.5978C25.6154 19.6084 25.638 19.6235 25.6578 19.6428C25.6773 19.6615 25.6926 19.6837 25.7038 19.7095C25.7151 19.7347 25.7207 19.762 25.7207 19.7908C25.7207 19.8196 25.7151 19.8468 25.7038 19.8721C25.6926 19.8974 25.6773 19.9196 25.6578 19.9388C25.638 19.9575 25.6154 19.9727 25.5894 19.9838C25.5628 19.9949 25.5352 20.0005 25.5051 20.0005C25.4744 20.0005 25.4463 19.9949 25.4197 19.9838C25.3932 19.9727 25.3702 19.9575 25.3507 19.9388C25.3313 19.9196 25.316 19.8974 25.3048 19.8721C25.2935 19.8468 25.2879 19.8196 25.2879 19.7908C25.2879 19.762 25.2935 19.7347 25.3048 19.7095C25.316 19.6837 25.3313 19.6615 25.3507 19.6428C25.3702 19.6235 25.3932 19.6084 25.4197 19.5978C25.4463 19.5867 25.4744 19.5811 25.5051 19.5811ZM5.59577 18.8318C5.59577 18.461 5.84155 18.1564 6.24321 18.1564C6.62697 18.1564 6.88605 18.4479 6.88605 18.8318C6.88605 19.2158 6.62697 19.5074 6.24321 19.5074C5.84155 19.5074 5.59577 19.2027 5.59577 18.8318ZM7.32347 18.8318V17.7769H6.85948V18.0331C6.71231 17.8431 6.489 17.7239 6.18546 17.7239C5.58708 17.7239 5.11797 18.1877 5.11797 18.8318C5.11797 19.4765 5.58708 19.9398 6.18546 19.9398C6.489 19.9398 6.71231 19.8206 6.85948 19.6306V19.8868H7.32347V18.8318ZM23.0031 18.8318C23.0031 18.461 23.249 18.1564 23.6506 18.1564C24.0349 18.1564 24.2935 18.4479 24.2935 18.8318C24.2935 19.2158 24.0349 19.5074 23.6506 19.5074C23.249 19.5074 23.0031 19.2027 23.0031 18.8318ZM24.7314 18.8318V16.9297H24.2669V18.0331C24.1197 17.8431 23.8964 17.7239 23.5929 17.7239C22.9945 17.7239 22.5254 18.1877 22.5254 18.8318C22.5254 19.4765 22.9945 19.9398 23.5929 19.9398C23.8964 19.9398 24.1197 19.8206 24.2669 19.6306V19.8868H24.7314V18.8318ZM13.083 18.1346C13.382 18.1346 13.5741 18.3201 13.6231 18.6465H12.5158C12.5654 18.3418 12.7524 18.1346 13.083 18.1346ZM13.0923 17.7239C12.4668 17.7239 12.0293 18.1741 12.0293 18.8318C12.0293 19.5028 12.4846 19.9398 13.1234 19.9398C13.4448 19.9398 13.7392 19.8605 13.9982 19.6443L13.7709 19.3042C13.592 19.4452 13.3641 19.5251 13.1499 19.5251C12.851 19.5251 12.5786 19.3881 12.5118 19.0081H14.0963C14.101 18.9511 14.1056 18.8935 14.1056 18.8318C14.101 18.1741 13.6901 17.7239 13.0923 17.7239ZM18.6949 18.8318C18.6949 18.461 18.9407 18.1564 19.3423 18.1564C19.7261 18.1564 19.9852 18.4479 19.9852 18.8318C19.9852 19.2158 19.7261 19.5074 19.3423 19.5074C18.9407 19.5074 18.6949 19.2027 18.6949 18.8318ZM20.4226 18.8318V17.7769H19.9586V18.0331C19.8109 17.8431 19.5882 17.7239 19.2846 17.7239C18.6862 17.7239 18.2171 18.1877 18.2171 18.8318C18.2171 19.4765 18.6862 19.9398 19.2846 19.9398C19.5882 19.9398 19.8109 19.8206 19.9586 19.6306V19.8868H20.4226V18.8318ZM16.0745 18.8318C16.0745 19.472 16.5251 19.9398 17.2129 19.9398C17.5344 19.9398 17.7485 19.8691 17.9805 19.6882L17.7577 19.3174C17.5835 19.4411 17.4005 19.5074 17.1992 19.5074C16.8287 19.5028 16.5563 19.2381 16.5563 18.8318C16.5563 18.4257 16.8287 18.1609 17.1992 18.1564C17.4005 18.1564 17.5835 18.2225 17.7577 18.3463L17.9805 17.9755C17.7485 17.7946 17.5344 17.7239 17.2129 17.7239C16.5251 17.7239 16.0745 18.1918 16.0745 18.8318ZM22.0568 17.7239C21.789 17.7239 21.6147 17.8477 21.4942 18.0331V17.7769H21.0343V19.8868H21.4988V18.7041C21.4988 18.3549 21.6505 18.1609 21.9541 18.1609C22.0481 18.1609 22.1462 18.1741 22.2443 18.214L22.3874 17.7815C22.2847 17.7416 22.1508 17.7239 22.0568 17.7239ZM9.61842 17.9447C9.39506 17.7991 9.08747 17.7239 8.74813 17.7239C8.20749 17.7239 7.85952 17.9801 7.85952 18.3994C7.85952 18.7435 8.11862 18.9556 8.59591 19.0218L8.8151 19.0526C9.06959 19.088 9.18966 19.1542 9.18966 19.2735C9.18966 19.4366 9.02003 19.5296 8.70322 19.5296C8.38177 19.5296 8.14974 19.428 7.99342 19.3088L7.77469 19.666C8.02919 19.8514 8.35057 19.9398 8.69858 19.9398C9.31485 19.9398 9.67208 19.6528 9.67208 19.2512C9.67208 18.8804 9.39104 18.6864 8.92651 18.6201L8.70779 18.5888C8.50696 18.5626 8.346 18.5231 8.346 18.3817C8.346 18.2271 8.49775 18.1346 8.75223 18.1346C9.0246 18.1346 9.2883 18.2362 9.41759 18.3155L9.61842 17.9447ZM15.6054 17.7239C15.3376 17.7239 15.1634 17.8477 15.0432 18.0331V17.7769H14.5833V19.8868H15.0473V18.7041C15.0473 18.3549 15.1991 18.1609 15.5026 18.1609C15.5967 18.1609 15.6948 18.1741 15.7929 18.214L15.936 17.7815C15.8333 17.7416 15.6994 17.7239 15.6054 17.7239ZM11.6456 17.7769H10.8868V17.1368H10.4176V17.7769H9.98479V18.1963H10.4176V19.1588C10.4176 19.6483 10.6097 19.9398 11.1586 19.9398C11.3599 19.9398 11.5919 19.8782 11.7391 19.7766L11.6052 19.3835C11.4667 19.4629 11.315 19.5028 11.1943 19.5028C10.9624 19.5028 10.8868 19.3614 10.8868 19.1497V18.1963H11.6456V17.7769ZM4.70764 19.8868V18.5626C4.70764 18.0639 4.38622 17.7285 3.86805 17.7239C3.59568 17.7194 3.31463 17.8032 3.1179 18.0993C2.97073 17.8654 2.73873 17.7239 2.41271 17.7239C2.1848 17.7239 1.962 17.7901 1.78774 18.0371V17.7769H1.32324V19.8868H1.79183V18.7171C1.79183 18.3509 1.99726 18.1564 2.31459 18.1564C2.62273 18.1564 2.77859 18.3549 2.77859 18.7126V19.8868H3.24769V18.7171C3.24769 18.3509 3.4618 18.1564 3.76994 18.1564C4.08676 18.1564 4.23853 18.3549 4.23853 18.7126V19.8868H4.70764Z" fill="#9A9C9E"/>
<path d="M25.7543 12.8697V12.5615H25.673L25.579 12.7732L25.4855 12.5615H25.4037V12.8697H25.4615V12.6373L25.5493 12.8378H25.6091L25.6971 12.6368V12.8697H25.7543ZM25.2387 12.8697V12.6141H25.3429V12.562H25.0771V12.6141H25.1815V12.8697H25.2387Z" fill="#F79410"/>
<path d="M16.5157 14.1955H9.4834V1.7002H16.5157V14.1955Z" fill="#FF5F00"/>
<path d="M9.93397 7.94672C9.93397 5.41201 11.1343 3.15415 13.0035 1.69908C11.6367 0.635073 9.91144 0 8.0366 0C3.59799 0 0 3.55782 0 7.94672C0 12.3356 3.59799 15.8935 8.0366 15.8935C9.91144 15.8935 11.6367 15.2584 13.0035 14.1944C11.1343 12.7393 9.93397 10.4815 9.93397 7.94672Z" fill="#EB001B"/>
<path d="M26.0001 7.94672C26.0001 12.3356 22.4022 15.8935 17.9636 15.8935C16.0887 15.8935 14.3635 15.2584 12.9961 14.1944C14.8658 12.7393 16.0662 10.4815 16.0662 7.94672C16.0662 5.41201 14.8658 3.15415 12.9961 1.69908C14.3635 0.635073 16.0887 0 17.9636 0C22.4022 0 26.0001 3.55782 26.0001 7.94672Z" fill="#F79E1B"/>
</g>
<defs>
<clipPath id="clip0_405_38423">
<rect width="26" height="20" fill="white"/>
</clipPath>
</defs>
</svg>
