<svg width="49" height="14" viewBox="0 0 49 14" fill="none" xmlns="http://www.w3.org/2000/svg">
<g clip-path="url(#clip0_1625_117007)">
<path fill-rule="evenodd" clip-rule="evenodd" d="M13.2001 0.415039V0.420968C13.1941 0.420968 11.3021 0.415039 10.7977 2.19945C10.3351 3.83565 9.03175 8.35301 8.99576 8.47753H8.63539C8.63539 8.47753 7.30197 3.85937 6.83348 2.19352C6.32896 0.409111 4.43097 0.415039 4.43097 0.415039H0.106445V13.9908H4.43097V5.92834H4.61115H4.79134L7.31399 13.9908H10.3172L12.8397 5.93426H13.2001V13.9908H17.5247V0.415039H13.2001Z" fill="#4DB45E"/>
<path fill-rule="evenodd" clip-rule="evenodd" d="M28.9968 0.415039C28.9968 0.415039 27.7295 0.527676 27.1348 1.83782L24.0717 8.47753H23.7113V0.415039H19.3867V13.9908H23.471C23.471 13.9908 24.7984 13.8722 25.393 12.568L28.3961 5.92833H28.7565V13.9908H33.0811V0.415039H28.9968Z" fill="#4DB45E"/>
<path fill-rule="evenodd" clip-rule="evenodd" d="M35.0029 6.58105V13.9914H39.3274V9.66375H44.0123C46.0544 9.66375 47.7843 8.3773 48.4269 6.58105H35.0029Z" fill="#4DB45E"/>
<path fill-rule="evenodd" clip-rule="evenodd" d="M44.0126 0.415039H34.3965C34.877 2.99977 36.8411 5.07466 39.3817 5.75049C39.9583 5.90462 40.565 5.98762 41.1896 5.98762H48.6014C48.6674 5.67935 48.6974 5.36515 48.6974 5.03909C48.6974 2.48401 46.6012 0.415039 44.0126 0.415039Z" fill="url(#paint0_linear_1625_117007)"/>
</g>
<defs>
<linearGradient id="paint0_linear_1625_117007" x1="34.3976" y1="3.20133" x2="48.6974" y2="3.20133" gradientUnits="userSpaceOnUse">
<stop offset="0.3" stop-color="#00B4E6"/>
<stop offset="1" stop-color="#088CCB"/>
</linearGradient>
<clipPath id="clip0_1625_117007">
<rect width="49" height="14" fill="white"/>
</clipPath>
</defs>
</svg>
