<svg width="46" height="20" viewBox="0 0 46 20" fill="none" xmlns="http://www.w3.org/2000/svg">
<path d="M19.9082 17.7661H16.1865L18.5144 2.74707H22.2358L19.9082 17.7661Z" fill="#00579F"/>
<path d="M33.3993 3.11403C32.6652 2.81014 31.5009 2.47461 30.0613 2.47461C26.386 2.47461 23.798 4.51966 23.7821 7.44345C23.7515 9.60062 25.6351 10.7988 27.0438 11.518C28.4836 12.253 28.9731 12.7327 28.9731 13.3879C28.9584 14.3941 27.8096 14.8578 26.7381 14.8578C25.2523 14.8578 24.4561 14.6187 23.2462 14.059L22.7561 13.819L22.2354 17.1904C23.1083 17.6054 24.7164 17.9736 26.386 17.9898C30.291 17.9898 32.8334 15.9764 32.8634 12.8606C32.8783 11.1509 31.8838 9.84081 29.7396 8.77029C28.4378 8.08309 27.6407 7.61971 27.6407 6.91658C27.656 6.27738 28.3149 5.62266 29.7843 5.62266C30.9942 5.59059 31.8832 5.89406 32.5565 6.19774L32.8932 6.35722L33.3993 3.11403Z" fill="#00579F"/>
<path d="M38.3459 12.4454C38.6524 11.5826 39.8317 8.24321 39.8317 8.24321C39.8163 8.27528 40.1376 7.36445 40.3214 6.80531L40.5815 8.09944C40.5815 8.09944 41.2863 11.6945 41.4393 12.4454C40.8577 12.4454 39.081 12.4454 38.3459 12.4454ZM42.9398 2.74707H40.0611C39.1734 2.74707 38.499 3.01847 38.1159 3.99321L32.5879 17.766H36.4929C36.4929 17.766 37.1358 15.9122 37.274 15.513C37.7024 15.513 41.5012 15.513 42.0523 15.513C42.1591 16.0403 42.4964 17.766 42.4964 17.766H45.9422L42.9398 2.74707Z" fill="#00579F"/>
<path d="M13.0781 2.74707L9.43335 12.9887L9.03506 10.9116C8.36124 8.51482 6.24796 5.91084 3.88965 4.61607L7.22808 17.7502H11.1636L17.0134 2.74707H13.0781Z" fill="#00579F"/>
<path d="M6.04903 2.74707H0.0612573L0 3.05053C4.67084 4.29688 7.76426 7.30117 9.03517 10.9122L7.73352 4.00956C7.51921 3.05032 6.86064 2.77871 6.04903 2.74707Z" fill="#FAA61A"/>
</svg>
